<?xml version="1.0" encoding="UTF-8"?>
<svg id="Camada_1" data-name="Camada 1" xmlns="http://www.w3.org/2000/svg" viewBox="0 0 387.92 391.32">
  <defs>
    <style>
      .cls-1 {
        fill: #383838;
      }

      .cls-1, .cls-2 {
        stroke-width: 0px;
      }

      .cls-2 {
        fill: #6ad800;
      }
    </style>
  </defs>
  <path class="cls-1" d="M6.08,160.43c0-10.03,0-20.06,0-30.09,1.17-1.03,2.25-2.16,3.51-3.06,16.74-11.89,33.48-23.77,50.29-35.56,1.92-1.34,2.7-2.73,2.67-5.09-.12-11-.07-22-.05-33.01.02-9.53,4.9-14.44,14.44-14.45,17.85-.02,35.7-.03,53.55.02,2.29,0,4.25-.47,6.14-1.84,9.21-6.65,18.58-13.1,27.74-19.83,17.41-12.78,41.07-13.01,58.6-.43,9.33,6.69,18.72,13.31,28.03,20.04,1.98,1.43,3.99,2.07,6.44,2.06,18.09-.07,36.19-.07,54.28-.02,8.56.03,13.63,5.17,13.66,13.75.04,10.76.12,21.52-.05,32.27-.05,3.23.83,5.27,3.61,7.19,16.57,11.49,32.96,23.23,49.45,34.84,2.27,1.6,3.46,3.51,3.46,6.4-.04,76.89-.02,153.79-.05,230.68,0,8.64-4.67,15.1-12.8,18.21-.65.25-1.5.14-1.86.96H22.22c-8.78-1.98-14.19-7.34-16.14-16.14,0-53.81,0-107.62,0-161.44.54-.64,1.05-1.3,1.63-1.9,1.88-1.98,4.22-2.48,6.72-1.65,2.56.85,3.92,2.82,4.11,5.52.09,1.22.05,2.44.05,3.67,0,49.14,0,98.28.02,147.43,0,1.38-.3,2.83.51,4.58,4.14-3.54,8.02-6.86,11.9-10.18.31-.19.65-.35.92-.58,38.45-31.93,76.87-63.88,115.37-95.74,2.33-1.93,1.24-2.72-.35-4.03-19.66-16.3-39.28-32.65-58.93-48.95-18.99-15.75-38.01-31.47-57.02-47.2-3.92-3.33-7.85-6.66-12.45-10.57,0,4.56.14,8.17-.03,11.76-.26,5.2-5.57,7.97-9.67,5.11-1.05-.73-1.86-1.82-2.78-2.74ZM165.67,38.39c1.03.82,2.26.84,3.47.84,14.1-.02,28.2-.04,42.3-.07,5.5.05,10.99.11,16.49.12.8,0,1.9.22,2.14-.87.18-.79-.63-1.26-1.22-1.67-5.71-3.98-11.16-8.41-17.2-11.79-6.99-3.9-14.66-5.9-22.84-3.95-5.65.26-10.67,2.4-15.25,5.47-5.46,3.65-10.72,7.59-16.07,11.41-.4.28-.76.61-.38,1.32,2.81-.27,5.77.52,8.56-.82ZM356.21,140.63c2.52-1.11,4.04-3.51,6.29-4.93,2.42-1.53,2.21-2.73.01-4.28-11.55-8.12-23.07-16.27-34.56-24.46-2.23-1.59-2.67-.63-2.63,1.53.07,3.65.09,7.3.12,10.95v47.25c10.89-9.23,20.82-17.64,30.76-26.06ZM61.95,111.69c.86-1.93.63-3.84.19-6.42-10.52,7.62-20.52,14.87-30.53,22.12-.58-.03-1.07.13-1.37.67q-8.03,5.53-.18,11.52c.29.22.63.35.95.52,10.22,8.61,20.43,17.22,31.17,26.27.19-1.53.31-2.11.32-2.68,0-16.27.02-32.53-.02-48.8,0-1.07-.35-2.14-.53-3.22ZM356.07,352.73c4.2,3.53,8.39,7.07,13.02,10.97v-217.16c-4.67,3.95-8.82,7.46-12.97,10.96-11.1,9.21-22.19,18.42-33.29,27.63-27.19,22.56-54.37,45.13-81.61,67.63-2.19,1.8-2.57,2.71-.09,4.74,18.05,14.81,35.95,29.81,53.92,44.72,20.32,16.85,40.67,33.68,61.01,50.51ZM348.02,370.92h9.06c-.48-1.65-1.53-2.15-2.34-2.83-40.71-33.84-81.44-67.66-122.16-101.48q-4.01-3.33-8.05,0c-.28.23-.52.51-.78.76-4.83,3.08-9.79,5.88-15.34,7.52-14.38,4.25-27.91,1.97-40.84-5.15-1.52-1.15-3.23-2.12-4.52-3.48-2.78-2.93-5.19-2.87-7.53.4-.69.5-1.41.97-2.06,1.51-40.53,33.65-81.05,67.3-121.57,100.96-.5.42-1.38.69-.93,1.88.65,0,1.36,0,2.07,0,103.29,0,206.58-.01,309.87-.02,1.71,0,3.42-.05,5.13-.08ZM300.45,187.04c3.23-2.59,6.38-5.29,9.71-7.74,2.08-1.53,2.78-3.29,2.77-5.86-.09-25.38-.06-50.76-.06-76.14,0-14.03-.06-28.06.06-42.09.02-2.66-.63-3.78-3.45-3.55-3.03.25-6.09.15-9.14.2-16.38-.02-32.75-.06-49.13-.07-57.57-.04-115.15-.04-172.72-.16-3.02,0-3.6,1-3.59,3.76.09,39.48.1,78.96.04,118.44,0,2.33.76,3.76,2.53,5.22,30.12,24.94,60.18,49.96,90.25,74.96,16.96,14.1,35.61,14.07,52.52-.05,14.07-11.74,28.21-23.41,42.29-35.15,12.66-10.56,25.28-21.18,37.91-31.78Z"/>
  <path class="cls-1" d="M6.08,180.98c.61-.73,1.17-1.52,1.84-2.2,2.35-2.37,6.18-2.46,8.61-.25,2.55,2.31,2.7,6.39.33,8.89-2.23,2.35-6.16,2.54-8.63.35-.8-.71-1.44-1.58-2.16-2.38,0-1.47,0-2.94,0-4.4Z"/>
  <path class="cls-2" d="M206.64,177.46c-6.35,5.69-13.65,9.25-22.19,10.41-17.11,2.32-31.65-9.21-33.07-26.46-1.64-19.98,10.42-41.61,28.23-50.62,11.14-5.63,24.96-3.36,33.91,5.52.83.82,1.32,2.09,2.87,2.38.33-1.55.63-3.06.98-4.56.93-4,3.88-6.19,7.34-5.49,3.67.74,5.66,3.98,4.88,8.11-3.22,17.16-6.52,34.31-10.79,51.25-1.23,4.88.24,6.87,5.18,7.23,6.55.47,12.09-1.68,16.3-6.7,11.94-14.22,14.19-30.44,8.15-47.49-6.03-17.06-18.37-27.87-36.38-31.03-34.43-6.04-70.18,16.42-79.92,49.82-7.87,26.96,7.2,54.93,34.15,62.92,19.41,5.76,39.08,7.53,58.97,2.5,12.66-3.2,23.52-9.4,32.04-19.47,2.58-3.05,5.63-3.79,8.41-2.21,2.66,1.51,3.57,3.89,3.08,6.85-.25,1.52-1.25,2.62-2.21,3.74-11.61,13.6-26.59,21.21-43.94,24.47-22.3,4.19-44.26,2.2-65.31-5.77-35.19-13.33-50.17-54.4-32.17-88.68,13.53-25.77,34.56-42.64,63.98-46.94,31.04-4.54,56.9,7.93,68.87,34.27,10.41,22.89,8.21,45.07-8.05,64.94-7.57,9.25-17.71,12.66-29.5,11.07-5.57-.75-9.13-3.42-13.83-10.06ZM163.79,153.91c-.13,14.67,6.3,22.04,16.83,21.7,6.3-.2,11.96-2.33,16.64-6.69,3.14-2.92,5.83-6.24,8.57-9.53,4.85-5.83,4.87-13.12,6.41-19.95.14-.63-.26-1.41-.49-2.1-1.34-4.12-3.44-7.82-6.23-11.12-5.11-6.06-13.69-7.91-20.6-4-13.3,7.52-19.63,19.5-21.14,31.7Z"/>
</svg>