<?xml version="1.0" encoding="UTF-8"?>
<svg id="Camada_1" data-name="Camada 1" xmlns="http://www.w3.org/2000/svg" viewBox="0 0 387.92 420.27">
  <defs>
    <style>
      .cls-1 {
        fill: #fff;
      }

      .cls-1, .cls-2 {
        stroke-width: 0px;
      }

      .cls-2 {
        fill: #6ad800;
      }
    </style>
  </defs>
  <path class="cls-1" d="M106.09,409.22c-3.79-1.71-4.95-4.71-4.94-8.76.06-111.35.05-222.71.06-334.06,0-6.74,2.05-8.75,8.84-8.75,17.87-.02,35.74-.08,53.6.06,3.06.02,4.19-.78,3.85-3.88-.67-6.02,1.41-10.92,6.42-14.46,2.85-1.34,5.82-1.89,8.98-1.81,4.76.11,9.54-.15,14.3.09,3.02.16,3.87-.97,3.59-3.76-.57-5.73.97-10.94,4.21-15.68,5.19-5.38,11.56-7.33,18.97-7.17,11.26.26,22.54.2,33.81.02,7-.11,12.94,1.94,17.75,7.09,3.42,4.33,4.64,9.38,4.85,14.76-.87,3.58.28,5.36,4.19,4.69.63-.11,1.28-.1,1.92-.15,3.75.05,7.5.12,11.26.14,10.18.04,15.6,4.98,15.6,15.06,0,4.1,1.1,5.14,5.14,5.09,17.48-.23,34.96-.11,52.44-.09,6.52,0,8.8,2.32,8.81,8.91.02,18,0,36,0,53.99,0,6.88-.66,7.88-6.84,10.4-4.97-1.44-6.56-4.67-6.46-9.84.3-15.47.05-30.95.17-46.42.02-2.8-.65-4.01-3.65-3.78-3.21.25-6.44.1-9.67.12-9.97-.04-19.95-.1-29.92-.12-9.95-.02-9.83,0-9.81,9.97,0,2.88,1.06,3.41,3.63,3.36,6.86-.15,13.73-.06,20.6-.05,6.39.02,8.63,2.23,8.64,8.61.02,74.11,0,148.22.06,222.33,0,2.95-.98,5.13-3.06,7.19-16.91,16.8-33.77,33.65-50.57,50.57-2.19,2.2-4.53,3.06-7.59,3.06-46.77-.06-93.54-.05-140.31-.06-1.42,0-2.85.01-4.27-.05-3.26-.14-5.18-1.89-6.09-5-.53-1.8-.42-3.59-.42-5.39,0-90.17,0-180.35,0-270.52,0-1.04-.04-2.08.01-3.11.28-5.04,2.83-7.56,7.86-7.62,5.18-.06,10.36-.02,15.55-.02,10.5,0,10.45,0,9.9-10.62-.1-2.01-.71-2.71-2.72-2.69-12.31.1-24.61.11-36.92.15-2.72-.05-5.44-.15-8.15-.14-5.87.04-5.22-.71-5.22,5.11-.01,102.48-.02,204.96.03,307.44,0,4.07-1.91,9.6.87,11.85,2.83,2.29,8.19.66,12.44.54,1.68.04,3.36.13,5.05.13,71.77,0,143.54,0,215.31,0,1.68,0,3.37-.06,5.05-.1,2.72.04,5.43.1,8.15.11,5.17.02,5.17,0,5.17-5.26,0-70.67,0-141.34,0-212.01,0-5.65,1.23-7.23,6.44-8.36,5.41,1.37,6.74,3.23,6.74,9.56,0,72.5,0,145,0,217.5,0,.78-.07,1.56.01,2.33.41,4.12-1.07,7.29-4.63,9.47H106.09ZM268.53,97.18c5.97.07,11.93.14,17.9.21,3.49.01,6.99-.04,10.47.05,1.91.05,2.82-.52,2.81-2.62-.05-13.84-.02-27.68.03-41.52,0-1.82-.7-2.57-2.52-2.52-3.62.09-7.24.07-10.86.1-5.55-.45-11.2.86-16.68-.96-1.81-1.94-2.92-4.16-2.81-6.88.04-2.81.1-5.62.1-8.42,0-8.41-2.28-10.55-10.85-10.19-3.34-.04-6.68-.31-10.01.24-8.61-.64-17.24-.38-25.86-.17-3.94.09-6.09,2.64-6.18,6.57-.1,4.24.09,8.49.16,12.74-2.37,6.51-2.82,6.82-10.14,7.07-.77.03-1.53.19-2.3.29-3.2-.68-6.43-.27-9.65-.29-12.34-.09-12.34-.06-11.21,12.41-.02,2.3-.03,4.6-.05,6.89.02,7.29.03,14.58.05,21.87-.49,5.43-.49,5.45,4.88,5.38,1.66-.02,3.31-.15,4.97-.22,17.67.43,35.34.29,53.01.07,8.24.24,16.49.36,24.73-.09ZM147.4,229.71c0,42.89.04,85.78-.07,128.67,0,3.35.74,4.38,4.26,4.37,41.46-.13,82.93-.11,124.39-.03,2.96,0,4.36-.38,4.3-3.9-.21-13.6-.1-27.21-.08-40.82.01-6.06,2.33-8.3,8.48-8.31,13.22,0,26.44-.15,39.65.09,3.84.07,4.95-.8,4.94-4.83-.14-67.51-.1-135.02-.1-202.53,0-.78-.07-1.56.01-2.33.21-2.01-.61-2.76-2.65-2.69-3.62.13-7.29.33-10.87-.05-4.06-.42-6.64.43-7.07,4.99-.1,1.05-1.04,2.06-1.71,3-3.56,4.99-8.84,5.88-14.43,5.89-25.01.02-50.02,0-75.02,0-12.57,0-25.14.02-37.71,0-9.21-.02-15.32-4.03-16.21-12.1-.22-2.02-1.62-1.68-2.85-1.68-4.28-.03-8.57.22-12.82-.08-3.53-.25-4.54.83-4.53,4.45.13,42.63.08,85.26.08,127.89ZM293.44,352.25c9.81-9.82,19.52-19.54,29.27-29.29-8.83,0-17.96.04-27.09-.03-2.11-.01-2.2,1.19-2.19,2.75.02,8.92.01,17.84.01,26.57Z"/>
  <path class="cls-2" d="M39.22,409.22c-2.25-1.59-3.82-3.65-5.05-6.15-8.21-16.58-16.53-33.11-24.84-49.64-.84-1.66-1.21-3.34-1.21-5.21.04-102.72.04-205.45.06-308.17,0-17.66,11.25-28.88,28.93-28.86,6.45,0,12.94-.58,19.26,1.49,10.03,3.29,17.65,12.56,17.84,23.09.33,17.59.45,35.19.38,52.79-.32,85.5-.18,170.99-.04,256.49,0,4.32-.89,8.01-2.81,11.78-7.86,15.45-15.58,30.98-23.28,46.52-1.25,2.52-2.79,4.62-5.35,5.86h-3.89ZM28.24,64.48q-6.74.87-6.74,7.88c0,.38.06.78,0,1.15-.62,3.49.98,4.67,4.26,4.15.87-.14,1.75-.24,2.62-.36,8.81-.02,17.62-.04,26.42-.06,7.23-.02,6.09.69,6.2-6.14.02-1.42-.09-2.85.02-4.26.19-2.27-.9-3.01-2.99-2.81-1.15.11-2.32.13-3.47.2-8.77-.01-17.55-.51-26.31.26ZM53.13,25.97c-7.73-2.61-15.5-2.13-23.28-.32-5.34,1.97-7.75,6.13-8.34,11.48-.26,2.42-.09,4.89-.09,7.33q0,6.74,6.91,6.3c8.81,0,17.61,0,26.42,0,.64.01,1.3-.06,1.93.05,3.71.64,4.67-1.11,4.4-4.53-.27-3.33.23-6.72-.15-10.03-.56-4.83-2.69-8.76-7.8-10.29ZM54.76,337.67c6.17,2.21,6.26,2.18,6.26-2.33,0-80.11-.01-160.21.07-240.32,0-3.1-.9-4.3-3.94-3.87-.76.11-1.55.02-2.33.02-6.35-1.51-6.93-1.06-6.93,5.27,0,78.39,0,156.77,0,235.16q0,5.59,5.71,6.09c.38.03.78-.02,1.16-.03ZM28.33,337.66c2.88-.49,6.41.7,6.4-4.64-.13-79.28-.11-158.57,0-237.85,0-3.55-1.09-4.69-4.39-4.17-.64.1-1.29.07-1.94.11-6.93-1.15-6.98-1.12-6.98,5.71,0,78.76-.02,157.52.03,236.28,0,6.92-1.8,7.19,6.88,4.56ZM41.38,387.83c5.7-11.42,11.06-22.12,16.39-32.84.78-1.56.08-2.2-1.52-2.69-10.05-3.06-20.04-2.82-30.08.06-2.34.67-1.65,1.77-.98,3.11,5.25,10.5,10.5,20.99,16.19,32.37Z"/>
  <path class="cls-1" d="M372.93,157.43c-3.07-.87-5.79-2.18-6.33-5.76-.63-4.16,1.51-6.69,6.4-7.8,3.84.42,6.37,2.52,6.56,6.35.22,4.33-2.84,6.25-6.63,7.21Z"/>
  <path class="cls-1" d="M167.47,303.16c0-6.21-.04-12.42.01-18.63.04-5.21,2.18-7.91,7.37-8.01,12.68-.24,25.36-.24,38.04-.01,5.35.09,7.5,2.79,7.52,8.27.03,12.16.03,24.33,0,36.49-.01,5.68-2.22,8.35-7.76,8.44-12.42.2-24.84.19-37.26.01-5.6-.08-7.87-2.72-7.91-8.31-.04-6.08,0-12.16,0-18.25ZM193.94,315.96c3.5,0,6.99-.07,10.49.03,1.98.05,2.78-.66,2.76-2.7-.08-6.86-.06-13.73-.01-20.59.01-1.84-.74-2.51-2.55-2.5-7.12.05-14.24.05-21.36,0-1.8-.01-2.56.66-2.55,2.5.05,6.86.07,13.73-.01,20.59-.02,2.03.77,2.76,2.75,2.7,3.49-.09,6.99-.03,10.49-.03Z"/>
  <path class="cls-1" d="M220.42,230.39c0,6.22.06,12.44-.02,18.66-.06,4.83-2.54,7.59-7.38,7.65-12.69.15-25.39.15-38.09,0-5-.06-7.43-2.84-7.45-7.97-.04-12.44-.05-24.87,0-37.31.02-5.28,2.29-7.6,7.58-7.62,12.57-.07,25.13-.06,37.7,0,5.45.03,7.61,2.34,7.65,7.95.04,6.22,0,12.44,0,18.66ZM207.16,230.58c0-3.62-.05-7.24.02-10.86.03-1.76-.57-2.6-2.45-2.59-7.24.05-14.48.04-21.72,0-1.67,0-2.29.74-2.28,2.35.03,7.24.04,14.48,0,21.73-.01,1.92.92,2.4,2.64,2.39,7.11-.05,14.22-.05,21.34,0,1.84.01,2.53-.75,2.49-2.55-.07-3.49-.02-6.98-.02-10.47Z"/>
  <path class="cls-1" d="M220.42,157.3c0,6.22.05,12.44-.01,18.66-.06,5.07-2.63,7.71-7.67,7.74-12.57.07-25.13.07-37.7,0-4.83-.03-7.51-2.69-7.54-7.47-.07-12.83-.08-25.65,0-38.48.03-4.49,2.52-6.93,7.07-6.96,12.95-.08,25.91-.08,38.86,0,4.49.03,6.89,2.53,6.95,7.08.09,6.48.02,12.95.02,19.43ZM193.74,170.5c3.62,0,7.24-.05,10.86.02,1.77.03,2.59-.58,2.58-2.45-.05-7.24-.04-14.49,0-21.73,0-1.67-.73-2.29-2.34-2.29-7.24.03-14.49.05-21.73,0-1.93-.01-2.39.94-2.38,2.65.05,7.11.05,14.23,0,21.34-.01,1.85.75,2.52,2.55,2.48,3.49-.07,6.98-.02,10.48-.02Z"/>
  <path class="cls-1" d="M276.78,217.02c-9.31,0-18.62.05-27.93-.02-5.06-.04-8.06-2.4-8.28-6.29-.2-3.63,1.53-5.93,5.01-6.77,1.61-.39,3.32-.53,4.98-.53,17.46-.04,34.92-.04,52.38,0,1.92,0,3.92.12,5.74.65,2.89.84,4.55,3.12,4.56,6.06.01,2.89-1.36,5.24-4.35,6.22-1.73.57-3.52.7-5.35.69-8.92-.04-17.85-.02-26.77-.02Z"/>
  <path class="cls-1" d="M277.08,130.75c9.45,0,18.9-.03,28.34.01,4.98.02,7.53,2.17,7.64,6.24.11,4.26-2.59,6.95-7.5,6.96-19.03.07-38.05.07-57.08,0-4.93-.02-7.93-2.69-7.94-6.64-.01-4.33,2.72-6.56,8.19-6.57,9.45-.03,18.9,0,28.34,0Z"/>
  <path class="cls-1" d="M277.15,283.23c9.32,0,18.63-.02,27.95,0,5.19.02,7.88,2.22,7.97,6.4.1,4.4-2.62,6.81-7.99,6.82-18.89.04-37.78.04-56.68,0-4.96-.01-7.87-2.57-7.86-6.65.01-4.07,2.94-6.56,7.88-6.57,9.58-.03,19.15,0,28.73-.01Z"/>
  <path class="cls-1" d="M266.67,176.89c-6.21,0-12.43.05-18.64-.02-4.85-.05-7.45-2.35-7.48-6.44-.03-3.87,2.78-6.6,7.43-6.74,5.69-.17,11.39-.05,17.08-.05,6.73,0,13.46-.02,20.19.01,3.65.02,6.65,1.22,7.87,5.01,1.31,4.07-1.64,8.04-6.27,8.15-6.73.16-13.46.04-20.19.04,0,.01,0,.02,0,.03Z"/>
  <path class="cls-1" d="M266.53,249.91c-6.21,0-12.42.05-18.62-.02-4.59-.05-7.2-2.33-7.36-6.22-.16-3.87,2.33-6.83,6.77-6.9,13.06-.21,26.13-.19,39.19-.02,4.16.05,7.11,3.37,6.89,6.9-.23,3.77-3.04,6.19-7.47,6.23-6.47.06-12.93.02-19.4.02Z"/>
  <path class="cls-1" d="M254.31,329.87c-3.42-.29-6.15.28-8.81-.57-3.2-1.02-5.03-3.04-4.94-6.5.09-3.46,1.94-5.55,5.27-6.15,4.98-.9,10.03-.81,15.02-.14,3.69.5,6.05,3.29,6.07,6.45.01,3.27-2.18,5.81-6.01,6.47-2.39.42-4.87.34-6.59.45Z"/>
</svg>