<?xml version="1.0" encoding="UTF-8"?>
<svg id="Camada_1" xmlns="http://www.w3.org/2000/svg" viewBox="0 0 400 400">
  <defs>
    <style>
      .cls-1 {
        fill: #4f9300;
      }

      .cls-2 {
        fill: #383838;
      }

      .cls-3 {
        opacity: .4;
      }
    </style>
  </defs>
  <g class="cls-3">
    <path class="cls-2" d="M95.8,98.39c0,.18,0,.36,0,.54,0,9.78.02.06,0-.54Z"/>
    <path class="cls-2" d="M381.66,141.1c.02-3.12-1.02-5.81-3.43-7.79-1.2-.99-1.56-2.06-1.54-3.54.08-4.11.07-8.23.02-12.34-.23-18.56-11.79-30.84-30.15-31.93-1.63-.1-2.14-.89-2.66-2.13-2.86-6.76-5.78-13.49-8.65-20.24-1.53-3.6-3.76-6.69-7.02-8.85-1.44-.96-1.86-2.01-1.82-3.62.09-3.62.13-7.25-.02-10.87-.23-5.76-2.97-10.12-8.07-12.74-5.2-2.68-10.45-2.35-15.32.91-5.35,3.59-6.83,8.9-6.66,15.09.21,7.57.05,7.5-7.37,7.5-2.05,0-2.66-.58-2.64-2.64.1-9.01.06-18.03.04-27.04-.01-4.88-1.72-9.1-5.65-12.04-2.08-1.56-3.89-1.54-8.83-1.7l-90.06-1.81h-1.95c-13.03,0-26.06,0-39.09,0-13.52,0-27.04-.06-40.56.04-7.92.06-14.56,6.83-14.44,14.43.05,3.33,1.66,5.33,4.44,5.54,2.73.21,4.83-1.57,5.48-4.64.94-4.45,2-5.34,6.52-5.34,30.18,0,60.35.02,90.53,0,1.73,0,76.54,1.01,76.54,1.01,0,0,7.15-.56,7.15,6.27,0,13.51-.12,27.04-.12,40.56s-.04,26.45.04,39.68c.01,2.03-.54,2.77-2.63,2.67-3.13-.16-6.28-.24-9.4.02-2.73.22-3.2-.84-3.18-3.32.1-18.42.06-36.84.05-55.26,0-7.88-3.79-11.61-11.75-11.61-12.34,0-24.69,0-37.03,0-7.48,0-11.34,3.88-11.34,11.43-.01,18.62-.03,37.23.04,55.85,0,2.05-.34,2.91-2.69,2.91-33.31-.07-66.62-.05-99.93.03-2.26,0-2.77-.72-2.76-2.85.02-3.55.04-4.53.05-4.31,0-1.09,0-2.18-.37-3.24-.81-2.32-2.48-3.56-4.87-3.5-2.4.06-4.09,1.38-4.62,3.77-.3,1.32-.33,2.72-.33,4.08-.02,21.95,0,7.69-.03,29.64,0,1.21.48,2.62-.82,3.53-1.99,1.4-2.94,3.56-4.1,5.57v14.7c2.16,5.85,6.36,8,12.54,7.85,11.55-.29,23.11-.03,34.67-.13,2.38-.02,3.44.47,4.17,3.06,3,10.7,10.07,17.63,20.66,20.99,1.08.34,2.36.18,3.21,1.15h9.99c.5-.99,1.55-.67,2.33-.9,11.28-3.22,18.59-10.41,21.73-21.7.54-1.93,1.24-2.62,3.33-2.61,7.15.01,14.31.02,21.46.03v-10.04c-6.87,0-13.75.01-20.62.03-2.51,0-3.96-.38-4.39-3.25-.34-2.25-1.51-4.36-2.41-6.8h3.13c8.2,0,16.39,0,24.59,0,.64-3.83,2.32-7.23,4.73-10-1.98.01-3.97.02-5.95.04-2.34.02-2.73-.85-2.71-2.91.1-8.23.04-16.46.04-24.68s.06-16.46-.04-24.68c-.03-2.16.37-3.1,2.86-3.07,11.46.14,22.92.11,34.38.02,2.13-.02,2.88.5,2.86,2.77-.08,14.88-.08,29.76-.02,44.63h9.94c0-6.98.03-6.98,6.95-6.98h.88c7.33,0,7.48,0,7.48,6.98h9.98c0-1.34-.04-2.69-.12-4.02-.13-2.29.57-3.03,2.94-3.01,12.44.11,24.88.05,37.32.05v.08c12.34,0,24.68.04,37.03-.04,2.11-.01,3.01.48,2.89,2.76-.18,3.32-.09,6.66-.03,9.99.03,1.48-.46,2.11-2.02,2.09-4.99-.05-9.99,0-14.99.05-.21,0-.41-.01-.61-.04,2.88,3.64,4.64,8.24,4.86,13.17.02.4.02.81,0,1.22.01,10.18.29,20.36.47,30.55,3.08-3.59,5.31-8.06,6.68-13.42.31-1.21.96-1.49,2.09-1.47,2.94.05,5.88.07,8.82,0,5.68-.15,9.77-4.23,9.9-9.88.08-3.23,0-6.47.02-9.7ZM133.89,142.61c-.76,1.34-1.45,2.85-1.66,4.35-.42,3.04-1.92,3.82-4.92,3.74-8.89-.24-17.78-.11-26.67-.12-2.63.03-5.26-.02-7.89.12-1.73.09-2.07-.63-2.11-2.21-.21-7.86-.25-7.86,7.58-7.83.78,0,1.56.04,2.34.07,10.75-.03,21.49-.05,32.24-.12,1.84-.01,1.94.51,1.1,2ZM160.84,175.82c-11.46-.16-20.31-9.59-19.71-20.06,0-11.38,8.46-19.69,19.75-19.97,9.67-.24,20.1,7.87,20.08,20.16-.01,10.96-9.2,20.03-20.12,19.88ZM201.24,118.65c-.19,3.32-.1,6.66-.03,9.98.03,1.52-.53,2.07-2.05,2.05-6.75-.05-13.51-.04-20.26,0-1.14,0-2.06-.44-3.02-.96-9.32-5.09-18.83-5.42-28.35-.72-2.37,1.17-4.65,1.73-7.26,1.7-11.45-.11-22.9-.1-34.35-.14-2.54.02-5.08-.04-7.62.1-1.83.1-2.63-.38-2.54-2.4.15-3.41.13-6.84,0-10.25-.06-1.81.59-2.42,2.36-2.32,2.63.14,5.27.1,7.9.14,18.11-.03,36.21-.06,54.32-.08,12.63-.01,25.25.05,37.88-.05,2.28-.02,3.14.57,3,2.95ZM251.2,63.12c.04,1.88-.74,2.29-2.43,2.27-5.86-.07-11.73-.03-17.6-.03-5.67,0-11.34-.13-17.01.06-2.52.08-3.14-.78-3.06-3.16.17-4.78.12-9.58.02-14.37-.04-1.85.43-2.58,2.43-2.57,11.73.08,23.46.06,35.19.01,1.66,0,2.49.33,2.45,2.24-.11,5.18-.11,10.36,0,15.54ZM306.48,40.34c.18-2.98,2.42-5.05,5.14-4.92,2.64.13,4.59,2.17,4.73,5.04.06,1.37.01,2.74.01,4.11q0,5.87-5.75,5.87-4.17,0-4.17-4.22c0-1.96-.08-3.92.03-5.87ZM286.4,62.75c-.02-1.61.42-2.23,2.13-2.21,8.31.1,16.61.08,24.92.11,7.6-.57,10.34,1.12,13.32,8.12,2.03,4.76,4.06,9.53,6.18,14.25.8,1.79.5,2.52-1.55,2.43-2.44-.1-4.89-.08-7.33-.11-11.73.01-23.45-.02-35.18.07-1.88.01-2.54-.47-2.5-2.44.11-6.74.08-13.49.01-20.23ZM354.08,105.36c-21.84.03-43.69.05-65.53.13-1.67,0-2.13-.55-2.18-2.19-.25-7.81-.3-7.81,7.4-7.81,16.56,0,33.11,0,49.67,0,1.37,0,2.75-.09,4.02.58,5.96-.4,13.09,3.68,15.66,9.28h-9.05ZM364.18,150.67c-2.24.03-3.29-.61-3.79-2.87-.52-2.34-1.58-4.56-2.52-7.18,4.14,0,7.94.05,11.74-.02,1.49-.03,1.99.49,2.08,2.02.45,8.04.49,7.95-7.51,8.05Z"/>
    <path class="cls-2" d="M146.11,95.5c-1.57,0-3.13.02-4.7,0-6.55-.11-10.55-4.1-10.69-10.65q-.09-4.17-4.44-4.26c-6.29-.12-10.38-4.25-10.45-10.58-.03-3.13-.04-6.27,0-9.4.09-5.96,3.99-9.93,9.89-10.13.2,0,.39,0,.59,0q4.34-.07,4.41-4.32c.11-6.6,4.3-10.76,10.9-10.81,2.84-.02,5.68-.02,8.52,0,6.49.04,10.62,4.03,10.9,10.52.04.88.05,1.76,0,2.64-.08,1.31.37,1.86,1.8,1.99,11.54,1.05,13.12,2.84,13.12,14.55,0,1.76.03,3.53-.01,5.29-.12,5.8-4.14,9.93-9.95,10.24-.78.04-1.58.1-2.35,0-2.04-.27-2.79.51-2.65,2.6.1,1.54-.07,3.14-.39,4.66-.9,4.27-4.57,7.37-8.93,7.61-1.85.11-3.72.02-5.58.02,0,.02,0,.03,0,.05ZM145.81,45.36q-5.11,0-5.11,5.11c0,.98,0,1.96,0,2.94,0,5.88-1.32,7.17-7.29,7.18-7.83,0-7.76,0-7.54,7.73.05,1.85.71,2.36,2.43,2.29,2.54-.1,5.09-.1,7.63,0,2.97.11,4.68,1.88,4.75,4.8.06,2.35.17,4.71-.02,7.05-.2,2.37.68,2.99,2.98,2.97,7.06-.07,7.06.02,7.06-7.06,0-6.29,1.48-7.78,7.69-7.78,8.06,0,8.02,0,7.56-7.99-.09-1.53-.58-2.08-2.08-2.03-2.45.08-4.9.08-7.34,0-3.16-.11-4.8-1.53-5.58-4.6-.49-1.93-.2-3.9-.24-5.85-.11-5.52.7-4.68-4.9-4.77Z"/>
    <path class="cls-2" d="M100.88,38.58c.04,2.65-2.4,5.01-5.14,4.97-.07,0-72.61,0-72.68,0-2.56-.14-4.65-2.25-4.74-4.83-.09-2.65,2.06-4.96,4.69-5.13.08,0,72.64,0,72.72-.01,2.73-.04,5.09,2.27,5.13,5Z"/>
    <path class="cls-2" d="M100.88,58.99c.04,2.65-2.4,5.01-5.14,4.97-.07,0-62.36,0-62.43,0-2.56-.14-4.65-2.25-4.74-4.83-.09-2.65,2.06-4.96,4.69-5.13.08,0,62.39,0,62.48-.01,2.73-.04,5.09,2.27,5.13,5Z"/>
    <path class="cls-2" d="M100.88,79.41c.04,2.65-2.4,5.01-5.14,4.97-.07,0-51.22,0-51.29,0-2.56-.14-4.65-2.25-4.74-4.83-.09-2.65,2.06-4.96,4.69-5.13.08,0,51.25,0,51.34-.01,2.73-.04,5.09,2.27,5.13,5Z"/>
  </g>
  <g>
    <path class="cls-2" d="M115.85,358.46c9.92,7.16,20.05,14.04,30.1,21.03,4.64,3.23,9.31,6.43,13.94,9.67,3.09,2.16,6.15,4.35,9.78,5.55h5.58c5.91-2.01,9.18-6.76,12.26-11.74,1.2-1.93,2.59-3.75,3.82-5.66,1.42-2.2,3.38-3.21,5.99-2.99,1.09.09,2.19.15,3.29.2,9.82.51,18.1-2.81,24.38-10.4,4.9-5.92,8.6-12.71,12.98-19.01.72-1.03,1.02-2.96,2.67-2.63,2.43.49,17.96.46,17.96.46h6.83c18.17-.02,36.33-.04,54.5-.05,2.28,0,4.58-.13,6.77-.73,7.96-2.17,12.81-8.52,12.86-17.01.08-13.52.03-27.04,0-40.56,0-1.32.02-76.46.02-79.01,0-1.94.02-3.88,0-5.82-.05-3.23-1.67-5.18-4.29-5.18-2.53,0-4.29,2.04-4.34,5.22-.06,3.88-.01,7.76-.02,11.64,0,.59-.06,1.18-.09,1.77.14.52.1,61.17.1,62.03-.02,16.8.01,33.6-.05,50.39-.02,4.72-3.35,8-8.1,8.29-4.38.55-8.77.36-13.15.09-1,.08-2,.23-3,.23-9.86.02-19.72.03-29.58,0-2.52,0-29.55.12-31.91-.09,1.73-2.71,3.12-5.23,5-7.44,1.46-2.37,3.16-4.62,4.33-7.12,3.56-7.58,3.88-15.1-1.22-22.24-1.75-2.45-4.45-3.84-6.72-5.7-.7-.58-1.6-.96-.74-2.16,3.93-5.47,7.38-11.26,11.55-16.57.51-.86.96-1.76,1.52-2.58,7.11-10.45,14.29-20.85,21.3-31.36,1.85-2.78,3.58-5.25,7.44-4.59.54.09,1.15-.19,1.73-.3,4.02-.82,7.68-2.5,11.16-4.63.66-.52,1.33-1.01,1.96-1.56,8.6-7.33,12.56-16.66,10.82-27.82-2.14-13.77-10.57-22.08-23.98-25.48-4.39-.81-8.77-.45-13.15.15-1.63.63-3.3,1.21-4.9,1.91-13.71,6.06-20.78,20.76-17.06,35.33.27,1.06,1.03,2.17.15,3.37-2.19,2.98-4,6.24-6.44,9.05-.86,1.73-1.93,3.31-3.19,4.76-1.42,2.76-3.45,5.09-5.1,7.56-3.3-3.03-4.09-6.65-4.06-10.95.18-23.78.08-47.56.09-71.34,0-7.67,4.06-11.3,11.67-10.51.25-.04.5-.11.75-.12q5-.27,5.17,4.61c.27,7.24,5.54,12.45,12.81,12.61,2.53.06,5.06.08,7.59.13,4.37,0,8.75,0,13.12,0,3.86-.04,7.73-.28,11.58-.07,5.76.32,10.35-1.55,13.66-6.33.79-1.95,1.57-3.89,1.66-6.06.21-5.09.24-5.09,5.35-4.87.08,0,.17.02.25.04,7.03-.98,12.36,2.87,11.72,10.96-.21,2.69,0,5.4-.04,8.11-.01,1.12.08,2.23.57,3.21.88,1.76,2.38,2.62,4.35,2.39,1.86-.22,3.43-1.32,3.52-3.13.27-5.72.96-11.53-.39-17.15-1.94-8.03-8.51-12.97-16.83-13.09-5.91-.09-11.83-.02-17.74-.02-19.68,0-39.36-.02-59.04,0-8.84.01-15.52,4.99-17.63,13.12-.53,2.04-.67,4.15-.67,6.27,0,23.31-.02,46.62.04,69.93,0,2.13-.22,3.22-2.82,2.9-3.26-.41-6.37.53-9.14,2.34-1.18.77-1.73.66-2.47-.64-5.15-9.03-14.85-11.79-23.82-6.75-1.45.81-1.91.44-2.64-.86-6.06-10.87-21.07-12.08-28.72-2.21-3.56,4.6-6.74,9.5-9.93,14.37-7.49,11.43-16,22.21-22.34,34.37-6.12,11.75-9.39,24.3-10.39,37.52-.67,8.86-.44,17.7-.36,26.56.03,3.26-1.05,6.29-2.5,9.19-3.1,6.18-1.75,13.16,3.86,17.21ZM261.83,145.4c.07-1.16.38-1.64,1.61-1.64,13.34.03,26.67.02,40.01.02.63,0,1.29-.13,1.58.81,1.33,4.27-1.12,7.78-5.53,7.8-5.4.02-10.8,0-16.21,0-4.98,0-9.96,0-14.94,0-5.46,0-6.85-1.54-6.52-7.01ZM282.93,193c-7.54-1.71-13.56,1.1-18.15,7.16-.88,1.16-1.66,2.39-2.76,3.97-.16-11.15,8.98-20.63,19.95-21.3,11.84-.72,21.67,7.78,22.97,19.87,1,9.29-6.26,20.2-14.62,21.55,1.11-1.68,2.12-3.2,3.11-4.72,2.53-3.92,3.69-8.19,2.72-12.79-1.53-7.28-5.95-12.09-13.23-13.74ZM119.45,345.99c2.96-6.45,4.43-13.08,3.69-20.31-.57-5.59,0-11.27.26-16.93.59-12.74,3.61-24.78,9.23-36.19,3.82-7.75,9.01-14.64,13.82-21.76,5.86-8.66,11.78-17.28,17.61-25.96,2.77-4.12,11.14-5.22,13.75-.11,2.72,2.92,2.33,6.07.75,9.35-1.41,2.92-.99,5.19,1.14,6.48,2.23,1.35,4.53.61,6.43-2.12,1.3-1.87,2.49-3.82,3.81-5.68,3.09-4.34,7.86-5.58,11.91-3.14,4.12,2.48,5.26,7.15,2.93,11.92-1.33,2.72-.82,5.3,1.27,6.49,2.27,1.29,4.42.62,6.25-1.99,1.5-2.14,2.87-4.39,4.44-6.48,2.97-3.95,7.89-4.82,11.93-2.21,3.79,2.45,4.87,7.39,2.47,11.62-.79,1.39-1.8,2.66-2.6,4.05-1.65,2.9.04,6.35,3.27,6.64,2.1.18,3.39-1.08,4.5-2.72,8.25-12.06,16.53-24.09,24.81-36.13,3.49-5.08,6.94-10.19,10.48-15.23,2.72-3.88,7.06-5.21,10.86-3.47,5.22,2.38,6.78,8.12,3.42,13.18-3.82,5.77-7.8,11.44-11.7,17.16-20.21,29.65-40.42,59.31-60.63,88.96-3.14,4.61-6.34,9.17-9.38,13.84-2.04,3.14-.5,6.72,2.95,7.09,2.38.25,3.67-1.39,4.84-3.1,3.67-5.37,7.3-10.76,10.96-16.13,5.37-7.89,10.74-15.78,16.14-23.64.44-.64.58-1.86,2.01-1.15,5.26,2.62,7.74,6.84,7.18,12.51-.27,2.76-1.46,5.17-2.96,7.45-8.44,12.74-16.86,25.49-25.3,38.24-1.17,1.77-2.51,3.37-4.15,4.75-5.24,4.4-11.34,5.21-17.88,4.49-5.71-.63-10.22,1.57-13.48,6.27-2.5,3.61-4.89,7.29-7.41,10.89-2.52,3.6-5.23,4.02-8.86,1.5-10.62-7.36-21.26-14.68-31.85-22.09-3.72-2.6-7.67-4.9-11.05-7.98-2.17-.71-3.82-2.17-5.21-3.87-1.04-1.28-1.44-2.8-.67-4.48Z"/>
    <path class="cls-2" d="M335.54,177.28c-2.33-.07-4.46,1.89-4.53,4.18-.07,2.34,1.88,4.35,4.27,4.4,2.36.04,4.19-1.67,4.3-4.01.11-2.48-1.67-4.49-4.03-4.57Z"/>
    <path class="cls-2" d="M129.6,342.06c-.81,1.43-1.36,2.89-.55,4.52.45,1.05,1.24,1.76,2.17,2.38,4.75,3.19,9.46,6.43,14.22,9.61,2.68,1.79,5.21,1.54,6.7-.57,1.56-2.21.89-4.7-1.91-6.63-4.57-3.15-9.24-6.17-13.77-9.38-2.4-1.7-4.6-1.82-6.87.06Z"/>
    <path class="cls-2" d="M166.83,371.91c1.38-.03,2.75-.74,3.48-2.35.8-1.75.71-3.53-.72-4.89-1.58-1.5-3.41-2.73-5.44-3.58-1.69-.71-3.15-.08-4.34,1.14-1.2,1.23-1.62,2.7-.93,4.39.81,1.98,5.44,5.24,7.93,5.29Z"/>
    <path class="cls-2" d="M266.02,316.7c-1.98.63-3.79,1.43-4.09,3.84-.31,2.51,1.1,4.39,3.65,4.8.83.13,1.66.24,2.49.35,10.14-.02,20.27-.03,30.4-.08,1.17,0,2.38-.1,3.5-.41,1.9-.54,3-1.92,3.03-3.9.02-2.07-1.03-3.5-3.03-4.19-1.06-.36-2.15-.36-3.25-.36-10.9,0-21.79-.03-32.69-.04Z"/>
  </g>
  <g>
    <path class="cls-1" d="M313.28,200.07c-2.14-13.77-10.57-22.08-23.98-25.48-4.4-.81-8.78-.45-13.15.14-1.63.64-3.3,1.21-4.9,1.92-13.71,6.06-20.77,20.76-17.05,35.33.19.76.63,1.53.55,2.35.05.07.09.13.14.19l7.14-10.4c-.16-11.15,8.98-20.63,19.95-21.29,11.84-.72,21.67,7.78,22.97,19.86,1,9.29-6.27,20.2-14.62,21.55l-6.8,9.87s.85.27,4.09.27c.55,0,1.15-.19,1.73-.3,4.02-.82,7.68-2.5,11.15-4.63.66-.52,1.33-1.01,1.96-1.56,8.6-7.33,12.56-16.66,10.82-27.82Z"/>
    <path class="cls-2" d="M335.54,177.28c-2.33-.07-4.46,1.89-4.53,4.18-.07,2.34,1.88,4.35,4.27,4.4,2.36.04,4.19-1.67,4.3-4.01.11-2.48-1.67-4.49-4.03-4.57Z"/>
    <path class="cls-2" d="M129.6,342.06c-.81,1.43-1.36,2.89-.55,4.52.45,1.05,1.24,1.76,2.17,2.38,4.75,3.19,9.46,6.43,14.22,9.61,2.68,1.79,5.21,1.54,6.7-.57,1.56-2.21.89-4.7-1.91-6.63-4.57-3.15-9.24-6.17-13.77-9.38-2.4-1.7-4.6-1.82-6.87.06Z"/>
    <path class="cls-2" d="M166.83,371.91c1.38-.03,2.75-.74,3.48-2.35.8-1.75.71-3.53-.72-4.89-1.58-1.5-3.41-2.73-5.44-3.58-1.69-.71-3.15-.08-4.34,1.14-1.2,1.23-1.62,2.7-.93,4.39.81,1.98,5.44,5.24,7.93,5.29Z"/>
    <path class="cls-2" d="M266.02,316.7c-1.98.63-3.79,1.43-4.09,3.84-.31,2.51,1.1,4.39,3.65,4.8.83.13,1.66.24,2.49.35,10.14-.02,20.27-.03,30.4-.08,1.17,0,2.38-.1,3.5-.41,1.9-.54,3-1.92,3.03-3.9.02-2.07-1.03-3.5-3.03-4.19-1.06-.36-2.15-.36-3.25-.36-10.9,0-21.79-.03-32.69-.04Z"/>
  </g>
</svg>