<?xml version="1.0" encoding="UTF-8"?>
<svg id="Camada_1" xmlns="http://www.w3.org/2000/svg" viewBox="0 0 775.83 775.83">
  <defs>
    <style>
      .cls-1 {
        fill: #4f9300;
      }

      .cls-2 {
        fill: #fff;
      }

      .cls-3 {
        opacity: .4;
      }
    </style>
  </defs>
  <g class="cls-3">
    <path class="cls-2" d="M188.94,193.89c0,.34,0,.69,0,1.03,0,18.67.05.12,0-1.03Z"/>
    <path class="cls-2" d="M734.8,275.44c.04-5.95-1.95-11.09-6.54-14.88-2.29-1.89-2.99-3.93-2.93-6.76.14-7.86.13-15.72.03-23.57-.44-35.44-22.51-58.89-57.57-60.97-3.12-.19-4.08-1.69-5.09-4.07-5.46-12.9-11.05-25.75-16.53-38.65-2.92-6.88-7.18-12.77-13.4-16.9-2.75-1.83-3.55-3.84-3.48-6.92.16-6.92.24-13.85-.03-20.76-.43-11-5.68-19.32-15.41-24.33-9.94-5.12-19.96-4.5-29.26,1.74-10.22,6.85-13.03,17-12.71,28.81.39,14.46.09,14.33-14.07,14.33-3.92,0-5.08-1.11-5.04-5.04.2-17.21.11-34.42.07-51.64-.02-9.32-3.29-17.37-10.79-22.99-3.97-2.98-7.43-2.95-16.86-3.25l-171.96-3.45h-3.72c-24.88,0-49.76,0-74.65,0-25.82,0-51.64-.12-77.45.07-15.13.11-27.8,13.04-27.56,27.55.1,6.37,3.16,10.18,8.47,10.58,5.22.39,9.22-3,10.47-8.86,1.8-8.5,3.83-10.2,12.44-10.2,57.62,0,115.24.04,172.86-.02,3.31,0,146.15,1.94,146.15,1.94,0,0,13.65-1.07,13.65,11.96,0,25.81-.22,51.63-.22,77.45s-.07,50.51.08,75.77c.02,3.87-1.04,5.29-5.02,5.09-5.97-.3-12-.45-17.95.04-5.21.43-6.1-1.61-6.08-6.35.19-35.17.12-70.35.1-105.52,0-15.04-7.24-22.16-22.45-22.17-23.57,0-47.14-.01-70.72,0-14.29,0-21.65,7.41-21.66,21.82-.02,35.55-.06,71.09.07,106.64.01,3.91-.65,5.56-5.13,5.55-63.61-.13-127.21-.1-190.82.06-4.32.01-5.29-1.37-5.27-5.44.04-6.78.07-8.65.09-8.23.01-2.08,0-4.16-.7-6.19-1.55-4.42-4.74-6.79-9.3-6.68-4.58.11-7.8,2.63-8.83,7.19-.57,2.52-.63,5.19-.63,7.79-.04,41.91-.01,14.68-.06,56.59,0,2.31.91,5-1.56,6.74-3.81,2.68-5.62,6.8-7.82,10.64v28.07c4.12,11.17,12.14,15.28,23.94,14.99,22.05-.55,44.13-.05,66.2-.25,4.54-.04,6.57.9,7.96,5.85,5.73,20.42,19.23,33.66,39.46,40.08,2.06.65,4.5.34,6.14,2.2h19.08c.96-1.89,2.96-1.29,4.45-1.71,21.53-6.14,35.5-19.88,41.49-41.44,1.03-3.69,2.37-5,6.35-4.99,13.66.03,27.32.04,40.98.06v-19.17c-13.12.01-26.25.03-39.37.05-4.79.01-7.56-.73-8.39-6.2-.65-4.29-2.89-8.33-4.6-12.98h5.97c15.65,0,31.3,0,46.95,0,1.22-7.31,4.44-13.81,9.04-19.1-3.79.02-7.58.05-11.37.09-4.46.05-5.22-1.62-5.17-5.56.19-15.71.08-31.42.08-47.13s.11-31.42-.08-47.13c-.05-4.12.71-5.92,5.46-5.87,21.88.26,43.76.21,65.64.03,4.07-.03,5.49.96,5.47,5.28-.16,28.41-.16,56.82-.05,85.23h18.98c0-13.33.07-13.33,13.27-13.33h1.68c13.99,0,14.28,0,14.29,13.33h19.06c-.01-2.56-.08-5.13-.22-7.68-.25-4.37,1.08-5.79,5.61-5.75,23.75.22,47.51.1,71.26.1v.15c23.57,0,47.13.08,70.7-.08,4.04-.03,5.75.91,5.51,5.28-.34,6.34-.18,12.72-.05,19.07.06,2.83-.88,4.03-3.86,4-9.54-.09-19.08-.01-28.62.09-.4,0-.79-.03-1.17-.08,5.49,6.95,8.85,15.73,9.27,25.15.03.77.03,1.55,0,2.34.02,19.45.55,38.89.89,58.33,5.88-6.86,10.14-15.4,12.76-25.63.59-2.31,1.83-2.85,3.98-2.82,5.61.1,11.23.13,16.84-.01,10.84-.28,18.66-8.08,18.91-18.87.14-6.17,0-12.35.04-18.52ZM261.67,278.33c-1.45,2.56-2.76,5.44-3.16,8.31-.81,5.81-3.67,7.29-9.39,7.14-16.97-.45-33.95-.21-50.93-.23-5.02.06-10.05-.04-15.06.23-3.29.18-3.96-1.19-4.04-4.22-.39-15.01-.48-15.01,14.47-14.95,1.49,0,2.97.08,4.46.13,20.52-.07,41.04-.09,61.56-.23,3.52-.02,3.71.97,2.09,3.83ZM313.14,341.75c-21.88-.3-38.78-18.32-37.64-38.31,0-21.73,16.15-37.6,37.71-38.14,18.46-.46,38.37,15.03,38.35,38.49-.02,20.92-17.57,38.25-38.42,37.96ZM390.28,232.58c-.36,6.33-.19,12.71-.05,19.06.06,2.91-1.02,3.94-3.92,3.92-12.9-.1-25.79-.07-38.69-.01-2.18,0-3.94-.84-5.77-1.84-17.8-9.71-35.96-10.35-54.14-1.38-4.53,2.24-8.89,3.3-13.87,3.25-21.86-.21-43.73-.2-65.59-.27-4.85.05-9.71-.07-14.54.19-3.49.19-5.03-.73-4.86-4.58.3-6.52.24-13.06.02-19.58-.12-3.47,1.13-4.62,4.51-4.43,5.02.27,10.06.2,15.09.27,34.58-.05,69.15-.12,103.73-.15,24.11-.02,48.22.09,72.33-.09,4.34-.03,6,1.1,5.74,5.63ZM485.68,126.54c.07,3.6-1.41,4.38-4.64,4.34-11.2-.14-22.4-.05-33.6-.05-10.83,0-21.66-.24-32.48.11-4.81.16-6-1.5-5.84-6.04.33-9.14.23-18.29.03-27.44-.08-3.53.82-4.94,4.64-4.91,22.4.15,44.8.12,67.2.03,3.17-.01,4.76.62,4.69,4.28-.21,9.89-.2,19.79,0,29.68ZM591.25,83.05c.34-5.69,4.62-9.65,9.82-9.4,5.04.24,8.77,4.15,9.03,9.62.12,2.61.02,5.23.02,7.85q.01,11.21-10.98,11.21-7.96,0-7.96-8.06c0-3.74-.16-7.49.07-11.21ZM552.9,125.85c-.03-3.07.8-4.26,4.06-4.22,15.86.19,31.72.16,47.58.21,14.52-1.08,19.74,2.14,25.44,15.51,3.87,9.1,7.75,18.19,11.81,27.21,1.53,3.41.95,4.81-2.95,4.64-4.66-.2-9.33-.15-14-.2-22.39.02-44.79-.03-67.18.13-3.59.03-4.84-.9-4.78-4.66.21-12.87.16-25.75.03-38.63ZM682.13,207.21c-41.71.07-83.43.1-125.14.25-3.19.01-4.07-1.04-4.16-4.18-.47-14.92-.56-14.91,14.14-14.91,31.62,0,63.23,0,94.85,0,2.62,0,5.25-.17,7.68,1.11,11.38-.77,25,7.02,29.91,17.73h-17.27ZM701.42,293.73c-4.28.05-6.28-1.16-7.24-5.47-.99-4.47-3.01-8.71-4.82-13.71,7.9,0,15.16.09,22.42-.04,2.85-.05,3.8.94,3.97,3.85.86,15.35.94,15.19-14.33,15.37Z"/>
    <path class="cls-2" d="M285.01,188.37c-2.99,0-5.98.04-8.97,0-12.51-.21-20.14-7.83-20.41-20.35q-.17-7.96-8.48-8.13c-12.01-.23-19.83-8.11-19.96-20.2-.07-5.98-.09-11.97,0-17.95.18-11.38,7.62-18.96,18.89-19.35.37-.01.75,0,1.12-.01q8.29-.14,8.42-8.25c.21-12.61,8.21-20.56,20.81-20.63,5.42-.03,10.84-.03,16.26,0,12.39.08,20.28,7.7,20.81,20.09.07,1.68.1,3.37,0,5.05-.15,2.5.7,3.56,3.44,3.81,22.03,2,25.05,5.42,25.05,27.79,0,3.37.05,6.73-.02,10.1-.24,11.08-7.91,18.97-18.99,19.55-1.49.08-3.01.19-4.48,0-3.9-.52-5.34.98-5.07,4.96.2,2.94-.13,6-.74,8.89-1.72,8.14-8.72,14.06-17.05,14.54-3.54.2-7.1.03-10.65.03,0,.03,0,.06,0,.09ZM284.43,92.63q-9.77,0-9.77,9.77c0,1.87,0,3.74,0,5.61-.01,11.23-2.52,13.7-13.92,13.7-14.94.01-14.82,0-14.41,14.77.1,3.54,1.35,4.52,4.64,4.38,4.85-.2,9.72-.19,14.58,0,5.67.22,8.93,3.58,9.07,9.17.11,4.48.33,9-.04,13.45-.37,4.52,1.3,5.71,5.69,5.66,13.48-.14,13.48.04,13.49-13.48,0-12.01,2.82-14.85,14.68-14.85,15.39,0,15.31,0,14.44-15.25-.17-2.91-1.11-3.97-3.98-3.88-4.67.14-9.35.16-14.02,0-6.03-.2-9.17-2.91-10.65-8.78-.93-3.69-.38-7.44-.46-11.16-.22-10.53,1.33-8.94-9.35-9.1Z"/>
    <path class="cls-2" d="M198.64,79.68c.07,5.07-4.58,9.57-9.81,9.5-.13,0-138.64,0-138.77-.01-4.89-.27-8.88-4.3-9.04-9.22-.16-5.05,3.93-9.46,8.96-9.8.16-.01,138.7-.02,138.86-.02,5.2-.07,9.73,4.34,9.8,9.55Z"/>
    <path class="cls-2" d="M198.64,118.67c.07,5.07-4.58,9.57-9.81,9.5-.13,0-119.08,0-119.21-.01-4.89-.27-8.88-4.3-9.04-9.22-.16-5.05,3.93-9.46,8.96-9.8.16-.01,119.13-.02,119.3-.02,5.2-.07,9.73,4.34,9.8,9.55Z"/>
    <path class="cls-2" d="M198.64,157.65c.07,5.07-4.58,9.57-9.81,9.5-.13,0-97.81,0-97.95-.01-4.89-.27-8.88-4.3-9.04-9.22-.16-5.05,3.93-9.46,8.96-9.8.16-.01,97.87-.02,98.03-.02,5.2-.07,9.73,4.34,9.8,9.55Z"/>
  </g>
  <g>
    <path class="cls-2" d="M227.22,690.5c18.95,13.68,38.29,26.82,57.47,40.17,8.87,6.17,17.78,12.27,26.62,18.47,5.89,4.13,11.74,8.31,18.67,10.59h10.65c11.29-3.84,17.53-12.91,23.41-22.41,2.29-3.69,4.95-7.16,7.3-10.81,2.71-4.2,6.45-6.13,11.43-5.71,2.09.17,4.18.28,6.28.39,18.75.97,34.57-5.36,46.56-19.85,9.35-11.31,16.42-24.26,24.79-36.3,1.37-1.97,1.94-5.66,5.11-5.03,4.65.93,34.3.89,34.3.89h13.04c34.69-.04,69.38-.08,104.07-.1,4.36,0,8.74-.25,12.92-1.39,15.21-4.14,24.46-16.27,24.55-32.48.14-25.81.06-51.63.02-77.45,0-2.52.05-146,.05-150.88,0-3.71.04-7.41-.01-11.11-.09-6.18-3.19-9.88-8.19-9.89-4.84,0-8.19,3.9-8.28,9.96-.11,7.41-.02,14.82-.04,22.23,0,1.12-.11,2.25-.17,3.37.26,1,.19,116.81.19,118.44-.04,32.08.03,64.15-.09,96.23-.03,9.02-6.4,15.28-15.47,15.83-8.37,1.06-16.74.7-25.12.17-1.91.15-3.82.44-5.73.44-18.83.03-37.66.06-56.49,0-4.81-.02-56.42.23-60.93-.17,3.3-5.17,5.97-9.98,9.55-14.21,2.79-4.52,6.03-8.82,8.27-13.59,6.79-14.48,7.41-28.84-2.33-42.47-3.34-4.67-8.49-7.34-12.84-10.88-1.35-1.1-3.05-1.84-1.41-4.12,7.5-10.44,14.1-21.51,22.05-31.64.97-1.65,1.84-3.36,2.91-4.94,13.57-19.95,27.28-39.8,40.67-59.88,3.54-5.31,6.83-10.02,14.21-8.77,1.04.18,2.19-.37,3.3-.58,7.68-1.56,14.67-4.77,21.3-8.85,1.25-.99,2.54-1.94,3.75-2.97,16.42-14,23.97-31.81,20.66-53.13-4.09-26.3-20.18-42.16-45.79-48.65-8.39-1.55-16.75-.85-25.11.28-3.12,1.21-6.29,2.3-9.35,3.65-26.19,11.57-39.68,39.65-32.57,67.46.52,2.03,1.97,4.14.28,6.44-4.19,5.69-7.64,11.91-12.29,17.28-1.63,3.3-3.68,6.32-6.1,9.1-2.72,5.27-6.59,9.73-9.73,14.43-6.31-5.8-7.81-12.71-7.75-20.92.35-45.4.15-90.81.18-136.22,0-14.64,7.75-21.57,22.28-20.06.48-.08.95-.2,1.43-.23q9.54-.51,9.88,8.8c.51,13.83,10.59,23.76,24.47,24.08,4.83.11,9.66.16,14.49.24,8.35,0,16.7,0,25.05,0,7.37-.07,14.76-.53,22.1-.13,10.99.6,19.75-2.97,26.09-12.1,1.51-3.73,3-7.44,3.18-11.56.41-9.72.46-9.72,10.21-9.3.16,0,.32.05.48.07,13.43-1.87,23.61,5.48,22.38,20.92-.41,5.13-.02,10.32-.09,15.48-.03,2.14.15,4.25,1.09,6.13,1.69,3.36,4.55,5.01,8.31,4.56,3.55-.42,6.56-2.52,6.72-5.97.51-10.92,1.84-22.02-.74-32.75-3.7-15.34-16.25-24.76-32.13-25-11.29-.17-22.58-.04-33.87-.04-37.58,0-75.16-.04-112.74.02-16.88.02-29.63,9.53-33.67,25.05-1.01,3.89-1.27,7.93-1.27,11.97.02,44.51-.03,89.03.08,133.54.01,4.06-.43,6.15-5.39,5.53-6.22-.77-12.17,1.01-17.45,4.46-2.25,1.47-3.3,1.27-4.72-1.22-9.84-17.25-28.36-22.5-45.48-12.89-2.77,1.56-3.64.85-5.03-1.65-11.57-20.76-40.22-23.07-54.83-4.22-6.8,8.78-12.87,18.14-18.96,27.44-14.3,21.83-30.56,42.4-42.65,65.64-11.68,22.43-17.92,46.41-19.84,71.64-1.28,16.91-.84,33.8-.7,50.71.05,6.22-2,12.02-4.78,17.55-5.93,11.81-3.35,25.13,7.36,32.86ZM505.98,283.65c.14-2.22.73-3.13,3.07-3.13,25.47.05,50.93.03,76.4.05,1.21,0,2.46-.26,3.02,1.55,2.53,8.15-2.14,14.86-10.57,14.9-10.32.04-20.63,0-30.95.01-9.51,0-19.02,0-28.53,0-10.42,0-13.09-2.95-12.45-13.38ZM546.27,374.54c-14.4-3.27-25.89,2.1-34.65,13.68-1.68,2.21-3.18,4.56-5.27,7.58-.31-21.28,17.16-39.39,38.1-40.67,22.61-1.38,41.38,14.86,43.86,37.93,1.91,17.74-11.96,38.57-27.91,41.15,2.12-3.21,4.05-6.1,5.94-9.02,4.83-7.48,7.04-15.65,5.2-24.42-2.91-13.9-11.36-23.09-25.26-26.24ZM234.1,666.69c5.65-12.31,8.45-24.97,7.05-38.78-1.08-10.67,0-21.53.5-32.32,1.12-24.33,6.89-47.32,17.63-69.1,7.29-14.8,17.2-27.96,26.4-41.56,11.18-16.54,22.5-32.99,33.62-49.58,5.28-7.87,21.26-9.97,26.25-.22,5.2,5.57,4.46,11.59,1.43,17.85-2.69,5.57-1.88,9.91,2.18,12.37,4.26,2.57,8.65,1.17,12.28-4.06,2.49-3.57,4.76-7.3,7.28-10.84,5.91-8.29,15.02-10.65,22.74-5.99,7.86,4.74,10.05,13.64,5.59,22.75-2.54,5.19-1.57,10.13,2.42,12.4,4.33,2.45,8.44,1.19,11.93-3.8,2.87-4.09,5.47-8.38,8.47-12.37,5.66-7.55,15.07-9.2,22.77-4.21,7.24,4.68,9.29,14.1,4.72,22.19-1.5,2.66-3.44,5.07-4.96,7.73-3.16,5.55.07,12.13,6.25,12.68,4.01.35,6.47-2.07,8.6-5.19,15.75-23.02,31.57-46,47.37-68.99,6.67-9.7,13.25-19.46,20.02-29.09,5.2-7.4,13.48-9.94,20.73-6.62,9.96,4.55,12.94,15.51,6.54,25.17-7.3,11.02-14.9,21.85-22.34,32.77-38.6,56.62-77.19,113.25-115.78,169.88-5.99,8.79-12.1,17.52-17.91,26.43-3.9,5.99-.95,12.83,5.64,13.53,4.54.49,7.02-2.66,9.24-5.92,7-10.25,13.95-20.55,20.93-30.81,10.25-15.06,20.5-30.13,30.82-45.15.84-1.23,1.11-3.55,3.84-2.19,10.04,5.01,14.78,13.06,13.71,23.88-.52,5.27-2.78,9.87-5.66,14.23-16.11,24.34-32.2,48.68-48.3,73.02-2.23,3.38-4.8,6.44-7.93,9.06-10.01,8.39-21.65,9.94-34.13,8.57-10.91-1.2-19.52,3-25.74,11.98-4.78,6.89-9.35,13.92-14.15,20.8-4.81,6.88-9.98,7.67-16.92,2.87-20.28-14.06-40.6-28.04-60.81-42.19-7.1-4.97-14.64-9.36-21.09-15.24-4.14-1.35-7.3-4.14-9.95-7.38-1.99-2.44-2.75-5.35-1.27-8.56Z"/>
    <path class="cls-2" d="M646.73,344.54c-4.45-.14-8.52,3.62-8.66,7.98-.13,4.47,3.59,8.31,8.15,8.4,4.51.08,8.01-3.18,8.2-7.65.2-4.73-3.19-8.58-7.7-8.72Z"/>
    <path class="cls-2" d="M253.49,659.19c-1.54,2.73-2.59,5.52-1.05,8.63.85,2,2.38,3.36,4.15,4.55,9.06,6.1,18.07,12.28,27.15,18.36,5.11,3.42,9.95,2.94,12.8-1.09,2.99-4.22,1.71-8.97-3.64-12.65-8.73-6.01-17.64-11.77-26.29-17.9-4.59-3.25-8.78-3.47-13.12.11Z"/>
    <path class="cls-2" d="M324.58,716.18c2.64-.06,5.25-1.41,6.65-4.49,1.53-3.35,1.35-6.74-1.37-9.33-3.01-2.87-6.51-5.22-10.38-6.83-3.23-1.35-6.02-.15-8.28,2.18-2.29,2.36-3.1,5.15-1.77,8.38,1.55,3.79,10.39,10.01,15.15,10.1Z"/>
    <path class="cls-2" d="M513.97,610.75c-3.78,1.19-7.24,2.72-7.82,7.33-.6,4.79,2.11,8.37,6.96,9.16,1.58.25,3.16.45,4.75.67,19.35-.04,38.71-.06,58.06-.15,2.23-.01,4.54-.19,6.68-.79,3.62-1.02,5.74-3.66,5.78-7.45.05-3.95-1.97-6.68-5.78-8-2.02-.7-4.11-.69-6.21-.69-20.81-.02-41.61-.05-62.42-.08Z"/>
  </g>
  <g>
    <path class="cls-1" d="M604.22,388.05c-4.09-26.3-20.17-42.16-45.78-48.64-8.39-1.55-16.76-.85-25.11.27-3.11,1.21-6.3,2.31-9.35,3.66-26.18,11.57-39.67,39.65-32.57,67.46.37,1.45,1.2,2.92,1.05,4.48.09.13.17.24.26.37l13.63-19.85c-.31-21.29,17.15-39.39,38.1-40.66,22.61-1.38,41.38,14.86,43.86,37.93,1.9,17.74-11.96,38.57-27.91,41.15l-12.99,18.84s1.61.51,7.81.51c1.05,0,2.19-.37,3.3-.57,7.68-1.56,14.66-4.76,21.3-8.85,1.25-.99,2.53-1.93,3.75-2.97,16.42-14,23.98-31.81,20.66-53.13Z"/>
    <path class="cls-2" d="M646.73,344.54c-4.45-.14-8.52,3.62-8.66,7.98-.13,4.47,3.59,8.31,8.15,8.4,4.51.08,8.01-3.18,8.2-7.65.2-4.73-3.19-8.58-7.7-8.72Z"/>
    <path class="cls-2" d="M253.49,659.19c-1.54,2.73-2.59,5.52-1.05,8.63.85,2,2.38,3.36,4.15,4.55,9.06,6.1,18.07,12.28,27.15,18.36,5.11,3.42,9.95,2.94,12.8-1.09,2.99-4.22,1.71-8.97-3.64-12.65-8.73-6.01-17.64-11.77-26.29-17.9-4.59-3.25-8.78-3.47-13.12.11Z"/>
    <path class="cls-2" d="M324.58,716.18c2.64-.06,5.25-1.41,6.65-4.49,1.53-3.35,1.35-6.74-1.37-9.33-3.01-2.87-6.51-5.22-10.38-6.83-3.23-1.35-6.02-.15-8.28,2.18-2.29,2.36-3.1,5.15-1.77,8.38,1.55,3.79,10.39,10.01,15.15,10.1Z"/>
    <path class="cls-2" d="M513.97,610.75c-3.78,1.19-7.24,2.72-7.82,7.33-.6,4.79,2.11,8.37,6.96,9.16,1.58.25,3.16.45,4.75.67,19.35-.04,38.71-.06,58.06-.15,2.23-.01,4.54-.19,6.68-.79,3.62-1.02,5.74-3.66,5.78-7.45.05-3.95-1.97-6.68-5.78-8-2.02-.7-4.11-.69-6.21-.69-20.81-.02-41.61-.05-62.42-.08Z"/>
  </g>
</svg>