<?xml version="1.0" encoding="UTF-8"?>
<svg id="Camada_1" xmlns="http://www.w3.org/2000/svg" viewBox="0 0 387.92 387.92">
  <defs>
    <style>
      .cls-1 {
        fill: #4f9300;
      }
    </style>
  </defs>
  <path class="cls-1" d="M373.77,187.54c-3.52-12.97-13.36-21.36-22.12-30.54-43.28-45.38-86.63-90.7-129.82-136.17-8.29-8.72-13-12.89-30.06-12.89-14.96,0-25.99,15.38-26.69,16.56-4.43,7.43-5.74,15.4-4.54,23.93.35,2.5.96,4.9,2.2,7.32,2,3.87,13.38,16.51,17.49,21.2,16.37,18.67,34.04,36.21,51.24,54.16,15.62,16.3,31.32,32.53,46.94,48.83,1.9,1.98,8.33,8.42,10.6,11.1,1.57,1.57,1.71,2.91,1.71,2.91,0,0-.14,1.36-1.71,2.91-2.27,2.68-8.7,9.12-10.6,11.11-15.62,16.29-31.32,32.52-46.94,48.82-17.19,17.95-34.86,35.49-51.24,54.16-4.1,4.68-15.49,17.32-17.49,21.2-1.24,2.42-1.86,4.81-2.2,7.32-1.2,8.53.12,16.5,4.54,23.93.7,1.19,11.73,16.56,26.69,16.56,17.07,0,21.77-4.17,30.06-12.89,43.19-45.46,86.53-90.79,129.82-136.17,8.75-9.17,18.6-17.56,22.12-30.54l.91-6.42-.91-6.42ZM354.09,208.34c-18.08,19.01-36.24,37.94-54.36,56.91-29.74,31.13-59.46,62.27-89.23,93.36-7.02,7.33-14.88,9.16-23.31,5.8-13.77-4.6-17.69-22.15-7.35-33.35,5.29-5.73,10.76-11.29,16.15-16.92,33.02-34.5,66.04-68.97,99.02-103.48,3.81-3.98,7.4-8.17,11.12-12.25,1.36-1.5,2.03-2.96,2.02-4.43.01-1.47-.66-2.93-2.02-4.43-3.71-4.08-7.31-8.27-11.12-12.25-32.99-34.51-66-68.98-99.02-103.48-5.39-5.63-10.86-11.19-16.15-16.92-10.34-11.2-6.42-28.76,7.35-33.35,8.43-3.37,16.3-1.53,23.31,5.8,29.77,31.09,59.5,62.23,89.23,93.36,18.12,18.96,36.28,37.9,54.36,56.91,3.96,4.18,5.95,9.27,5.96,14.38-.01,5.11-2,10.2-5.96,14.38Z"/>
  <path class="cls-1" d="M226.9,187.54c-3.52-12.97-13.36-21.36-22.12-30.54C161.5,111.62,118.15,66.3,74.96,20.83c-8.29-8.72-13-12.89-30.06-12.89-14.96,0-25.99,15.38-26.69,16.56-4.43,7.43-5.74,15.4-4.54,23.93.35,2.5.96,4.9,2.2,7.32,2,3.87,13.38,16.51,17.49,21.2,16.37,18.67,34.04,36.21,51.24,54.16,15.62,16.3,31.32,32.53,46.94,48.83,1.9,1.98,8.33,8.42,10.6,11.1,1.57,1.57,1.71,2.91,1.71,2.91,0,0-.14,1.36-1.71,2.91-2.27,2.68-8.7,9.12-10.6,11.11-15.62,16.29-31.32,32.52-46.94,48.82-17.19,17.95-34.86,35.49-51.24,54.16-4.1,4.68-15.49,17.32-17.49,21.2-1.24,2.42-1.86,4.81-2.2,7.32-1.2,8.53.12,16.5,4.54,23.93.7,1.19,11.73,16.56,26.69,16.56,17.07,0,21.77-4.17,30.06-12.89,43.19-45.46,86.53-90.79,129.82-136.17,8.75-9.17,18.6-17.56,22.12-30.54l.91-6.42-.91-6.42ZM207.22,208.34c-18.08,19.01-36.24,37.94-54.36,56.91-29.74,31.13-59.46,62.27-89.23,93.36-7.02,7.33-14.88,9.16-23.31,5.8-13.77-4.6-17.69-22.15-7.35-33.35,5.29-5.73,10.76-11.29,16.15-16.92,33.02-34.5,66.04-68.97,99.02-103.48,3.81-3.98,7.4-8.17,11.12-12.25,1.36-1.5,2.03-2.96,2.02-4.43.01-1.47-.66-2.93-2.02-4.43-3.71-4.08-7.31-8.27-11.12-12.25-32.99-34.51-66-68.98-99.02-103.48-5.39-5.63-10.86-11.19-16.15-16.92-10.34-11.2-6.42-28.76,7.35-33.35,8.43-3.37,16.3-1.53,23.31,5.8,29.77,31.09,59.5,62.23,89.23,93.36,18.12,18.96,36.28,37.9,54.36,56.91,3.96,4.18,5.95,9.27,5.96,14.38-.01,5.11-2,10.2-5.96,14.38Z"/>
</svg>