<?xml version="1.0" encoding="UTF-8"?>
<svg id="Camada_1" data-name="Camada 1" xmlns="http://www.w3.org/2000/svg" viewBox="0 0 200 237.31">
  <defs>
    <style>
      .cls-1 {
        fill: #f38222;
      }

      .cls-1, .cls-2 {
        stroke-width: 0px;
      }

      .cls-2 {
        fill: #da222a;
      }
    </style>
  </defs>
  <path class="cls-1" d="M172.21,10.08c-.63-.03-1.26-.08-1.9-.08-41.83,0-83.65,0-125.48,0-.38,0-.76.03-1.14.05-6-.11-10.23,4.1-10.24,10.26-.01,24.39,0,69.82,0,94.22,0,2.67-1.08,4.03-3.18,4.06-1.72.02-3.05-1.08-3.27-2.8-.08-.62-.04-1.27-.04-1.9,0-23.95,0-68.94,0-92.89,0-10.68,6.77-17.47,17.42-17.48,42.51,0,85.03,0,127.54,0,10.47,0,17.33,6.88,17.33,17.41,0,42.39,0,120.35.03,162.74,0,1.91-.58,3.36-1.94,4.71-12.4,12.33-24.76,24.7-37.1,37.09-1.24,1.25-2.54,1.87-4.34,1.87-20.91-.05,7.17-.03-13.74-.03-2.91,0-3.78-.69-4.32-3.4.66-2.47,1.48-3.07,4.22-3.07,19.56-.01-9.87-.04,9.69,0,1.61,0,1.99-.47,1.97-2.02-.07-6.46,0-12.91,0-19.37.01-10.72,6.78-17.57,17.5-17.65,4.94-.04,9.87-.03,14.81-.05,1.39,0,2.79.02,4.18.02q2.58,0,2.58-2.53c0-40.79,0-117.16,0-157.95,0-.44.01-.89,0-1.33-.23-6.08-4.72-10.26-10.6-9.88ZM150.16,215.66c.7.13.91-.13,1.13-.35,8.5-8.49,17-16.99,25.49-25.5.29-.29.84-.56.55-1.07-.25-.45-.8-.24-1.22-.24-5.63,0-11.26-.04-16.89.02-4.12.05-8.04,3.32-8.63,7.44-.93,6.53-.13,13.11-.43,19.69Z"/>
  <path class="cls-1" d="M117.87,65.01c-15.71,0-31.42,0-47.13,0-.7,0-1.4.05-2.09-.05-1.59-.22-2.47-1.27-2.69-2.78-.22-1.47.46-2.58,1.77-3.26.81-.42,1.71-.4,2.6-.4,31.67,0,63.35,0,95.02,0,2.91,0,4.33,1.12,4.29,3.36-.02,1.66-1.09,2.88-2.75,3.08-.63.08-1.27.04-1.9.04-15.71,0-31.42,0-47.13,0Z"/>
  <path class="cls-1" d="M106.65,77.97c11.78,0,23.56,0,35.33,0,.51,0,1.01-.02,1.52,0,2.09.13,3.51,1.42,3.56,3.23.05,1.78-1.3,3.13-3.43,3.36-.44.05-.89.03-1.33.03-23.87,0-47.74,0-71.62,0-.75,0-1.52-.06-2.26-.21-1.58-.32-2.44-1.45-2.51-2.94-.08-1.59.78-2.74,2.38-3.27.75-.25,1.5-.2,2.26-.2,12.03,0,24.06,0,36.09,0Z"/>
  <path class="cls-1" d="M95.01,104.06c-8.36,0-16.71,0-25.07,0-1.55,0-2.89-.36-3.66-1.86-.62-1.19-.47-2.33.3-3.39.88-1.22,2.21-1.37,3.56-1.38,3.54-.01,7.09,0,10.63,0,12.79,0,25.57,0,38.36,0,.82,0,1.65.03,2.45.17,1.72.31,2.66,1.4,2.71,3.15.05,1.61-1.2,2.98-2.9,3.24-.56.09-1.14.05-1.71.05-8.23,0-16.46,0-24.69,0Z"/>
  <path class="cls-1" d="M52.86,77.98c1.07,0,2.15-.06,3.22.01,2.04.14,3.24,1.36,3.27,3.21.03,1.79-1.03,3.1-2.96,3.29-2.32.23-4.67.27-6.99-.03-1.91-.25-3.05-1.64-2.98-3.32.07-1.65,1.36-2.97,3.22-3.14,1.06-.1,2.14-.02,3.22-.02,0,0,0,0,0-.01Z"/>
  <path class="cls-1" d="M52.83,104.03c-1.07,0-2.15.08-3.22-.02-1.83-.18-3.16-1.55-3.19-3.16-.04-1.71,1.1-3.07,3.01-3.29,2.32-.27,4.66-.28,6.98.01,1.99.25,2.98,1.45,2.94,3.28-.04,1.78-1.19,3-3.11,3.17-1.13.1-2.27.02-3.41.02,0,0,0,0,0,0Z"/>
  <path class="cls-1" d="M52.76,65c-1.01,0-2.02.04-3.02,0-1.89-.08-3.16-1.25-3.31-2.98-.14-1.6,1.15-3.3,2.88-3.41,2.38-.15,4.79-.16,7.18,0,1.86.12,2.92,1.55,2.86,3.36-.06,1.79-1.24,2.94-3.19,3.02-1.13.05-2.27,0-3.4.01Z"/>
  <path class="cls-1" d="M117.87,45.62c-15.71,0-31.42,0-47.13,0-.7,0-1.4.05-2.09-.05-1.59-.22-2.47-1.27-2.69-2.78-.22-1.47.46-2.58,1.77-3.26.81-.42,1.71-.4,2.6-.4,31.67,0,63.35,0,95.02,0,2.91,0,4.33,1.12,4.29,3.36-.02,1.66-1.09,2.88-2.75,3.08-.63.08-1.27.04-1.9.04-15.71,0-31.42,0-47.13,0Z"/>
  <path class="cls-1" d="M52.76,45.62c-1.01,0-2.02.04-3.02,0-1.89-.08-3.16-1.25-3.31-2.98-.14-1.6,1.15-3.3,2.88-3.41,2.38-.15,4.79-.16,7.18,0,1.86.12,2.92,1.55,2.86,3.36-.06,1.79-1.24,2.94-3.19,3.02-1.13.05-2.27,0-3.4.01Z"/>
  <path class="cls-2" d="M39.97,176.65c-6.78-6.55-13.55-13.1-20.33-19.65-1.41-1.36-2.82-2.73-4.23-4.09-5.55-5.37-6.24-12.88-1.68-18.21,4.88-5.71,12.36-6.29,18.63-1.46.1.08.22.12.33.18,1.16,1.53,2.7,2.66,4.06,3.98,8.71,8.4,17.44,16.78,26.13,25.2,1.02.98,1.68,1.18,2.77.06,2.34-2.41,4.83-4.67,7.25-6.99,7.58-7.29,15.15-14.6,22.75-21.87,5.87-5.61,14.74-4.99,19.55,1.32,4.26,5.59,3.37,12.73-2.22,18.09-9.47,9.08-18.9,18.18-28.41,27.22-1.16,1.1-1.36,1.65-.07,2.88,9.61,9.11,19.12,18.33,28.7,27.46,3.78,3.61,5.32,7.9,4.46,13.05-1.45,5.25-5.04,8.34-10.07,9.98h-5.32c-3.18-1.1-5.92-2.84-8.24-5.33-1.53-1.65-3.29-3.08-4.95-4.62-7.99-7.74-16-15.47-23.97-23.23-.68-.66-1.09-.56-1.7.05-1.88,1.88-3.8,3.72-5.71,5.56-5.95,5.76-11.9,11.51-17.85,17.27-.79.71-1.58,1.42-2.37,2.14-3.52,3.24-6.6,7.11-11.65,8.16h-4.94c-.19-.52-.72-.47-1.11-.61-9.68-3.52-12.18-14.71-4.8-21.91,7.84-7.65,15.78-15.2,23.67-22.79.45-.44.87-.91,1.3-1.37,1.56-1.44,3.1-2.91,4.69-4.32.74-.66.75-1.16,0-1.82-1.59-1.41-3.13-2.88-4.69-4.32ZM25.98,137.2c-1.94-1.46-3.85-.76-5.62.27-2.28,1.33-3.25,3.46-3.07,6.07.1,1.34.55,2.63,1.54,3.59,6.96,6.79,13.89,13.61,21.08,20.15,3.68,4.09,7.98,7.55,11.79,11.51,2.46,2.56,2.46,3.62,0,6.17-3.81,3.96-8.12,7.41-11.8,11.51-5.87,5.57-11.74,11.14-17.6,16.72-1.19,1.13-2.42,2.24-3.51,3.47-2.04,2.31-2.04,5.82-.12,8.21,1.78,2.21,4.92,2.95,7.25,1.71,1.2.02,1.97-.8,2.73-1.52,5.32-5.05,10.63-10.1,15.92-15.19,5.47-5.26,10.9-10.57,16.35-15.85.32-.31.64-.61,1-.88,1.87-1.41,3.34-1.34,5.06.28,2.4,2.25,4.78,4.51,7.15,6.79,8.51,8.21,17.01,16.44,25.52,24.65.95.92,1.95,1.81,3.34,2.02,2.76.84,5.84-.26,7.26-2.6,1.74-2.86,1.47-5.61-.88-7.92-5.96-5.85-11.94-11.67-17.92-17.5-.18-.18-.37-.35-.55-.52-4.9-4.66-9.82-9.3-14.67-14.01-1.54-1.49-1.42-3.52.12-5.03,2.99-2.91,6.03-5.77,9.03-8.67,8.09-7.82,16.2-15.64,24.26-23.49,2.08-2.02,2.22-5.25.52-7.83-1.47-2.24-4.68-3.33-7.15-2.45-.7-.12-1.17.26-1.69.66-3.55,2.78-6.53,6.17-9.81,9.23-8.09,7.56-15.98,15.33-23.95,23.03-2.54,2.46-4.02,2.48-6.61,0-3.25-3.11-6.43-6.28-9.7-9.36-7.64-7.21-15.15-14.56-22.72-21.85-.73-.7-1.43-1.47-2.58-1.39Z"/>
</svg>