<?xml version="1.0" encoding="UTF-8"?>
<svg id="Camada_1" xmlns="http://www.w3.org/2000/svg" viewBox="0 0 387.92 460.29">
  <defs>
    <style>
      .cls-1 {
        fill: #dd5900;
      }

      .cls-2 {
        fill: #da222a;
      }
    </style>
  </defs>
  <path class="cls-1" d="M333.81,19.86c-1.22-.05-2.45-.15-3.67-.15-81.01,0-162.02,0-243.02,0-.73,0-1.47.07-2.2.1-11.62-.22-19.82,7.93-19.83,19.86-.03,47.25,0,135.23-.02,182.48,0,5.18-2.08,7.8-6.15,7.86-3.33.05-5.9-2.1-6.32-5.42-.16-1.21-.07-2.45-.07-3.68,0-46.39,0-133.51,0-179.9,0-20.68,13.12-33.84,33.73-33.85,82.34,0,164.68,0,247.02,0,20.28,0,33.57,13.33,33.57,33.72.01,82.1-.01,233.09.06,315.19,0,3.71-1.12,6.51-3.76,9.13-24.01,23.89-47.96,47.84-71.85,71.84-2.41,2.42-4.92,3.62-8.41,3.61-40.49-.09,13.89-.05-26.61-.06-5.64,0-7.31-1.34-8.36-6.59,1.29-4.78,2.87-5.95,8.17-5.95,37.88-.03-19.11-.09,18.77,0,3.11,0,3.85-.92,3.82-3.91-.13-12.5,0-25.01,0-37.51.02-20.77,13.14-34.02,33.9-34.19,9.56-.08,19.12-.06,28.68-.09,2.7.01,5.4.04,8.09.04q4.99,0,4.99-4.91c0-79.01,0-226.91,0-305.91,0-.86.02-1.72,0-2.58-.44-11.77-9.14-19.88-20.53-19.14ZM291.11,418.02c1.36.26,1.76-.25,2.18-.67,16.46-16.45,32.92-32.91,49.37-49.38.55-.55,1.62-1.08,1.06-2.07-.49-.86-1.56-.47-2.36-.47-10.9-.02-21.81-.09-32.71.04-7.98.09-15.58,6.44-16.71,14.42-1.8,12.65-.25,25.39-.83,38.14Z"/>
  <path class="cls-1" d="M228.58,126.24c-30.43,0-60.85,0-91.28,0-1.35,0-2.72.09-4.04-.1-3.08-.43-4.77-2.46-5.21-5.38-.43-2.84.9-5,3.43-6.32,1.57-.81,3.31-.77,5.04-.77,61.34.01,122.69,0,184.03.01,5.64,0,8.38,2.17,8.32,6.5-.05,3.22-2.11,5.58-5.33,5.97-1.21.15-2.45.08-3.68.08-30.43,0-60.85,0-91.28,0Z"/>
  <path class="cls-1" d="M206.83,151.35c22.81,0,45.62,0,68.43,0,.98,0,1.97-.04,2.94.02,4.06.26,6.79,2.76,6.9,6.25.1,3.46-2.53,6.06-6.63,6.52-.85.09-1.71.06-2.57.06-46.23,0-92.47,0-138.7-.01-1.46,0-2.94-.12-4.37-.4-3.07-.61-4.72-2.81-4.86-5.7-.15-3.09,1.52-5.31,4.6-6.33,1.45-.48,2.91-.39,4.37-.39,23.3,0,46.6,0,69.9,0Z"/>
  <path class="cls-1" d="M184.3,201.87c-16.18,0-32.37,0-48.55,0-3,0-5.59-.71-7.1-3.6-1.2-2.31-.91-4.51.58-6.56,1.71-2.37,4.28-2.66,6.9-2.67,6.87-.02,13.73,0,20.6,0,24.76,0,49.53,0,74.29.01,1.58,0,3.2.05,4.75.34,3.33.61,5.16,2.72,5.25,6.1.09,3.11-2.33,5.77-5.61,6.28-1.08.17-2.2.1-3.3.1-15.94,0-31.88,0-47.81,0Z"/>
  <path class="cls-1" d="M102.66,151.37c2.08,0,4.17-.12,6.23.03,3.94.28,6.27,2.64,6.33,6.22.06,3.46-1.99,6-5.73,6.37-4.49.45-9.04.53-13.53-.06-3.7-.48-5.91-3.17-5.77-6.42.14-3.19,2.64-5.74,6.23-6.08,2.06-.19,4.15-.03,6.23-.03,0,0,0-.02,0-.03Z"/>
  <path class="cls-1" d="M102.61,201.82c-2.08,0-4.17.16-6.23-.04-3.55-.34-6.11-3-6.18-6.13-.08-3.31,2.12-5.95,5.82-6.38,4.49-.52,9.03-.54,13.52.03,3.85.48,5.78,2.8,5.69,6.35-.08,3.44-2.3,5.81-6.03,6.14-2.18.19-4.4.04-6.59.04,0,0,0,0,0-.01Z"/>
  <path class="cls-1" d="M102.46,126.23c-1.95,0-3.91.07-5.86-.01-3.65-.15-6.12-2.41-6.4-5.77-.26-3.1,2.22-6.4,5.58-6.61,4.62-.29,9.28-.31,13.9,0,3.61.24,5.66,3,5.54,6.52-.12,3.46-2.4,5.69-6.17,5.86-2.19.1-4.39.02-6.59.02Z"/>
  <path class="cls-1" d="M228.58,88.69c-30.43,0-60.85,0-91.28,0-1.35,0-2.72.09-4.04-.1-3.08-.43-4.77-2.46-5.21-5.38-.43-2.84.9-5,3.43-6.32,1.57-.81,3.31-.77,5.04-.77,61.34.01,122.69,0,184.03.01,5.64,0,8.38,2.17,8.32,6.5-.05,3.22-2.11,5.58-5.33,5.97-1.21.15-2.45.08-3.68.08-30.43,0-60.85,0-91.28,0Z"/>
  <path class="cls-1" d="M102.46,88.68c-1.95,0-3.91.07-5.86-.01-3.65-.15-6.12-2.41-6.4-5.77-.26-3.1,2.22-6.4,5.58-6.61,4.62-.29,9.28-.31,13.9,0,3.61.24,5.66,3,5.54,6.52-.12,3.46-2.4,5.69-6.17,5.86-2.19.1-4.39.02-6.59.02Z"/>
  <path class="cls-2" d="M77.69,342.46c-13.12-12.69-26.25-25.37-39.37-38.06-2.73-2.64-5.46-5.28-8.19-7.92-10.74-10.4-12.08-24.94-3.25-35.28,9.44-11.05,23.95-12.19,36.09-2.84.19.15.43.23.64.34,2.24,2.95,5.22,5.16,7.86,7.7,16.86,16.28,33.78,32.5,50.61,48.81,1.97,1.91,3.25,2.29,5.36.12,4.53-4.66,9.35-9.04,14.04-13.54,14.68-14.12,29.33-28.27,44.05-42.35,11.36-10.87,28.55-9.67,37.87,2.55,8.24,10.82,6.53,24.65-4.3,35.03-18.33,17.58-36.61,35.22-55.02,52.72-2.24,2.13-2.63,3.2-.13,5.57,18.62,17.64,37.02,35.49,55.58,53.19,7.33,6.98,10.3,15.3,8.64,25.28-2.81,10.16-9.75,16.16-19.5,19.33h-10.31c-6.16-2.13-11.47-5.51-15.96-10.33-2.97-3.19-6.38-5.97-9.59-8.94-15.48-14.99-30.98-29.96-46.42-44.99-1.32-1.29-2.11-1.09-3.28.09-3.64,3.64-7.35,7.2-11.05,10.77-11.52,11.15-23.05,22.3-34.58,33.44-1.53,1.38-3.07,2.75-4.58,4.15-6.81,6.28-12.78,13.77-22.57,15.81h-9.57c-.37-1.01-1.4-.91-2.14-1.18-18.76-6.81-23.6-28.49-9.31-42.43,15.19-14.81,30.56-29.43,45.84-44.14.88-.84,1.68-1.77,2.51-2.66,3.02-2.8,6.01-5.63,9.09-8.37,1.43-1.27,1.45-2.24.01-3.52-3.08-2.73-6.06-5.57-9.08-8.37ZM50.6,266.05c-3.77-2.84-7.45-1.48-10.88.52-4.41,2.58-6.3,6.71-5.94,11.76.19,2.6,1.07,5.09,2.98,6.95,13.47,13.15,26.9,26.35,40.82,39.03,7.13,7.93,15.46,14.62,22.84,22.3,4.75,4.95,4.76,7.02.01,11.95-7.38,7.68-15.73,14.36-22.85,22.29-11.36,10.79-22.73,21.58-34.09,32.38-2.31,2.2-4.7,4.33-6.8,6.71-3.95,4.48-3.96,11.28-.23,15.89,3.45,4.28,9.54,5.71,14.05,3.32,2.33.03,3.81-1.54,5.29-2.95,10.31-9.77,20.59-19.57,30.83-29.42,10.59-10.2,21.11-20.46,31.67-30.69.61-.6,1.25-1.18,1.93-1.7,3.62-2.72,6.47-2.6,9.81.53,4.64,4.35,9.26,8.74,13.84,13.16,16.48,15.9,32.94,31.83,49.42,47.74,1.85,1.78,3.77,3.51,6.47,3.92,5.34,1.63,11.32-.51,14.07-5.04,3.37-5.54,2.85-10.87-1.7-15.34-11.54-11.33-23.13-22.6-34.71-33.9-.35-.34-.71-.67-1.07-1.01-9.48-9.03-19.02-18-28.41-27.13-2.98-2.89-2.76-6.82.23-9.73,5.79-5.64,11.67-11.18,17.48-16.79,15.68-15.15,31.37-30.28,46.98-45.5,4.02-3.92,4.3-10.17,1.01-15.16-2.85-4.33-9.06-6.46-13.84-4.74-1.36-.24-2.27.5-3.27,1.28-6.88,5.38-12.64,11.94-18.99,17.88-15.67,14.64-30.96,29.7-46.38,44.61-4.92,4.76-7.79,4.8-12.81,0-6.29-6.02-12.45-12.16-18.78-18.13-14.8-13.96-29.34-28.19-43.99-42.31-1.41-1.36-2.76-2.85-4.99-2.69Z"/>
</svg>