<?xml version="1.0" encoding="UTF-8"?>
<svg id="Camada_1" xmlns="http://www.w3.org/2000/svg" viewBox="0 0 387.92 460.29">
  <defs>
    <style>
      .cls-1 {
        fill: #4f9300;
      }

      .cls-2 {
        fill: #383838;
      }
    </style>
  </defs>
  <path class="cls-1" d="M123.63,433.23c-1.38,1.83-2.91,3.58-4.12,5.52-4.27,6.86-10.37,11.22-18.03,13.53h-9.54c-8.14-2.45-13.84-8.24-19.59-14.08-14.33-14.53-28.94-28.8-43.22-43.38-13.18-13.45-8.1-35.16,9.51-41.09,9.21-3.1,17.54-.91,25.15,4.78,9.21,9.26,18.49,18.45,27.58,27.82,2.03,2.09,2.79,1.88,4.43-.42,22.03-30.74,44.17-61.4,66.28-92.08,3.4-4.72,4.96-5.23,10.51-3.33,3.09,5.1,2.95,6.05-.67,11.08-23.65,32.85-47.29,65.71-70.89,98.59-4.02,5.59-7.6,5.97-12.56,1.16-2.97-2.88-5.98-5.73-8.97-8.59-8.41-8.49-16.8-16.99-25.24-25.46-1.05-1.05-2.4-1.67-3.95-1.65-2.57-1.37-5.21-.99-7.75-.09-9.1,3.24-11.12,13.88-3.96,21.08,16.18,16.25,32.42,32.45,48.66,48.65,1.11,1.11,2.33,2.28,3.73,2.88,3.17,1.35,6.47,3.14,9.77.19,3.13.12,4.88-2,6.46-4.17,4.59-6.29,9.06-12.67,13.61-19,16.36-22.72,32.72-45.44,49.09-68.15,11.82-16.39,23.68-32.75,35.5-49.14,4.84-6.71,9.73-13.4,14.42-20.22,3.17-4.6,2.74-11.21-.68-15.37-3.1-3.78-8.76-5.11-13.51-3.17-2.57.36-4.41,1.85-5.87,3.87-2.55,3.52-5.04,7.09-7.6,10.61-2.75,3.79-5.94,4.37-10.01,1.86-2.78-2.99-2.69-6-.26-9.21,2.72-3.6,5.1-7.47,7.95-10.96,6.17-7.57,14.21-11.24,23.94-9.42,18.86,3.53,27.12,23.9,15.96,39.55-21.75,30.51-43.75,60.85-65.62,91.27-13.53,18.82-27.01,37.68-40.52,56.52Z"/>
  <path class="cls-2" d="M333.26,20.66c-1.22-.05-2.44-.15-3.66-.15-80.7,0-161.39,0-242.09,0-.73,0-1.46.07-2.19.1-11.58-.22-19.74,7.9-19.75,19.79-.03,47.06,0,162.76-.02,209.82,0,5.16-2.08,7.77-6.13,7.83-3.32.05-5.88-2.09-6.3-5.4-.15-1.2-.07-2.44-.07-3.66,0-46.21,0-161.05,0-207.26,0-20.6,13.07-33.71,33.6-33.71,82.02,0,164.04,0,246.07,0,20.2,0,33.44,13.28,33.44,33.59.01,81.78-.01,232.19.06,313.97,0,3.69-1.11,6.48-3.74,9.1-23.92,23.79-47.77,47.66-71.57,71.57-2.4,2.41-4.9,3.61-8.38,3.6-40.34-.09-80.68-.05-121.02-.06-5.62,0-7.29-1.34-8.33-6.56,1.28-4.76,2.86-5.92,8.14-5.93,37.74-.03,75.47-.09,113.21,0,3.1,0,3.84-.91,3.81-3.89-.13-12.45,0-24.91,0-37.37.02-20.69,13.09-33.89,33.77-34.05,9.52-.07,19.05-.06,28.57-.09,2.69.01,5.38.04,8.06.04q4.97,0,4.97-4.89c0-78.7,0-226.03,0-304.73,0-.86.02-1.71,0-2.57-.44-11.72-9.11-19.8-20.46-19.07ZM290.72,417.29c1.36.26,1.76-.25,2.17-.67,16.4-16.39,32.8-32.78,49.18-49.19.55-.55,1.62-1.08,1.06-2.06-.49-.86-1.55-.47-2.35-.47-10.86-.02-21.72-.09-32.58.04-7.95.09-15.52,6.41-16.65,14.36-1.79,12.6-.25,25.29-.82,37.99Z"/>
  <path class="cls-2" d="M65.55,314.91c0,3.9.06,7.8-.02,11.7-.08,3.89-2.78,6.74-6.22,6.74-3.44,0-6.2-2.84-6.23-6.74-.08-8.04-.08-16.09,0-24.13.04-4.1,2.52-6.6,6.23-6.6,3.72,0,6.14,2.49,6.22,6.6.08,4.14.02,8.29.02,12.43Z"/>
  <path class="cls-2" d="M59.22,283.3c-3.35-.06-6.24-3.12-6.14-6.5.09-3.28,2.89-6.05,6.15-6.1,3.42-.05,6.29,2.81,6.3,6.29.01,3.39-2.96,6.37-6.3,6.31Z"/>
  <path class="cls-2" d="M228.43,126.64c-30.31,0-60.62,0-90.93,0-1.34,0-2.71.09-4.03-.1-3.07-.43-4.76-2.45-5.19-5.36-.42-2.83.9-4.98,3.42-6.29,1.56-.81,3.3-.76,5.02-.76,61.11.01,122.22,0,183.32.01,5.62,0,8.35,2.16,8.28,6.48-.05,3.2-2.1,5.56-5.31,5.94-1.21.15-2.44.08-3.66.08-30.31,0-60.62,0-90.93,0Z"/>
  <path class="cls-2" d="M206.77,151.64c22.72,0,45.45,0,68.17,0,.98,0,1.96-.04,2.93.02,4.04.26,6.77,2.75,6.87,6.23.1,3.44-2.52,6.04-6.61,6.49-.85.09-1.71.06-2.56.06-46.06,0-92.11,0-138.17-.01-1.45,0-2.93-.12-4.36-.4-3.05-.61-4.7-2.8-4.85-5.68-.15-3.08,1.51-5.29,4.58-6.31,1.44-.48,2.89-.39,4.35-.39,23.21,0,46.42,0,69.63,0Z"/>
  <path class="cls-2" d="M184.32,201.97c-16.12,0-32.24,0-48.36,0-2.99,0-5.57-.7-7.07-3.59-1.2-2.3-.91-4.49.58-6.54,1.7-2.36,4.26-2.65,6.87-2.66,6.84-.02,13.68,0,20.52,0,24.67,0,49.34,0,74.01.01,1.58,0,3.18.05,4.73.34,3.32.61,5.14,2.71,5.23,6.08.09,3.1-2.32,5.74-5.59,6.26-1.08.17-2.19.1-3.29.1-15.88,0-31.75,0-47.63,0Z"/>
  <path class="cls-2" d="M102.99,151.66c2.07,0,4.15-.12,6.21.03,3.93.28,6.25,2.63,6.31,6.2.06,3.45-1.98,5.98-5.71,6.35-4.48.45-9.01.52-13.48-.06-3.69-.48-5.89-3.16-5.74-6.4.14-3.18,2.63-5.72,6.21-6.06,2.05-.19,4.14-.03,6.21-.03,0,0,0-.02,0-.03Z"/>
  <path class="cls-2" d="M102.94,201.93c-2.07,0-4.15.16-6.2-.04-3.54-.34-6.09-2.98-6.16-6.1-.08-3.3,2.11-5.93,5.8-6.36,4.47-.52,9-.54,13.47.03,3.83.48,5.76,2.79,5.67,6.33-.08,3.43-2.29,5.79-6,6.12-2.17.19-4.38.04-6.57.04,0,0,0,0,0-.01Z"/>
  <path class="cls-2" d="M102.8,126.62c-1.95,0-3.89.07-5.84-.01-3.64-.15-6.09-2.4-6.38-5.75-.26-3.09,2.21-6.37,5.56-6.58,4.6-.29,9.25-.31,13.84,0,3.6.24,5.64,2.99,5.52,6.49-.12,3.45-2.39,5.67-6.15,5.84-2.18.1-4.38.02-6.56.02Z"/>
  <path class="cls-2" d="M228.43,89.23c-30.31,0-60.62,0-90.93,0-1.34,0-2.71.09-4.03-.1-3.07-.43-4.76-2.45-5.19-5.36-.42-2.83.9-4.98,3.42-6.29,1.56-.81,3.3-.76,5.02-.76,61.11.01,122.22,0,183.32.01,5.62,0,8.35,2.16,8.28,6.48-.05,3.2-2.1,5.56-5.31,5.94-1.21.15-2.44.08-3.66.08-30.31,0-60.62,0-90.93,0Z"/>
  <path class="cls-2" d="M102.8,89.22c-1.95,0-3.89.07-5.84-.01-3.64-.15-6.09-2.4-6.38-5.75-.26-3.09,2.21-6.37,5.56-6.58,4.6-.29,9.25-.31,13.84,0,3.6.24,5.64,2.99,5.52,6.49-.12,3.45-2.39,5.67-6.15,5.84-2.18.1-4.38.02-6.56.02Z"/>
</svg>