<?xml version="1.0" encoding="UTF-8"?>
<svg id="Camada_1" xmlns="http://www.w3.org/2000/svg" viewBox="0 0 200 201.76">
  <defs>
    <style>
      .cls-1 {
        fill: #dd5900;
      }

      .cls-2 {
        fill: #4f9300;
      }
    </style>
  </defs>
  <path class="cls-1" d="M2.64,82.62c0-5.2,0-10.39,0-15.59.6-.53,1.17-1.12,1.82-1.59,8.67-6.16,17.35-12.32,26.06-18.43.99-.7,1.4-1.41,1.38-2.64-.06-5.7-.04-11.4-.03-17.1,0-4.94,2.54-7.48,7.48-7.49,9.25-.01,18.5-.02,27.75.01,1.19,0,2.2-.24,3.18-.95,4.77-3.45,9.63-6.79,14.37-10.27,9.02-6.62,21.28-6.74,30.36-.22,4.84,3.47,9.7,6.9,14.53,10.38,1.02.74,2.07,1.07,3.34,1.07,9.38-.04,18.75-.04,28.13-.01,4.43.01,7.06,2.68,7.08,7.13.02,5.57.06,11.15-.03,16.72-.03,1.67.43,2.73,1.87,3.73,8.58,5.95,17.08,12.04,25.62,18.05,1.18.83,1.8,1.82,1.79,3.32-.02,39.84-.01,79.69-.03,119.53,0,4.48-2.42,7.82-6.63,9.44-.34.13-.78.07-.96.5H11.01c-4.55-1.03-7.35-3.8-8.37-8.37,0-27.88,0-55.77,0-83.65.28-.33.55-.67.84-.99.97-1.03,2.19-1.29,3.48-.85,1.33.44,2.03,1.46,2.13,2.86.04.63.02,1.27.02,1.9,0,25.46,0,50.93,0,76.39,0,.71-.16,1.47.27,2.37,2.15-1.84,4.16-3.56,6.17-5.27.16-.1.34-.18.48-.3,19.92-16.54,39.83-33.1,59.78-49.61,1.21-1,.64-1.41-.18-2.09-10.19-8.45-20.35-16.92-30.54-25.37-9.84-8.16-19.7-16.31-29.55-24.46-2.03-1.73-4.07-3.45-6.45-5.48,0,2.36.07,4.23-.02,6.09-.13,2.69-2.88,4.13-5.01,2.65-.55-.38-.97-.94-1.44-1.42ZM85.34,19.38c.53.42,1.17.43,1.8.43,7.31,0,14.61-.02,21.92-.04,2.85.02,5.7.05,8.54.06.42,0,.98.12,1.11-.45.09-.41-.32-.65-.63-.87-2.96-2.06-5.78-4.36-8.91-6.11-3.62-2.02-7.6-3.06-11.83-2.04-2.93.13-5.53,1.25-7.9,2.84-2.83,1.89-5.56,3.93-8.33,5.91-.21.15-.39.32-.2.68,1.46-.14,2.99.27,4.44-.42ZM184.07,72.36c1.31-.57,2.09-1.82,3.26-2.56,1.25-.79,1.15-1.42,0-2.22-5.98-4.21-11.95-8.43-17.91-12.68-1.15-.82-1.38-.33-1.36.79.04,1.89.04,3.78.06,5.68v24.49c5.64-4.78,10.79-9.14,15.94-13.5ZM31.6,57.37c.45-1,.33-1.99.1-3.33-5.45,3.95-10.64,7.71-15.82,11.46-.3-.02-.55.07-.71.35q-4.16,2.87-.09,5.97c.15.11.33.18.49.27,5.29,4.46,10.59,8.92,16.15,13.61.1-.79.16-1.09.16-1.39,0-8.43,0-16.86-.01-25.28,0-.56-.18-1.11-.28-1.67ZM184,182.27c2.17,1.83,4.35,3.66,6.75,5.68v-112.53c-2.42,2.05-4.57,3.86-6.72,5.68-5.75,4.77-11.5,9.55-17.25,14.32-14.09,11.69-28.17,23.39-42.29,35.04-1.13.94-1.33,1.4-.05,2.46,9.35,7.68,18.63,15.45,27.94,23.17,10.53,8.73,21.08,17.45,31.61,26.17ZM179.83,191.7h4.7c-.25-.85-.79-1.12-1.21-1.47-21.1-17.53-42.2-35.06-63.3-52.59q-2.08-1.73-4.17,0c-.15.12-.27.26-.41.4-2.5,1.6-5.07,3.04-7.95,3.9-7.45,2.2-14.46,1.02-21.16-2.67-.79-.59-1.67-1.1-2.34-1.8-1.44-1.52-2.69-1.48-3.9.21-.36.26-.73.5-1.07.78-21,17.44-42,34.87-62.99,52.32-.26.22-.71.36-.48.98.34,0,.7,0,1.07,0,53.52,0,107.05,0,160.57,0,.89,0,1.77-.03,2.66-.04ZM155.18,96.41c1.67-1.34,3.31-2.74,5.03-4.01,1.08-.79,1.44-1.7,1.44-3.04-.05-13.15-.03-26.3-.03-39.45,0-7.27-.03-14.54.03-21.81.01-1.38-.33-1.96-1.79-1.84-1.57.13-3.16.08-4.73.1-8.49-.01-16.97-.03-25.46-.04-29.83-.02-59.67-.02-89.5-.08-1.56,0-1.87.52-1.86,1.95.05,20.46.05,40.92.02,61.37,0,1.21.4,1.95,1.31,2.71,15.61,12.93,31.18,25.89,46.77,38.84,8.79,7.31,18.45,7.29,27.22-.02,7.29-6.08,14.62-12.13,21.91-18.22,6.56-5.47,13.1-10.98,19.65-16.47Z"/>
  <path class="cls-1" d="M2.64,93.27c.32-.38.61-.79.95-1.14,1.22-1.23,3.2-1.27,4.46-.13,1.32,1.2,1.4,3.31.17,4.6-1.16,1.22-3.19,1.31-4.47.18-.41-.37-.75-.82-1.12-1.23,0-.76,0-1.52,0-2.28Z"/>
  <path class="cls-2" d="M106.57,91.45c-3.29,2.95-7.08,4.79-11.5,5.4-8.87,1.2-16.4-4.77-17.13-13.71-.85-10.35,5.4-21.56,14.63-26.23,5.77-2.92,12.93-1.74,17.57,2.86.43.43.68,1.08,1.49,1.24.17-.8.33-1.58.51-2.36.48-2.07,2.01-3.21,3.8-2.84,1.9.39,2.93,2.06,2.53,4.2-1.67,8.89-3.38,17.78-5.59,26.56-.64,2.53.12,3.56,2.69,3.74,3.39.24,6.27-.87,8.45-3.47,6.18-7.37,7.35-15.77,4.23-24.61-3.13-8.84-9.52-14.44-18.85-16.08-17.84-3.13-36.36,8.51-41.42,25.81-4.08,13.97,3.73,28.46,17.7,32.6,10.06,2.98,20.25,3.9,30.56,1.3,6.56-1.66,12.19-4.87,16.6-10.09,1.33-1.58,2.92-1.97,4.36-1.15,1.38.78,1.85,2.02,1.6,3.55-.13.79-.65,1.36-1.14,1.94-6.02,7.05-13.78,10.99-22.77,12.68-11.55,2.17-22.93,1.14-33.84-2.99-18.23-6.91-26-28.19-16.67-45.95,7.01-13.35,17.91-22.09,33.15-24.33,16.09-2.35,29.48,4.11,35.69,17.76,5.39,11.86,4.26,23.35-4.17,33.65-3.92,4.79-9.18,6.56-15.29,5.74-2.89-.39-4.73-1.77-7.16-5.21ZM84.37,79.24c-.07,7.6,3.26,11.42,8.72,11.24,3.26-.11,6.2-1.21,8.62-3.47,1.63-1.51,3.02-3.23,4.44-4.94,2.52-3.02,2.52-6.8,3.32-10.34.07-.33-.14-.73-.25-1.09-.7-2.13-1.79-4.05-3.23-5.76-2.65-3.14-7.09-4.1-10.67-2.07-6.89,3.9-10.17,10.11-10.96,16.43Z"/>
</svg>