<?xml version="1.0" encoding="UTF-8"?>
<svg id="Camada_1" data-name="Camada 1" xmlns="http://www.w3.org/2000/svg" viewBox="0 0 229.61 167.17">
  <defs>
    <style>
      .cls-1 {
        fill: #fff;
      }

      .cls-1, .cls-2 {
        stroke-width: 0px;
      }

      .cls-2 {
        fill: #6ad800;
      }
    </style>
  </defs>
  <path class="cls-2" d="M162.81,160.18c-.18-11.26-.42-22.52-.58-33.78-.02-1.36-.38-2.35-1.41-3.3-3.06-2.84-6.02-5.79-9.01-8.7-5.17-5.02-10.35-10.05-15.52-15.08-1.81-1.76-2.34-3.91-1.47-5.85.85-1.91,2.7-2.95,5.13-2.88.44.01.88.05,1.33.07,18.77.79,37.54,1.57,56.3,2.36,7.65.32,15.29.74,22.94.97,4.1.12,5.77,3.62,5.12,6.2-.34,1.36-1.36,2.26-2.22,3.26-11.85,13.83-23.72,27.65-35.58,41.47-5.23,6.1-10.45,12.2-15.68,18.3-2.05,2.39-4.09,3.08-6.62,2.05-1.9-.91-2.69-2.75-2.73-5.1ZM211.99,106.46c-.09.06-.19.11-.28.17-.53.18-1.08.32-1.6.55-13.25,5.74-26.5,11.51-39.76,17.22-1.2.52-1.72,1.08-1.68,2.49.24,9.23.37,18.47.55,27.7,0,.48-.15,1.02.37,1.6,3.01-3.49,6.01-6.95,8.99-10.43,10.75-12.53,21.49-25.06,32.22-37.6.37-.43.65-.92.98-1.38.21-.02.34-.08.22-.32ZM209.45,100.3c-.02-.05-.05-.15-.06-.15-.15.02-.31.06-.46.09-2.18-.49-4.4-.39-6.6-.48-19.02-.84-38.04-1.63-57.06-2.44-.38-.02-.75,0-1.27,0,.6,1.38,1.8,2.13,2.75,3.06,5.87,5.76,11.81,11.45,17.65,17.24,1.2,1.18,2.14,1.48,3.78.76,12.99-5.73,26.02-11.34,39.04-17,.62-.27,1.37-.36,1.74-1.06.16,0,.33,0,.49,0Z"/>
  <g>
    <path class="cls-1" d="M94.61,114.95h.11s-.08,0-.11,0h0Z"/>
    <path class="cls-1" d="M94.84,56.81h-.11.11Z"/>
    <path class="cls-1" d="M94.84,114.95h0s-.08,0-.11,0h.11Z"/>
    <path class="cls-1" d="M94.84,117.51h0s-.11,0-.11,0c.04,0,.08,0,.11,0Z"/>
    <path class="cls-1" d="M94.72,114.95s-.08,0-.11,0h0s.11,0,.11,0Z"/>
    <path class="cls-1" d="M94.84,56.81h-.11.11Z"/>
    <path class="cls-1" d="M131.66,62.45c-8.48-38.45-65.39-38.46-73.87,0-10.16,61.79,84.04,61.75,73.87,0ZM127.56,75.86c-5.55,37.82-60.11,37.81-65.66,0-4.34-49.99,70.02-49.97,65.66,0Z"/>
    <path class="cls-1" d="M112.09,51.6c-17.58-15.62-45.94-1.22-43.48,22.26,1.01,14.44,15.97,25.76,30.17,23.17,21.28-2.55,29.98-31.74,13.3-45.43ZM110.01,85.95c-8.54,8.79-22.03,8.79-30.57,0-13.23-12.56-2.66-36.78,15.37-35.99h0c17.96-.66,28.37,23.48,15.2,35.99Z"/>
    <path class="cls-1" d="M94.72,117.51h-.11.11Z"/>
    <path class="cls-1" d="M10.35,76.17c0,1.88-1.35,3.22-3.25,3.19-1.78-.02-3.17-1.35-3.21-3.09-.05-1.74,1.48-3.34,3.2-3.37,1.79-.03,3.25,1.44,3.26,3.26Z"/>
    <path class="cls-1" d="M157.95,60.01c-1.77-.08-3.58.05-5.3-.28-5.92-1.14-9.7-6.28-9.22-12.3.45-5.56,5.13-9.93,11.18-10.19,2.77-.12,5.57-.27,8.34.19,5.82.97,10.12,6.2,9.66,11.8-.5,6.12-5.21,10.61-11.24,10.71-1.14.02-2.28,0-3.42,0,0,.03,0,.05,0,.08ZM158.01,53.44s0,0,0,0c1.14,0,2.28.05,3.42,0,2.57-.13,4.49-2.04,4.68-4.61.17-2.25-1.52-4.5-3.89-4.9-2.82-.48-5.68-.47-8.5,0-2.39.41-3.95,2.56-3.83,4.93.12,2.41,2.05,4.4,4.52,4.56,1.2.08,2.4.01,3.61.01Z"/>
    <path class="cls-1" d="M94.83,14.6c2.08,0,4.17-.03,6.25.01,1.86.04,3.23,1.26,3.36,2.92.13,1.71-1.16,3.42-3.03,3.47-4.48.12-8.97.12-13.45-.01-1.8-.05-3.06-1.67-3.01-3.32.05-1.68,1.53-3.03,3.44-3.07,2.15-.04,4.3,0,6.44,0Z"/>
    <g>
      <path class="cls-1" d="M24.64,24.24c1.69-.09,3.38-.05,5.08-.07,2.77,0,5.55.03,8.32,0,.52,0,1.14.21,1.48-.49,1.18-2.47-.82-5.83-3.62-5.94-1.82-.07-3.65.02-5.48.04-.75-.01-1.5-.03-2.26-.03-3.94,0-4.99,1.13-4.89,5.07.02,1.02.27,1.48,1.37,1.42Z"/>
      <path class="cls-1" d="M117.18,127.25s0,0,0,.01h-6.49c2.16,0,4.33-.03,6.5-.01Z"/>
      <path class="cls-1" d="M72.31,127.25s0,0,0,.01h6.49c-2.16,0-4.33-.03-6.5-.01Z"/>
      <path class="cls-1" d="M152.8,130.42c-.02-1.76-1.44-3.17-3.2-3.17-10.81,0-21.62.01-32.42.01h-44.86c-14.4,0-28.8,0-43.2-.02-1.58,0-3.15-.19-4.73-.29-7.24-.67-13.79-7.58-14.03-14.71,0-.12,0-.04-.01.18,0-4.26,0-8.53,0-12.79,0-3.42-.01-6.84,0-10.26,0-1.4-.59-2.47-1.82-3.09-1.17-.59-2.34-.45-3.39.36-1.12.86-1.28,2.08-1.28,3.4.02,13.81,0,7.23.02,21.05,0,.39.01.77.03,1.16.03.56.07,1.12.16,1.67,2.02,12.04,11.19,19.81,23.41,19.81,22.43.01,44.85.02,67.28-.01,18.29.02,36.57.02,54.86.01,1.78,0,3.21-1.45,3.2-3.23,0-.03,0-.05,0-.08Z"/>
      <path class="cls-1" d="M7.13,66.4c2.04-.02,3.18-1.38,3.2-3.86.02-2.6.04-5.19-.02-7.79-.02-.99-.02-7.77.03-8.62.12-2.58-.33-5.19.27-7.74,1.13-4.78,4.98-7.69,9.96-7.59,7.03-.03,14.06-.19,21.09-.07,9.02.17,15.86-3.55,20.8-11,1.12-1.69,2.25-3.38,3.46-5,3.11-4.15,7.23-6.55,12.45-6.58,10.9-.08,21.8-.07,32.7,0,5.01.03,9.03,2.27,12.08,6.16,1.64,2.09,3.03,4.38,4.59,6.53,4.61,6.37,10.77,9.83,18.71,9.86,7.29.03,14.57,0,21.86.01,6.7.01,10.79,4.09,10.8,10.75,0,5.45,0,23.62,0,41.28,0,1.75,1.4,3.18,3.15,3.21.02,0,.04,0,.06,0,1.8.03,3.27-1.41,3.27-3.21,0-17.66,0-35.78,0-41.25-.02-10.32-6.97-17.25-17.31-17.26-7.22-.01-14.45,0-21.67,0-5.67,0-10.13-2.39-13.43-6.96-1.34-1.85-2.57-3.77-3.89-5.63-4.32-6.11-10.15-9.67-17.68-9.96-10.76-.41-21.54-.18-32.31-.12-7.92.05-14.31,3.32-18.97,9.81-1.47,2.05-2.86,4.18-4.33,6.24-1.9,2.64-4.41,4.51-7.47,5.63-2.45.89-2.47.89-2.47-1.65,0-4.26-1.67-7.9-5.69-9.24-5.83-1.95-12.05-1.98-17.87.01-4.18,1.43-5.87,5.23-5.65,9.62.09,1.82-.32,2.73-2.24,3.35-6.37,2.08-10.68,8.17-10.73,14.87-.07,7.48-.03,14.95-.02,22.43,0,2.43,1.22,3.81,3.27,3.79ZM28.16,17.75c.75,0,1.5.02,2.26.03,1.82-.02,3.65-.11,5.48-.04,2.8.11,4.8,3.47,3.62,5.94-.34.7-.96.49-1.48.49-2.77.02-5.54,0-8.32-.01-1.69.02-3.39-.02-5.08.07-1.1.06-1.35-.4-1.37-1.42-.09-3.94.95-5.07,4.89-5.07Z"/>
    </g>
  </g>
</svg>