<?xml version="1.0" encoding="UTF-8"?>
<svg id="Camada_1" xmlns="http://www.w3.org/2000/svg" viewBox="0 0 200 216.68">
  <defs>
    <style>
      .cls-1 {
        fill: #dd5900;
      }

      .cls-2 {
        fill: #4f9300;
      }
    </style>
  </defs>
  <path class="cls-1" d="M54.16,212.64c-1.98-.89-2.58-2.46-2.58-4.57.03-58.09.02-116.18.03-174.27,0-3.52,1.07-4.56,4.61-4.57,9.32,0,18.64-.04,27.96.03,1.6.01,2.19-.41,2.01-2.02-.35-3.14.73-5.7,3.35-7.55,1.48-.7,3.04-.98,4.69-.94,2.49.06,4.98-.08,7.46.05,1.57.08,2.02-.5,1.87-1.96-.3-2.99.51-5.71,2.2-8.18,2.71-2.81,6.03-3.83,9.89-3.74,5.88.13,11.76.1,17.64,0,3.65-.06,6.75,1.01,9.26,3.7,1.78,2.26,2.42,4.89,2.53,7.7-.45,1.87.14,2.8,2.18,2.44.33-.06.67-.05,1-.08,1.96.02,3.91.06,5.87.07,5.31.02,8.14,2.6,8.14,7.86,0,2.14.57,2.68,2.68,2.65,9.12-.12,18.24-.06,27.35-.05,3.4,0,4.59,1.21,4.59,4.65.01,9.39,0,18.78,0,28.17,0,3.59-.35,4.11-3.57,5.43-2.59-.75-3.42-2.44-3.37-5.13.16-8.07.02-16.14.09-24.22.01-1.46-.34-2.09-1.9-1.97-1.67.13-3.36.05-5.04.06-5.2-.02-10.41-.05-15.61-.06-5.19-.01-5.13,0-5.12,5.2,0,1.5.55,1.78,1.89,1.75,3.58-.08,7.16-.03,10.75-.02,3.33,0,4.5,1.17,4.5,4.49,0,38.66,0,77.32.03,115.98,0,1.54-.51,2.67-1.6,3.75-8.82,8.76-17.62,17.56-26.38,26.38-1.14,1.15-2.36,1.6-3.96,1.6-24.4-.03-48.8-.03-73.2-.03-.74,0-1.49,0-2.23-.03-1.7-.08-2.7-.99-3.18-2.61-.28-.94-.22-1.87-.22-2.81,0-47.04,0-94.08,0-141.13,0-.54-.02-1.08,0-1.62.14-2.63,1.48-3.94,4.1-3.97,2.7-.03,5.41,0,8.11,0,5.48,0,5.45,0,5.17-5.54-.05-1.05-.37-1.41-1.42-1.4-6.42.05-12.84.06-19.26.08-1.42-.03-2.84-.08-4.25-.07-3.06.02-2.72-.37-2.72,2.67,0,53.46-.01,106.92.02,160.38,0,2.12-1,5.01.45,6.18,1.48,1.2,4.27.35,6.49.28.88.02,1.75.07,2.63.07,37.44,0,74.88,0,112.32,0,.88,0,1.76-.03,2.63-.05,1.42.02,2.83.05,4.25.06,2.7,0,2.7,0,2.7-2.75,0-36.87,0-73.73,0-110.6,0-2.95.64-3.77,3.36-4.36,2.82.71,3.52,1.68,3.52,4.99,0,37.82,0,75.64,0,113.47,0,.41-.03.81,0,1.22.21,2.15-.56,3.81-2.41,4.94H54.16ZM138.9,49.85c3.11.04,6.23.07,9.34.11,1.82,0,3.64-.02,5.46.03,1,.03,1.47-.27,1.47-1.37-.02-7.22-.01-14.44.01-21.66,0-.95-.36-1.34-1.31-1.32-1.89.04-3.78.04-5.67.05-2.9-.24-5.84.45-8.7-.5-.94-1.01-1.52-2.17-1.47-3.59.02-1.46.05-2.93.05-4.39,0-4.39-1.19-5.5-5.66-5.31-1.74-.02-3.49-.16-5.22.12-4.49-.34-9-.2-13.49-.09-2.05.05-3.18,1.38-3.22,3.43-.05,2.21.05,4.43.08,6.64-1.24,3.39-1.47,3.56-5.29,3.69-.4.01-.8.1-1.2.15-1.67-.35-3.36-.14-5.03-.15-6.44-.05-6.44-.03-5.85,6.47,0,1.2-.02,2.4-.03,3.6,0,3.8.02,7.61.03,11.41-.25,2.83-.25,2.84,2.54,2.81.86-.01,1.73-.08,2.59-.12,9.22.23,18.44.15,27.65.03,4.3.12,8.6.19,12.9-.04ZM75.71,118.99c0,22.38.02,44.75-.04,67.13,0,1.75.39,2.28,2.22,2.28,21.63-.07,43.26-.06,64.89-.01,1.55,0,2.27-.2,2.25-2.03-.11-7.1-.05-14.19-.04-21.29,0-3.16,1.22-4.33,4.43-4.33,6.89,0,13.79-.08,20.68.05,2,.04,2.58-.42,2.58-2.52-.07-35.22-.05-70.44-.05-105.66,0-.41-.04-.81,0-1.22.11-1.05-.32-1.44-1.38-1.41-1.89.07-3.8.17-5.67-.02-2.12-.22-3.46.22-3.69,2.6-.05.55-.54,1.07-.89,1.56-1.86,2.6-4.61,3.07-7.53,3.07-13.05,0-26.09,0-39.14,0-6.56,0-13.11.01-19.67,0-4.8-.01-7.99-2.1-8.45-6.31-.12-1.05-.84-.87-1.49-.88-2.23-.02-4.47.11-6.69-.04-1.84-.13-2.37.43-2.36,2.32.07,22.24.04,44.48.04,66.72ZM151.9,182.92c5.12-5.12,10.18-10.19,15.27-15.28-4.61,0-9.37.02-14.13-.01-1.1,0-1.15.62-1.14,1.44.01,4.65,0,9.31,0,13.86Z"/>
  <path class="cls-2" d="M19.28,212.64c-1.17-.83-1.99-1.9-2.64-3.21-4.28-8.65-8.62-17.27-12.96-25.89-.44-.87-.63-1.74-.63-2.72.02-53.59.02-107.18.03-160.77,0-9.21,5.87-15.06,15.09-15.06,3.36,0,6.75-.3,10.05.78,5.23,1.72,9.21,6.55,9.31,12.05.17,9.18.23,18.36.2,27.54-.17,44.6-.09,89.2-.02,133.8,0,2.26-.46,4.18-1.46,6.15-4.1,8.06-8.13,16.16-12.14,24.27-.65,1.31-1.46,2.41-2.79,3.06h-2.03ZM13.55,32.8q-3.51.45-3.51,4.11c0,.2.03.41,0,.6-.33,1.82.51,2.43,2.22,2.17.45-.07.91-.13,1.37-.19,4.59-.01,9.19-.02,13.78-.03,3.77,0,3.18.36,3.23-3.2.01-.74-.05-1.49.01-2.22.1-1.19-.47-1.57-1.56-1.47-.6.06-1.21.07-1.81.1-4.58,0-9.16-.27-13.73.14ZM26.53,12.71c-4.03-1.36-8.08-1.11-12.15-.17-2.79,1.03-4.04,3.2-4.35,5.99-.14,1.26-.05,2.55-.05,3.83q0,3.52,3.61,3.29c4.59,0,9.19,0,13.78,0,.34,0,.68-.03,1.01.03,1.93.33,2.44-.58,2.29-2.36-.14-1.74.12-3.51-.08-5.23-.29-2.52-1.4-4.57-4.07-5.37ZM27.38,175.31c3.22,1.15,3.27,1.14,3.27-1.21,0-41.79,0-83.58.04-125.37,0-1.62-.47-2.24-2.06-2.02-.4.06-.81.01-1.21.01-3.31-.79-3.62-.55-3.62,2.75,0,40.89,0,81.79,0,122.68q0,2.92,2.98,3.18c.2.02.4,0,.61-.01ZM13.6,175.31c1.5-.25,3.34.36,3.34-2.42-.07-41.36-.06-82.72,0-124.08,0-1.85-.57-2.45-2.29-2.18-.33.05-.67.04-1.01.06-3.62-.6-3.64-.58-3.64,2.98,0,41.09,0,82.17.01,123.26,0,3.61-.94,3.75,3.59,2.38ZM20.4,201.48c2.98-5.96,5.77-11.54,8.55-17.13.41-.82.04-1.15-.79-1.4-5.24-1.6-10.45-1.47-15.69.03-1.22.35-.86.92-.51,1.62,2.74,5.48,5.48,10.95,8.45,16.88Z"/>
  <path class="cls-1" d="M193.36,81.29c-1.6-.45-3.02-1.14-3.3-3-.33-2.17.79-3.49,3.34-4.07,2,.22,3.32,1.31,3.42,3.31.12,2.26-1.48,3.26-3.46,3.76Z"/>
  <path class="cls-1" d="M86.18,157.31c0-3.24-.02-6.48,0-9.72.02-2.72,1.14-4.13,3.85-4.18,6.61-.13,13.23-.12,19.84,0,2.79.05,3.91,1.46,3.92,4.31.02,6.35.02,12.69,0,19.04,0,2.96-1.16,4.36-4.05,4.4-6.48.1-12.96.1-19.44,0-2.92-.04-4.11-1.42-4.12-4.33-.02-3.17,0-6.35,0-9.52ZM99.99,163.99c1.82,0,3.65-.03,5.47.01,1.03.03,1.45-.34,1.44-1.41-.04-3.58-.03-7.16,0-10.74,0-.96-.39-1.31-1.33-1.3-3.71.03-7.43.03-11.15,0-.94,0-1.34.34-1.33,1.3.03,3.58.03,7.16,0,10.74-.01,1.06.4,1.44,1.44,1.41,1.82-.05,3.65-.01,5.47-.01Z"/>
  <path class="cls-1" d="M113.81,119.35c0,3.24.03,6.49-.01,9.73-.03,2.52-1.32,3.96-3.85,3.99-6.62.08-13.25.08-19.87,0-2.61-.03-3.88-1.48-3.89-4.16-.02-6.49-.03-12.98,0-19.46.01-2.76,1.2-3.96,3.95-3.98,6.56-.03,13.11-.03,19.67,0,2.84.01,3.97,1.22,3.99,4.15.02,3.24,0,6.49,0,9.73ZM106.89,119.45c0-1.89-.02-3.78.01-5.67.02-.92-.3-1.36-1.28-1.35-3.78.03-7.56.02-11.33,0-.87,0-1.19.39-1.19,1.23.02,3.78.02,7.56,0,11.33,0,1,.48,1.25,1.38,1.25,3.71-.02,7.42-.03,11.13,0,.96,0,1.32-.39,1.3-1.33-.04-1.82-.01-3.64-.01-5.46Z"/>
  <path class="cls-1" d="M113.8,81.22c0,3.24.03,6.49,0,9.73-.03,2.64-1.37,4.02-4,4.04-6.56.04-13.11.04-19.67,0-2.52-.02-3.92-1.4-3.93-3.9-.04-6.69-.04-13.38,0-20.07.02-2.34,1.31-3.62,3.69-3.63,6.76-.04,13.52-.04,20.27,0,2.34.02,3.59,1.32,3.63,3.69.05,3.38.01,6.76.01,10.14ZM99.88,88.11c1.89,0,3.78-.02,5.67.01.92.02,1.35-.3,1.35-1.28-.03-3.78-.02-7.56,0-11.34,0-.87-.38-1.2-1.22-1.19-3.78.02-7.56.02-11.33,0-1.01,0-1.25.49-1.24,1.38.02,3.71.03,7.42,0,11.13,0,.96.39,1.31,1.33,1.3,1.82-.04,3.64-.01,5.46-.01Z"/>
  <path class="cls-1" d="M143.2,112.37c-4.86,0-9.71.02-14.57-.01-2.64-.02-4.2-1.25-4.32-3.28-.11-1.9.8-3.09,2.61-3.53.84-.2,1.73-.27,2.6-.28,9.11-.02,18.22-.02,27.32,0,1,0,2.04.06,3,.34,1.51.44,2.37,1.63,2.38,3.16,0,1.51-.71,2.73-2.27,3.24-.9.3-1.84.36-2.79.36-4.65-.02-9.31,0-13.96,0Z"/>
  <path class="cls-1" d="M143.36,67.37c4.93,0,9.86-.02,14.79,0,2.6.01,3.93,1.13,3.98,3.26.06,2.22-1.35,3.62-3.91,3.63-9.93.04-19.85.04-29.78,0-2.57,0-4.14-1.4-4.14-3.46,0-2.26,1.42-3.42,4.27-3.43,4.93-.02,9.86,0,14.79,0Z"/>
  <path class="cls-1" d="M143.4,146.91c4.86,0,9.72-.01,14.58,0,2.71,0,4.11,1.16,4.16,3.34.05,2.3-1.37,3.55-4.17,3.56-9.86.02-19.71.02-29.57,0-2.59,0-4.11-1.34-4.1-3.47,0-2.12,1.53-3.42,4.11-3.43,5-.02,9.99,0,14.99,0Z"/>
  <path class="cls-1" d="M137.93,91.44c-3.24,0-6.48.02-9.72,0-2.53-.03-3.88-1.23-3.9-3.36-.02-2.02,1.45-3.44,3.88-3.52,2.97-.09,5.94-.03,8.91-.03,3.51,0,7.02-.01,10.53,0,1.91,0,3.47.63,4.11,2.61.68,2.12-.86,4.19-3.27,4.25-3.51.09-7.02.02-10.53.02,0,0,0,.01,0,.02Z"/>
  <path class="cls-1" d="M137.86,129.53c-3.24,0-6.48.03-9.72,0-2.39-.03-3.76-1.22-3.84-3.24-.08-2.02,1.22-3.56,3.53-3.6,6.81-.11,13.63-.1,20.44-.01,2.17.03,3.71,1.76,3.6,3.6-.12,1.97-1.59,3.23-3.9,3.25-3.37.03-6.75,0-10.12,0Z"/>
  <path class="cls-1" d="M131.48,171.25c-1.79-.15-3.21.14-4.6-.3-1.67-.53-2.62-1.58-2.58-3.39.05-1.8,1.01-2.9,2.75-3.21,2.6-.47,5.23-.42,7.83-.07,1.93.26,3.16,1.72,3.16,3.36,0,1.71-1.13,3.03-3.14,3.38-1.25.22-2.54.18-3.44.23Z"/>
</svg>