<?xml version="1.0" encoding="UTF-8"?>
<svg id="Camada_1" data-name="Camada 1" xmlns="http://www.w3.org/2000/svg" viewBox="0 0 200 201.76">
  <defs>
    <style>
      .cls-1 {
        fill: none;
      }

      .cls-1, .cls-2, .cls-3 {
        stroke-width: 0px;
      }

      .cls-2 {
        fill: #f38222;
      }

      .cls-3 {
        fill: #6ad800;
      }
    </style>
  </defs>
  <path class="cls-1" d="M165.28,127.73c-1.31.61-2.65,1.15-4.5,1.94,2.88,1.06,5.01,2.36,7.63,3.06-.57-1.6-1.08-2.96-1.54-4.34-.29-.87-.77-1.03-1.59-.66Z"/>
  <path class="cls-1" d="M23.05,160.01c-.71-.32-1.15-.27-1.43.57-.69,2.07-1.45,4.11-2.33,6.57,3.54-1.55,6.64-2.9,10.06-4.39-2.32-1.01-4.32-1.86-6.3-2.75Z"/>
  <path class="cls-1" d="M151.65,190.69c-22.12-9.56-44.25-19.11-66.38-28.65-1.52-.66-2.86-1.39-2.9-3.33-.04-2.03,1.27-2.84,2.9-3.51,2.6-1.07,5.15-2.23,7.85-3.41-2.15-1.87-4.15-3.53-6.05-5.29-.87-.81-1.61-.87-2.7-.4-8.34,3.65-16.73,7.21-25.07,10.86-1.76.77-3.32.76-5.08-.02-8.45-3.72-16.96-7.31-25.4-11.05-1.46-.64-1.95-.36-2.34,1.09-.46,1.7-1.09,3.38-1.8,4.99-.51,1.17-.19,1.63.93,2.09,4.33,1.78,8.62,3.65,12.91,5.51,1.95.85,2.74,2.5,2.1,4.29-.42,1.18-1.42,1.71-2.49,2.17-6.8,2.93-13.59,5.87-20.38,8.82-.57.25-1.33.31-1.57.97-1.27,3.47-2.49,6.95-3.87,10.84,1.15-.47,1.84-.73,2.52-1.03,16.26-7.03,32.53-14.03,48.76-21.12,1.94-.85,3.61-.91,5.59-.05,20.01,8.71,40.06,17.32,60.07,26.02,2.03.88,4.02,1.31,6.22,1.27,5.92-.09,11.84-.03,17.91-.03-.52-.74-1.17-.83-1.72-1.07Z"/>
  <path class="cls-1" d="M178.85,161.97c-.21-.6-.4-1.17-1.09-1.44-2.11-.82-4.21-1.7-6.31-2.55-.27-.16-.53-.35-.82-.47-12.02-5.2-24.06-10.38-36.07-15.61-.9-.39-1.56-.14-2.32.19-11.37,4.89-22.75,9.78-34.12,14.66-1.33.57-2.66,1.15-4.34,1.87,4.06,1.76,7.71,3.35,11.36,4.93,21.55,9.31,43.1,18.62,64.65,27.95.43.19.84.25,1.27.25,3.93-.01,7.86-.04,11.78-.05,1.65.02,3.3-.02,4.94.08,1.36.09,1.6-.3,1.14-1.59-3.39-9.4-6.73-18.81-10.08-28.22Z"/>
  <path class="cls-1" d="M68.25,171.19c-1.36-.59-2.43-.52-3.74.05-15.14,6.59-30.31,13.13-45.47,19.69-.42.18-1.01.16-1.18.79h96.96c.02-.1.04-.2.06-.31-.56-.27-1.11-.55-1.68-.79-14.99-6.47-29.99-12.92-44.96-19.44Z"/>
  <path class="cls-2" d="M195.33,188.78c-9.86-27.64-19.74-55.28-29.61-82.92-1.27-3.56-3.33-4.96-7.19-4.97-3.97,0-7.94,0-12.08,0-1.67,3.78-2.96,6.12-3.42,6.96.38-.53.99-.48,1.57-.48,4.11,0,8.22,0,12.34,0,.03.11.06.23.09.34-5.87,2.53-11.73,5.07-18.16,7.84,0,0,0,0,0,.01,0,0-3.56,5.56-7.14,10.4.26-.29.62-.52.97-.67,7.66-3.32,15.33-6.63,22.99-9.93.17-.07.37-.08.56-.11q4.97-2.81,6.79,2.4,1.2,3.44-2.16,4.9c-.75.32-1.52.6-2.28.9-2.19.97-4.37,1.97-6.57,2.92-1.44.62-2.54,1.55-2.56,3.2-.03,1.75,1.08,2.69,2.61,3.35,4.07,1.73,8.11,3.54,12.16,5.31,2.09.88,4.18,1.77,6.28,2.63.63.26,1.04.65,1.27,1.29,1.15,3.27,2.31,6.53,3.66,10.34-3.02-1.34-5.61-2.5-8.2-3.65-9.3-3.98-18.6-7.97-27.9-11.93-7.04-2.99-4.67-2.85-11.3-.1-1.93.8-3.83,1.65-5.76,2.46-.61.26-1.22.68-2.06.23-.13.13-11.45,11.08-19.13,15.69-.66.4-1.49.4-2.16,0-6.96-4.18-16.91-13.57-18.81-15.39.51.65.31,1-.69,1.43-5.88,2.49-11.85,4.82-17.56,7.65-3.56,1.77-6.57,1.76-10.11-.01-5.48-2.74-11.2-5-16.81-7.46-1.52-.61-3.02-1.27-4.57-1.81-1.01-.35-.95-.9-.65-1.73,2.4-6.64,4.78-13.28,7.12-19.95.39-1.11.87-1.37,1.92-.84,1.24.62,2.52,1.15,3.79,1.71,9.87,4.26,19.73,8.53,29.61,12.77.53.23.95.55,1.32.92-1.78-2.09-3.49-4.23-5.13-6.43-2.09-2.82-3.79-5.21-3.82-5.2-.09.03-.25.07-.44-.03-6.38-2.51-12.67-5.21-18.86-8.13-1.34-.53-2.71-1.03-4.03-1.61-.67-.3-1.77-.37-1.29-1.62.39-1,.38-2.29,2.1-2.11,1.56.17,3.15.07,4.73.09,2.96-.02,5.92-.02,8.88-.08.69-.01,1.15.21,1.48.72-.01-.03-.03-.05-.04-.08-.37-.69-1.73-3.08-3.5-7.1h0c-4.14,0-8.06,0-11.99,0-4.06,0-6,1.36-7.38,5.22-5.05,14.1-10.08,28.21-15.12,42.32-4.79,13.39-9.57,26.79-14.36,40.18-1.54,4.31-.39,7.2,3.65,9.24.15.08.25.24.38.37h182.52c4.54-2.89,5.59-5.25,4.09-9.45ZM160.78,129.67c1.85-.79,3.19-1.34,4.5-1.94.82-.38,1.3-.21,1.59.66.46,1.38.97,2.73,1.54,4.34-2.61-.69-4.74-1.99-7.63-3.06ZM21.62,160.57c.28-.84.72-.88,1.43-.57,1.98.89,3.98,1.74,6.3,2.75-3.42,1.49-6.51,2.84-10.06,4.39.88-2.46,1.64-4.5,2.33-6.57ZM114.82,191.72H17.86c.18-.63.76-.61,1.18-.79,15.16-6.56,30.32-13.1,45.47-19.69,1.31-.57,2.38-.64,3.74-.05,14.97,6.52,29.97,12.97,44.96,19.44.57.25,1.12.53,1.68.79-.02.1-.04.2-.06.31ZM135.46,191.78c-2.21.03-4.2-.39-6.22-1.27-20.01-8.7-40.06-17.31-60.07-26.02-1.98-.86-3.64-.8-5.59.05-16.23,7.08-32.5,14.09-48.76,21.12-.68.29-1.37.56-2.52,1.03,1.38-3.89,2.6-7.38,3.87-10.84.24-.66,1-.73,1.57-.97,6.79-2.95,13.58-5.88,20.38-8.82,1.07-.46,2.08-.99,2.49-2.17.63-1.79-.15-3.44-2.1-4.29-4.29-1.87-8.59-3.73-12.91-5.51-1.12-.46-1.44-.92-.93-2.09.71-1.62,1.33-3.29,1.8-4.99.39-1.45.89-1.74,2.34-1.09,8.45,3.73,16.95,7.33,25.4,11.05,1.77.78,3.32.79,5.08.02,8.34-3.66,16.73-7.21,25.07-10.86,1.09-.48,1.82-.41,2.7.4,1.9,1.76,3.9,3.42,6.05,5.29-2.69,1.18-5.25,2.34-7.85,3.41-1.63.67-2.94,1.48-2.9,3.51.04,1.94,1.38,2.67,2.9,3.33,22.13,9.54,44.26,19.09,66.38,28.65.55.24,1.2.33,1.72,1.07-6.07,0-11.99-.06-17.91.03ZM187.79,191.78c-1.64-.1-3.29-.06-4.94-.08-3.93.02-7.86.04-11.78.05-.44,0-.84-.06-1.27-.25-21.54-9.33-43.1-18.64-64.65-27.95-3.65-1.58-7.3-3.17-11.36-4.93,1.67-.72,3-1.3,4.34-1.87,11.37-4.89,22.75-9.77,34.12-14.66.76-.33,1.42-.58,2.32-.19,12.01,5.23,24.04,10.41,36.07,15.61.29.12.55.31.82.47,2.1.86,4.2,1.73,6.31,2.55.7.27.88.84,1.09,1.44,3.35,9.41,6.69,18.83,10.08,28.22.46,1.28.22,1.67-1.14,1.59Z"/>
  <g>
    <path class="cls-3" d="M153.97,47.36c-5.79-27.18-29.29-43.85-53.97-43.83-24.68-.02-48.18,16.65-53.97,43.83-2.59,12.16-.86,24.25,1.75,36.23,1.18,5.41,3.03,10.62,5.2,15.71.2.46.34.95.56,1.6,1.77,4.02,3.13,6.41,3.5,7.1,1.28,2.35,2.55,4.7,4.09,7.57,0,0,3.6,5.64,7.21,10.49,3.5,4.72,7.36,9.15,11.43,13.44,0,0,11.41,11.06,19.14,15.7.66.4,1.49.4,2.16,0,7.72-4.64,19.14-15.7,19.14-15.7,4.08-4.28,7.93-8.72,11.43-13.44,3.61-4.86,7.21-10.49,7.21-10.49,1.55-2.87,2.82-5.22,4.09-7.57.38-.69,1.73-3.08,3.5-7.1.22-.65.36-1.13.56-1.6,2.17-5.09,4.02-10.3,5.21-15.71,2.62-11.99,4.34-24.08,1.75-36.23ZM148.2,68.21c-.97,9.73-3.27,19.16-6.95,28.25-4.69,11.57-11.45,21.83-19.36,31.38-5.83,7.05-12.36,13.4-19.51,19.11-1.19.96-1.79,1.43-2.38,1.41-.59.02-1.18-.46-2.38-1.41-7.15-5.71-13.68-12.06-19.51-19.11-7.91-9.55-14.68-19.81-19.36-31.38-3.68-9.09-5.98-18.52-6.96-28.25-.52-5.29-.85-10.61-.02-15.91,1.92-12.22,7.42-22.5,16.9-30.53,4.87-4.13,10.3-7.3,16.51-9.03,3.5-1.39,7.18-2.05,10.9-2.31,1.32-.09,2.62-.13,3.91-.13s2.59.04,3.91.13c3.72.26,7.4.92,10.91,2.31,6.2,1.72,11.63,4.9,16.51,9.03,9.48,8.03,14.98,18.3,16.9,30.53.83,5.3.51,10.62-.02,15.91Z"/>
    <path class="cls-3" d="M101.42,27.98c-.45-.02-.9-.03-1.35-.03-.02,0-.04,0-.07,0-.02,0-.04,0-.07,0-.45,0-.89.01-1.35.03-16.88.72-30.03,15.13-29.32,32.12.32,7.58,3.65,15.06,9.15,20.51,5.75,5.71,13.41,8.86,21.58,8.9,8.17-.04,15.82-3.19,21.58-8.9,5.5-5.45,8.83-12.93,9.15-20.51.71-16.99-12.45-31.4-29.32-32.12ZM124.44,62.21c-1.18,8.3-6.46,15.39-14.12,18.97-1.12.52-2.33,1.03-3.61,1.21h-.03s-.04.02-.04.02c-2.27.62-4.5.96-6.65,1.02-2.14-.06-4.38-.4-6.65-1.02h-.03s-.04-.02-.04-.02c-1.27-.18-2.48-.69-3.6-1.21-7.66-3.58-12.93-10.67-14.12-18.97-1.18-8.28,1.89-16.55,8.21-22.11,3.2-2.82,6.41-4.49,9.83-5.12h.04s.04-.02.04-.02c1.97-.67,4.06-1.01,6.19-1.01.05,0,.09,0,.13,0,.05,0,.09,0,.13,0,2.14,0,4.22.34,6.2,1.01h.04s.04.02.04.02c3.41.63,6.63,2.3,9.82,5.12,6.33,5.56,9.4,13.83,8.21,22.11Z"/>
  </g>
</svg>