<?xml version="1.0" encoding="UTF-8"?>
<svg id="Camada_1" xmlns="http://www.w3.org/2000/svg" viewBox="0 0 200 201.76">
  <defs>
    <style>
      .cls-1 {
        fill: #dd5900;
      }

      .cls-2 {
        fill: #4f9300;
      }
    </style>
  </defs>
  <path class="cls-1" d="M26.12,198.22c-.45-.63-1.22-.58-1.84-.82-5.6-2.15-9.23-8.24-8.28-13.94,1.09-6.49,6.13-11.09,12.51-11.12,13.88-.08,27.75-.04,41.63-.03,2.72,0,5.01-.83,6.47-3.23,2.66-4.38-.47-9.7-5.78-9.73-10.33-.05-20.66,0-30.99-.03-1.07,0-2.15-.08-3.21-.24-6.25-.94-10.84-6.11-10.93-12.44-.08-5.39-.04-10.77-.02-16.16,0-2.22,1.33-3.69,3.23-3.67,1.84.01,3.22,1.53,3.23,3.72.03,5.07,0,10.14.02,15.21.02,4.43,2.5,6.97,6.94,6.99,10.33.03,20.66.02,30.99,0,5.12,0,9.31,1.83,12.02,6.29,2.57,4.23,2.64,8.7.27,13.02-2.46,4.49-6.47,6.7-11.55,6.72-13.81.06-27.63.04-41.44,0-2.88,0-5.07,1.09-6.32,3.69-2.02,4.18.82,8.91,5.49,9.26.44.03.89.02,1.33.02,45.69,0,91.37,0,137.06,0,5.16,0,8.91-2.48,10.2-6.87,1.04-3.54.45-6.89-2.2-9.51-4.09-4.06-8.41-7.89-12.57-11.88-1.04-1-1.42-.05-1.94.42-5.89,5.33-12.77,7.4-20.65,6.68-8.04-.74-15.37-3.55-22.46-7.16-11.19-5.69-21.22-13.1-30.76-21.17-18.58-15.72-35.6-32.98-50.28-52.43-7.42-9.83-14.12-20.12-17.92-31.99-.52-1.62-1.04-3.26-1.36-4.93-.4-2.06.55-3.47,2.38-3.9,1.6-.38,3.32.51,3.8,2.34,4.78,17.84,15.7,32.05,27.29,45.78,15,17.77,31.6,33.93,50.14,48.02,8.13,6.18,16.69,11.7,26.22,15.57.64.26,1.31.44,1.97.66,1.2.74,2.56,1.03,3.89,1.37,4.6,1.19,9.23,2,13.98.89,3.47-.34,6.43-1.86,8.92-4.19,2.91-2.72,5.61-5.66,8.52-8.39,1.21-1.13,1.23-1.76.02-2.95-10.97-10.87-21.86-21.8-32.78-32.72q-2.67-2.67-5.22.33c-1,.95-1.96,1.95-3.02,2.84-2.88,2.41-6.11,3.05-9.7,1.8-1.76-.61-3.07-1.93-4.65-2.82-.42-.38-.81-.8-1.26-1.15-9.61-7.46-18.73-15.45-26.78-24.62-4.51-5.13-8.93-10.34-12.93-15.88-3.2-4.43-2.78-9.18,1.03-13.05,1.33-1.35,2.64-2.73,4.04-4.01.81-.75.73-1.24-.03-1.97-2.37-2.28-4.67-4.64-7-6.96-8.78-8.76-17.57-17.51-26.35-26.26q-2.3-2.59-4.71-.19c-2.2,2.2-4.36,4.42-6.6,6.57-1.77,1.7-3.81,1.62-5.13-.07-1.04-1.34-1.02-2.94.33-4.31,6.2-6.25,12.31-12.62,18.75-18.61,5.31-4.94,13.03-4.51,18.19.61,9.04,8.97,18.05,17.98,27.01,27.03,5.46,5.52,5.41,13.3-.05,18.85-4.49,4.56-9.05,9.05-13.57,13.59-1.91,1.92-2.02,3.18-.43,5.32,11.61,15.71,25.27,29.36,40.97,40.97,2.13,1.57,3.41,1.47,5.32-.44,4.4-4.38,8.78-8.79,13.18-13.17,5.82-5.8,13.81-5.87,19.63-.09,8.86,8.8,17.68,17.63,26.48,26.48,5.73,5.77,5.73,13.47.03,19.28-3.82,3.89-7.67,7.74-11.58,11.54-.97.94-.95,1.46.05,2.36,3.71,3.36,7.32,6.83,10.99,10.23,4.88,4.51,6.89,9.98,5.18,16.47-1.7,6.45-5.99,10.39-12.53,11.84-.15.03-.28.22-.41.33H26.12ZM52.7,10.4c-1.79-.68-3.5-.35-5.09.54-1.51.84-2.58,2.21-3.79,3.4q-2.23,2.21.16,4.4c3.92,3.96,7.82,7.93,11.76,11.86,6.59,6.58,13.2,13.13,19.8,19.7q2.69,3.15,5.56.28c.36-.36.72-.71,1.07-1.07,3.57-3.64,3.61-7.34.02-10.95-8.65-8.69-17.33-17.35-26.01-26.02-.98-.98-2.03-1.91-3.48-2.15ZM140.94,102.25c-2.85.45-4.11,2.99-6.1,4.57-1.37,1.09-1.13,1.83.03,2.97,10.51,10.43,20.97,20.92,31.44,31.39.4.4.85.75,1.28,1.12q2.3,2.88,4.88.3c.63-.63,1.26-1.25,1.88-1.88,3.07-3.11,3.17-6.77.09-9.89-8.83-8.91-17.71-17.77-26.6-26.61-1.9-1.89-4.15-2.86-6.89-1.97Z"/>
  <path class="cls-2" d="M155.39,32.72c-.03,1.12-.51,1.91-1.21,2.61-7.38,7.38-14.75,14.77-22.16,22.14-1.58,1.57-3.51,1.61-4.87.22-1.4-1.42-1.31-3.18.35-4.84,7.32-7.35,14.67-14.68,22-22.02,1.13-1.13,2.39-1.67,3.93-.99,1.27.56,1.89,1.62,1.95,2.9Z"/>
  <path class="cls-2" d="M153.88,71.63c-4.69,0-9.38.01-14.07,0-2.47,0-3.83-1.18-3.82-3.23,0-1.99,1.44-3.24,3.86-3.24,9.31-.02,18.63-.02,27.94,0,2.34,0,3.87,1.34,3.87,3.28,0,1.89-1.55,3.19-3.91,3.2-4.63.01-9.25,0-13.88,0Z"/>
  <path class="cls-2" d="M119.7,31.16c0,4.62.01,9.24,0,13.87,0,2.5-1.13,3.83-3.18,3.84-2.07.01-3.28-1.33-3.29-3.78-.02-9.31-.02-18.61,0-27.92,0-2.47,1.18-3.83,3.22-3.85,2.06-.02,3.24,1.33,3.25,3.78.02,4.69,0,9.37,0,14.06Z"/>
  <path class="cls-1" d="M22.94,39.2c.01,1.74-1.49,3.24-3.27,3.24-1.78,0-3.29-1.48-3.28-3.22,0-1.73,1.55-3.27,3.27-3.27,1.74,0,3.27,1.51,3.28,3.26Z"/>
</svg>