<?xml version="1.0" encoding="UTF-8"?>
<svg id="Camada_1" xmlns="http://www.w3.org/2000/svg" viewBox="0 0 200 200">
  <defs>
    <style>
      .cls-1 {
        fill: #da222a;
      }
    </style>
  </defs>
  <path class="cls-1" d="M15.35,103.02c1.66,6.11,6.29,10.06,10.41,14.38,20.38,21.36,40.79,42.7,61.12,64.11,3.9,4.11,6.12,6.07,14.15,6.07,7.04,0,12.24-7.24,12.57-7.8,2.08-3.5,2.7-7.25,2.14-11.27-.16-1.18-.45-2.31-1.04-3.45-.94-1.82-6.3-7.78-8.23-9.98-7.71-8.79-16.03-17.05-24.12-25.5-7.35-7.67-14.75-15.32-22.1-22.99-.89-.93-3.92-3.96-4.99-5.22-.74-.74-.8-1.37-.8-1.37,0,0,.07-.64.8-1.37,1.07-1.26,4.1-4.29,4.99-5.23,7.35-7.67,14.75-15.31,22.1-22.99,8.1-8.45,16.41-16.71,24.12-25.5,1.93-2.21,7.29-8.16,8.23-9.98.58-1.14.87-2.27,1.04-3.45.56-4.01-.06-7.77-2.14-11.27-.33-.56-5.52-7.8-12.57-7.8-8.03,0-10.25,1.96-14.15,6.07-20.33,21.4-40.74,42.74-61.12,64.11-4.12,4.32-8.76,8.27-10.41,14.38l-.43,3.02.43,3.02ZM24.61,93.23c8.51-8.95,17.06-17.86,25.59-26.79,14-14.66,28-29.32,42.01-43.95,3.3-3.45,7.01-4.31,10.98-2.73,6.48,2.16,8.33,10.43,3.46,15.7-2.49,2.7-5.07,5.32-7.6,7.97-15.55,16.24-31.09,32.47-46.62,48.72-1.79,1.88-3.49,3.85-5.23,5.77-.64.71-.96,1.39-.95,2.08,0,.69.31,1.38.95,2.08,1.75,1.92,3.44,3.89,5.23,5.77,15.53,16.25,31.08,32.48,46.62,48.72,2.54,2.65,5.11,5.27,7.6,7.97,4.87,5.27,3.02,13.54-3.46,15.7-3.97,1.59-7.67.72-10.98-2.73-14.02-14.64-28.01-29.3-42.01-43.95-8.53-8.93-17.08-17.84-25.59-26.79-1.86-1.97-2.8-4.37-2.81-6.77,0-2.4.94-4.8,2.81-6.77Z"/>
  <path class="cls-1" d="M84.49,103.02c1.66,6.11,6.29,10.06,10.41,14.38,20.38,21.36,40.79,42.7,61.12,64.11,3.9,4.11,6.12,6.07,14.15,6.07,7.04,0,12.24-7.24,12.57-7.8,2.08-3.5,2.7-7.25,2.14-11.27-.16-1.18-.45-2.31-1.04-3.45-.94-1.82-6.3-7.78-8.23-9.98-7.71-8.79-16.03-17.05-24.12-25.5-7.35-7.67-14.75-15.32-22.1-22.99-.89-.93-3.92-3.96-4.99-5.22-.74-.74-.8-1.37-.8-1.37,0,0,.07-.64.8-1.37,1.07-1.26,4.1-4.29,4.99-5.23,7.35-7.67,14.75-15.31,22.1-22.99,8.1-8.45,16.41-16.71,24.12-25.5,1.93-2.21,7.29-8.16,8.23-9.98.58-1.14.87-2.27,1.04-3.45.56-4.01-.06-7.77-2.14-11.27-.33-.56-5.52-7.8-12.57-7.8-8.03,0-10.25,1.96-14.15,6.07-20.33,21.4-40.74,42.74-61.12,64.11-4.12,4.32-8.76,8.27-10.41,14.38l-.43,3.02.43,3.02ZM93.76,93.23c8.51-8.95,17.06-17.86,25.59-26.79,14-14.66,28-29.32,42.01-43.95,3.3-3.45,7.01-4.31,10.98-2.73,6.48,2.16,8.33,10.43,3.46,15.7-2.49,2.7-5.07,5.32-7.6,7.97-15.55,16.24-31.09,32.47-46.62,48.72-1.79,1.88-3.49,3.85-5.23,5.77-.64.71-.96,1.39-.95,2.08,0,.69.31,1.38.95,2.08,1.75,1.92,3.44,3.89,5.23,5.77,15.53,16.25,31.08,32.48,46.62,48.72,2.54,2.65,5.11,5.27,7.6,7.97,4.87,5.27,3.02,13.54-3.46,15.7-3.97,1.59-7.67.72-10.98-2.73-14.02-14.64-28.01-29.3-42.01-43.95-8.53-8.93-17.08-17.84-25.59-26.79-1.86-1.97-2.8-4.37-2.81-6.77,0-2.4.94-4.8,2.81-6.77Z"/>
</svg>