<?xml version="1.0" encoding="UTF-8"?>
<svg id="Camada_1" xmlns="http://www.w3.org/2000/svg" viewBox="0 0 387.92 387.92">
  <defs>
    <style>
      .cls-1 {
        fill: #da222a;
      }
    </style>
  </defs>
  <path class="cls-1" d="M14.02,200.39c3.52,12.98,13.37,21.38,22.13,30.56,43.31,45.41,86.69,90.77,129.91,136.26,8.3,8.73,13.01,12.9,30.08,12.9,14.97,0,26.01-15.39,26.71-16.57,4.43-7.43,5.75-15.41,4.55-23.95-.35-2.51-.96-4.9-2.2-7.32-2-3.88-13.39-16.53-17.5-21.21-16.39-18.69-34.07-36.24-51.28-54.2-15.63-16.31-31.35-32.56-46.98-48.87-1.9-1.98-8.34-8.43-10.61-11.1-1.57-1.57-1.71-2.92-1.71-2.92,0,0,.14-1.36,1.71-2.92,2.27-2.68,8.71-9.13,10.61-11.11,15.63-16.3,31.35-32.55,46.98-48.86,17.21-17.96,34.89-35.52,51.28-54.2,4.1-4.69,15.5-17.34,17.5-21.21,1.24-2.42,1.86-4.82,2.2-7.32,1.2-8.53-.12-16.52-4.55-23.95-.7-1.19-11.74-16.57-26.71-16.57-17.08,0-21.79,4.17-30.08,12.9-43.22,45.5-86.6,90.85-129.91,136.26-8.76,9.18-18.61,17.57-22.13,30.56l-.91,6.43.91,6.43ZM33.71,179.57c18.09-19.02,36.26-37.97,54.4-56.95,29.76-31.15,59.51-62.31,89.3-93.42,7.02-7.33,14.9-9.17,23.33-5.8,13.78,4.6,17.7,22.16,7.36,33.38-5.29,5.74-10.77,11.3-16.16,16.94-33.04,34.52-66.08,69.02-99.09,103.56-3.81,3.99-7.41,8.18-11.13,12.26-1.36,1.5-2.03,2.96-2.02,4.43-.01,1.47.66,2.93,2.02,4.43,3.72,4.08,7.31,8.27,11.13,12.26,33.01,34.53,66.05,69.03,99.09,103.56,5.39,5.64,10.87,11.2,16.16,16.94,10.35,11.21,6.43,28.78-7.36,33.38-8.44,3.37-16.31,1.53-23.33-5.8-29.79-31.11-59.54-62.27-89.3-93.42-18.14-18.98-36.3-37.92-54.4-56.95-3.96-4.18-5.95-9.28-5.96-14.39.01-5.11,2-10.21,5.96-14.39Z"/>
  <path class="cls-1" d="M160.99,200.39c3.52,12.98,13.37,21.38,22.13,30.56,43.31,45.41,86.69,90.77,129.91,136.26,8.3,8.73,13.01,12.9,30.08,12.9,14.97,0,26.01-15.39,26.71-16.57,4.43-7.43,5.75-15.41,4.55-23.95-.35-2.51-.96-4.9-2.2-7.32-2-3.88-13.39-16.53-17.5-21.21-16.39-18.69-34.07-36.24-51.28-54.2-15.63-16.31-31.35-32.56-46.98-48.87-1.9-1.98-8.34-8.43-10.61-11.1-1.57-1.57-1.71-2.92-1.71-2.92,0,0,.14-1.36,1.71-2.92,2.27-2.68,8.71-9.13,10.61-11.11,15.63-16.3,31.35-32.55,46.98-48.86,17.21-17.96,34.89-35.52,51.28-54.2,4.1-4.69,15.5-17.34,17.5-21.21,1.24-2.42,1.86-4.82,2.2-7.32,1.2-8.53-.12-16.52-4.55-23.95-.7-1.19-11.74-16.57-26.71-16.57-17.08,0-21.79,4.17-30.08,12.9-43.22,45.5-86.6,90.85-129.91,136.26-8.76,9.18-18.61,17.57-22.13,30.56l-.91,6.43.91,6.43ZM180.68,179.57c18.09-19.02,36.26-37.97,54.4-56.95,29.76-31.15,59.51-62.31,89.3-93.42,7.02-7.33,14.9-9.17,23.33-5.8,13.78,4.6,17.7,22.16,7.36,33.38-5.29,5.74-10.77,11.3-16.16,16.94-33.04,34.52-66.08,69.02-99.09,103.56-3.81,3.99-7.41,8.18-11.13,12.26-1.36,1.5-2.03,2.96-2.02,4.43-.01,1.47.66,2.93,2.02,4.43,3.72,4.08,7.31,8.27,11.13,12.26,33.01,34.53,66.05,69.03,99.09,103.56,5.39,5.64,10.87,11.2,16.16,16.94,10.35,11.21,6.43,28.78-7.36,33.38-8.44,3.37-16.31,1.53-23.33-5.8-29.79-31.11-59.54-62.27-89.3-93.42-18.14-18.98-36.3-37.92-54.4-56.95-3.96-4.18-5.95-9.28-5.96-14.39.01-5.11,2-10.21,5.96-14.39Z"/>
</svg>