<?xml version="1.0" standalone="no"?>
<!DOCTYPE svg PUBLIC "-//W3C//DTD SVG 20010904//EN"
 "http://www.w3.org/TR/2001/REC-SVG-20010904/DTD/svg10.dtd">
<svg version="1.0" xmlns="http://www.w3.org/2000/svg"
 width="260.000000pt" height="260.000000pt" viewBox="0 0 260.000000 260.000000"
 preserveAspectRatio="xMidYMid meet">
<metadata>
Created by potrace 1.14, written by Peter Selinger 2001-2017
</metadata>
<g transform="translate(0.000000,260.000000) scale(0.100000,-0.100000)"
fill="#000000" stroke="none">
<path d="M453 1892 c-16 -2 -23 -10 -23 -25 -1 -31 -1 -385 -1 -422 1 -29 3
-30 43 -28 24 1 51 2 61 2 15 1 17 14 17 130 0 140 1 143 58 133 25 -5 24 -3
23 -164 l-1 -98 30 -1 c17 -1 39 -1 50 -1 55 0 52 -10 48 152 -3 148 -3 150
-31 177 -25 26 -34 28 -102 28 l-75 -1 -1 46 c-1 25 -1 52 0 61 2 16 -38 20
-96 11z"/>
<path d="M180 1873 c-41 -9 -106 -60 -126 -100 -15 -29 -19 -60 -19 -133 0
-82 3 -101 24 -136 42 -74 144 -108 266 -90 l45 7 0 44 0 44 -68 -2 c-109 -3
-144 32 -144 144 0 119 59 158 192 127 7 -2 14 4 15 12 2 8 6 27 10 41 5 20 2
28 -12 33 -24 10 -151 16 -183 9z"/>
<path d="M891 1769 c-57 -11 -64 -19 -56 -63 6 -32 10 -35 31 -30 76 19 123 5
124 -38 0 -13 -6 -16 -27 -12 -38 7 -104 -4 -126 -21 -27 -20 -46 -82 -36
-117 17 -60 62 -80 168 -77 42 1 90 7 109 12 l33 11 -2 128 c0 72 -6 140 -13
153 -23 51 -107 73 -205 54z m99 -248 c0 -35 -2 -38 -27 -36 -40 3 -41 3 -48
25 -9 28 11 50 46 50 27 0 29 -3 29 -39z"/>
<path d="M1285 1773 c-11 -3 -41 -11 -67 -19 l-48 -16 0 -161 0 -162 37 2 c21
1 48 2 61 2 22 1 22 3 22 131 0 141 3 149 55 136 l25 -6 0 -130 c0 -109 2
-130 15 -131 8 0 31 -1 50 -1 19 0 40 1 45 1 6 1 10 51 10 131 l0 130 25 6
c56 14 61 0 60 -158 l0 -108 30 -1 c38 -2 79 2 84 7 2 2 3 45 3 96 -1 51 -1
114 -2 140 0 38 -6 54 -28 79 -24 27 -35 32 -87 34 -35 2 -74 -3 -92 -10 -28
-12 -38 -12 -66 0 -32 13 -87 16 -132 8z"/>
<path d="M1859 1776 c-2 -2 -17 -6 -34 -9 -51 -9 -66 -18 -60 -38 3 -11 8 -28
11 -39 4 -14 12 -19 27 -15 84 18 113 10 121 -32 4 -21 2 -22 -38 -17 -50 7
-106 -8 -130 -35 -23 -25 -31 -85 -16 -120 14 -36 67 -63 124 -64 66 -1 155
13 169 27 8 9 12 48 11 133 -2 170 -22 201 -129 209 -29 2 -54 2 -56 0z m65
-248 c-1 -16 -2 -32 -3 -37 -2 -14 -61 -7 -71 9 -18 29 10 62 50 58 20 -3 25
-8 24 -30z"/>
<path d="M2317 1768 c-88 -24 -129 -170 -79 -281 27 -60 62 -76 153 -74 119 4
149 37 156 172 5 89 -10 133 -57 167 -31 22 -121 31 -173 16z m90 -86 c19 -12
31 -54 27 -99 -4 -57 -19 -83 -49 -83 -41 0 -58 54 -46 147 2 16 30 43 44 43
7 0 17 -4 24 -8z"/>
<path d="M278 1249 c-42 -5 -90 -15 -107 -23 -86 -45 -106 -189 -35 -245 25
-20 97 -44 164 -55 19 -3 51 -8 70 -11 44 -8 60 -21 60 -51 0 -38 -35 -45
-194 -40 l-142 5 0 -54 c0 -30 4 -56 10 -58 6 -2 81 -3 166 -3 144 1 158 3
205 26 59 30 85 70 87 134 2 103 -55 151 -202 171 -57 8 -120 22 -126 28 -13
12 -11 47 3 59 16 13 218 16 268 4 25 -6 25 -5 25 52 l0 59 -82 2 c-45 1 -84
3 -87 4 -3 2 -41 0 -83 -4z"/>
<path d="M795 1235 c-15 -12 -265 -492 -265 -508 0 -3 32 -5 70 -5 l71 0 26
52 c14 28 29 53 34 56 10 7 277 6 281 -1 2 -2 14 -27 28 -55 l24 -51 73 -1
c43 0 73 4 73 10 0 9 -246 495 -256 507 -7 8 -148 5 -159 -4z m120 -205 c25
-49 45 -91 45 -93 0 -5 -169 -1 -175 5 -5 5 75 178 82 178 2 0 23 -40 48 -90z"/>
<path d="M1237 1242 c-15 -3 -17 -28 -17 -262 l0 -258 60 0 60 0 2 181 3 180
69 -169 c38 -93 73 -174 78 -180 5 -7 38 -11 80 -10 l71 1 68 165 c37 91 71
171 76 179 5 7 8 -63 8 -165 l0 -179 68 -2 67 -1 0 41 c3 211 1 470 -4 474 -5
5 -98 7 -164 4 -17 -1 -27 -11 -39 -38 -8 -21 -23 -56 -32 -78 -10 -22 -39
-93 -66 -158 -26 -64 -49 -116 -51 -115 -1 2 -37 89 -79 193 -43 105 -79 192
-80 193 -5 5 -157 8 -178 4z"/>
<path d="M2002 1236 c-7 -12 -6 -319 2 -371 10 -71 68 -125 154 -144 76 -17
249 -7 302 16 98 44 110 80 110 322 l0 186 -60 -1 c-33 -1 -63 -4 -67 -7 -3
-4 -6 -82 -7 -174 -1 -189 -8 -212 -71 -233 -49 -16 -128 -14 -164 4 -60 31
-65 51 -66 237 0 105 -4 169 -10 170 -64 4 -118 2 -123 -5z"/>
</g>
</svg>
