<?xml version="1.0" encoding="UTF-8"?>
<svg id="Camada_1" data-name="Camada 1" xmlns="http://www.w3.org/2000/svg" viewBox="0 0 387.92 391.32">
  <defs>
    <style>
      .cls-1 {
        fill: none;
      }

      .cls-1, .cls-2, .cls-3 {
        stroke-width: 0px;
      }

      .cls-2 {
        fill: #383838;
      }

      .cls-3 {
        fill: #6ad800;
      }
    </style>
  </defs>
  <path class="cls-1" d="M319.82,247.43c-2.53,1.17-5.11,2.21-8.68,3.74,5.55,2.05,9.66,4.55,14.7,5.89-1.1-3.09-2.08-5.71-2.96-8.36-.56-1.68-1.49-1.99-3.06-1.27Z"/>
  <path class="cls-1" d="M45.59,309.66c-1.37-.61-2.21-.52-2.75,1.09-1.34,3.98-2.8,7.92-4.5,12.67,6.83-2.98,12.8-5.59,19.39-8.47-4.47-1.94-8.32-3.59-12.14-5.29Z"/>
  <path class="cls-1" d="M293.54,368.81c-42.65-18.43-85.31-36.84-127.98-55.23-2.93-1.26-5.51-2.68-5.59-6.42-.09-3.91,2.45-5.48,5.59-6.77,5.01-2.06,9.94-4.31,15.13-6.58-4.15-3.61-8-6.81-11.66-10.2-1.68-1.56-3.1-1.68-5.2-.77-16.09,7.04-32.26,13.9-48.34,20.95-3.39,1.49-6.4,1.46-9.8-.04-16.29-7.18-32.7-14.1-48.98-21.3-2.81-1.24-3.76-.69-4.52,2.11-.89,3.28-2.1,6.51-3.46,9.63-.98,2.25-.37,3.14,1.79,4.02,8.34,3.43,16.62,7.03,24.9,10.63,3.76,1.64,5.27,4.83,4.06,8.28-.81,2.28-2.74,3.3-4.81,4.19-13.1,5.65-26.2,11.32-39.29,17-1.09.47-2.56.6-3.02,1.87-2.44,6.68-4.8,13.4-7.46,20.91,2.21-.9,3.55-1.41,4.86-1.98,31.35-13.55,62.71-27.05,94-40.71,3.75-1.64,6.96-1.75,10.77-.1,38.58,16.79,77.24,33.39,115.82,50.16,3.91,1.7,7.74,2.52,12,2.46,11.41-.17,22.82-.06,34.53-.06-1-1.43-2.27-1.61-3.32-2.06Z"/>
  <path class="cls-1" d="M345.98,313.44c-.41-1.16-.77-2.25-2.11-2.77-4.07-1.59-8.11-3.28-12.16-4.93-.52-.31-1.02-.67-1.58-.91-23.18-10.02-46.38-20.01-69.53-30.09-1.73-.75-3.01-.27-4.48.36-21.92,9.43-43.85,18.85-65.78,28.27-2.57,1.1-5.14,2.22-8.36,3.61,7.83,3.4,14.86,6.46,21.91,9.51,41.55,17.96,83.1,35.9,124.64,53.89.83.36,1.61.49,2.45.48,7.57-.03,15.15-.07,22.72-.1,3.17.04,6.35-.05,9.52.16,2.62.17,3.09-.59,2.2-3.06-6.54-18.12-12.98-36.27-19.43-54.41Z"/>
  <path class="cls-1" d="M132.75,331.21c-2.62-1.14-4.69-1-7.21.1-29.2,12.71-58.44,25.32-87.66,37.97-.82.35-1.94.31-2.28,1.53h186.94c.04-.2.08-.39.12-.59-1.08-.51-2.14-1.06-3.24-1.53-28.9-12.47-57.82-24.9-86.67-37.47Z"/>
  <path class="cls-2" d="M377.75,365.14c-19.02-53.29-38.05-106.58-57.09-159.87-2.45-6.86-6.42-9.57-13.86-9.58-7.66-.01-15.32,0-23.28,0-3.22,7.3-5.72,11.8-6.6,13.42.74-1.03,1.9-.93,3.03-.93,7.93,0,15.86,0,23.79,0,.06.22.11.44.17.65-11.31,4.88-22.62,9.77-35.01,15.11,0,0,0,.02-.01.02,0,0-6.86,10.72-13.77,20.05.49-.55,1.19-1,1.87-1.29,14.77-6.41,29.55-12.78,44.33-19.14.33-.14.72-.15,1.08-.22q9.59-5.42,13.1,4.64,2.31,6.63-4.17,9.45c-1.44.63-2.92,1.16-4.39,1.74-4.22,1.88-8.43,3.79-12.67,5.63-2.77,1.2-4.89,2.98-4.94,6.18-.05,3.36,2.08,5.19,5.03,6.45,7.84,3.34,15.63,6.82,23.44,10.24,4.03,1.69,8.06,3.41,12.11,5.07,1.21.5,2.01,1.25,2.45,2.5,2.21,6.3,4.45,12.58,7.06,19.93-5.81-2.59-10.82-4.81-15.82-7.04-17.93-7.67-35.85-15.37-53.8-23-13.57-5.77-9.01-5.49-21.79-.19-3.72,1.54-7.39,3.18-11.1,4.74-1.18.5-2.36,1.3-3.98.44-.25.24-22.08,21.36-36.88,30.26-1.28.77-2.88.77-4.16,0-13.42-8.06-32.59-26.15-36.27-29.66.99,1.25.6,1.93-1.33,2.75-11.34,4.8-22.84,9.29-33.86,14.75-6.87,3.4-12.67,3.39-19.48-.02-10.56-5.28-21.59-9.64-32.41-14.39-2.93-1.17-5.83-2.45-8.81-3.48-1.95-.68-1.83-1.73-1.25-3.33,4.62-12.8,9.22-25.61,13.72-38.46.75-2.14,1.68-2.65,3.71-1.62,2.38,1.2,4.87,2.21,7.31,3.31,19.02,8.21,38.04,16.45,57.09,24.62,1.02.44,1.83,1.06,2.55,1.77-3.42-4.04-6.73-8.16-9.88-12.41-4.04-5.43-7.3-10.05-7.37-10.02-.18.06-.48.14-.85-.07-12.3-4.83-24.42-10.05-36.37-15.68-2.59-1.03-5.22-1.98-7.76-3.11-1.29-.57-3.42-.71-2.49-3.12.74-1.93.73-4.42,4.04-4.07,3.01.32,6.08.14,9.13.18,5.7-.04,11.41-.04,17.11-.15,1.33-.03,2.23.41,2.86,1.38-.03-.05-.06-.11-.09-.16-.72-1.33-3.33-5.94-6.75-13.69h0c-7.98,0-15.54,0-23.11,0-7.83.01-11.57,2.63-14.24,10.07-9.73,27.19-19.44,54.4-29.16,81.6-9.23,25.82-18.45,51.64-27.68,77.46-2.97,8.31-.76,13.89,7.03,17.82.29.15.49.47.73.71h351.89c8.76-5.57,10.77-10.13,7.89-18.21ZM311.14,251.17c3.56-1.53,6.15-2.57,8.68-3.74,1.57-.73,2.5-.41,3.06,1.27.88,2.65,1.86,5.27,2.96,8.36-5.04-1.34-9.15-3.84-14.7-5.89ZM42.84,310.75c.54-1.61,1.38-1.7,2.75-1.09,3.82,1.71,7.67,3.35,12.14,5.29-6.59,2.88-12.56,5.48-19.39,8.47,1.7-4.75,3.16-8.69,4.5-12.67ZM222.54,370.81H35.6c.34-1.22,1.46-1.17,2.28-1.53,29.22-12.65,58.46-25.26,87.66-37.97,2.52-1.1,4.59-1.24,7.21-.1,28.86,12.57,57.78,25,86.67,37.47,1.1.47,2.16,1.02,3.24,1.53-.04.2-.08.39-.12.59ZM262.33,370.93c-4.25.06-8.09-.76-12-2.46-38.58-16.77-77.24-33.37-115.82-50.16-3.81-1.66-7.02-1.54-10.77.1-31.3,13.66-62.66,27.17-94,40.71-1.31.57-2.64,1.08-4.86,1.98,2.67-7.51,5.02-14.22,7.46-20.91.46-1.27,1.93-1.4,3.02-1.87,13.09-5.68,26.18-11.35,39.29-17,2.06-.89,4-1.91,4.81-4.19,1.22-3.45-.29-6.64-4.06-8.28-8.27-3.6-16.55-7.2-24.9-10.63-2.16-.89-2.77-1.77-1.79-4.02,1.36-3.12,2.57-6.35,3.46-9.63.76-2.79,1.71-3.35,4.52-2.11,16.28,7.2,32.69,14.12,48.98,21.3,3.41,1.5,6.41,1.53,9.8.04,16.08-7.05,32.25-13.9,48.34-20.95,2.1-.92,3.52-.79,5.2.77,3.67,3.39,7.51,6.59,11.66,10.2-5.19,2.27-10.13,4.51-15.13,6.58-3.13,1.29-5.67,2.86-5.59,6.77.08,3.73,2.66,5.15,5.59,6.42,42.67,18.39,85.33,36.8,127.98,55.23,1.06.46,2.32.63,3.32,2.06-11.71,0-23.12-.11-34.53.06ZM363.21,370.91c-3.16-.2-6.34-.12-9.52-.16-7.57.04-15.15.08-22.72.1-.84,0-1.62-.12-2.45-.48-41.53-17.99-83.09-35.94-124.64-53.89-7.04-3.04-14.07-6.11-21.91-9.51,3.22-1.39,5.79-2.5,8.36-3.61,21.93-9.42,43.86-18.83,65.78-28.27,1.47-.63,2.75-1.12,4.48-.36,23.16,10.08,46.35,20.07,69.53,30.09.55.24,1.05.61,1.58.91,4.05,1.65,8.09,3.34,12.16,4.93,1.34.52,1.69,1.61,2.11,2.77,6.46,18.15,12.89,36.3,19.43,54.41.89,2.47.42,3.22-2.2,3.06Z"/>
  <g>
    <path class="cls-3" d="M298.01,92.47c-11.16-52.4-56.47-84.53-104.05-84.5-47.58-.03-92.89,32.11-104.05,84.5-4.99,23.44-1.67,46.74,3.38,69.86,2.27,10.42,5.85,20.48,10.03,30.28.38.89.65,1.82,1.08,3.08,3.42,7.75,6.04,12.35,6.75,13.69,2.46,4.53,4.91,9.06,7.89,14.59,0,0,6.95,10.87,13.9,20.23,6.75,9.09,14.19,17.65,22.04,25.9,0,0,22,21.32,36.9,30.27,1.28.77,2.88.77,4.16,0,14.89-8.94,36.89-30.27,36.89-30.27,7.86-8.26,15.29-16.81,22.04-25.9,6.96-9.37,13.9-20.23,13.9-20.23,2.99-5.53,5.44-10.06,7.89-14.59.72-1.33,3.33-5.94,6.75-13.69.43-1.25.7-2.18,1.08-3.08,4.18-9.81,7.76-19.86,10.04-30.28,5.05-23.11,8.37-46.42,3.37-69.86ZM286.89,132.68c-1.87,18.76-6.31,36.94-13.4,54.47-9.03,22.3-22.07,42.08-37.33,60.5-11.25,13.59-23.84,25.83-37.61,36.84-2.3,1.84-3.45,2.75-4.58,2.72-1.14.03-2.27-.88-4.59-2.72-13.78-11.01-26.37-23.25-37.61-36.84-15.25-18.42-28.3-38.2-37.32-60.5-7.1-17.53-11.53-35.7-13.41-54.47-1.01-10.19-1.64-20.46-.03-30.67,3.7-23.56,14.3-43.37,32.59-58.85,9.39-7.96,19.86-14.08,31.82-17.4,6.75-2.68,13.84-3.95,21.02-4.46,2.54-.18,5.05-.25,7.53-.25s5,.08,7.53.25c7.17.51,14.27,1.77,21.03,4.46,11.95,3.32,22.43,9.44,31.82,17.4,18.27,15.48,28.87,35.29,32.58,58.85,1.61,10.21.99,20.48-.03,30.67Z"/>
    <path class="cls-3" d="M196.69,55.11c-.87-.04-1.74-.06-2.61-.06-.04,0-.08,0-.13,0-.04,0-.08,0-.13,0-.86,0-1.72.02-2.6.06-32.54,1.39-57.89,29.17-56.52,61.92.61,14.62,7.03,29.03,17.65,39.54,11.09,11,25.86,17.09,41.6,17.16,15.74-.07,30.51-6.15,41.61-17.16,10.6-10.51,17.03-24.93,17.65-39.54,1.36-32.75-23.99-60.53-56.52-61.92ZM241.07,121.11c-2.28,16.01-12.46,29.68-27.22,36.57-2.17,1.01-4.5,1.99-6.96,2.33h-.06s-.07.03-.07.03c-4.37,1.2-8.67,1.85-12.81,1.96-4.13-.11-8.45-.76-12.82-1.96l-.06-.02h-.07c-2.45-.35-4.79-1.33-6.95-2.34-14.76-6.9-24.93-20.57-27.23-36.57-2.28-15.97,3.63-31.9,15.83-42.63,6.17-5.43,12.36-8.65,18.95-9.87l.07-.02.07-.02c3.8-1.29,7.82-1.95,11.94-1.95.09,0,.18,0,.25,0,.09,0,.17,0,.25,0,4.12,0,8.14.66,11.95,1.95l.07.02.07.02c6.57,1.21,12.78,4.44,18.94,9.87,12.2,10.73,18.12,26.66,15.83,42.63Z"/>
  </g>
</svg>