<?xml version="1.0" encoding="UTF-8"?>
<svg id="Camada_1" xmlns="http://www.w3.org/2000/svg" viewBox="0 0 157.4 159.68">
  <defs>
    <style>
      .cls-1 {
        fill: #dd5900;
      }

      .cls-2 {
        fill: #4f9300;
      }

      .cls-3 {
        fill: none;
      }
    </style>
  </defs>
  <path class="cls-3" d="M132.24,101.86c-1.08.5-2.17.94-3.69,1.59,2.36.87,4.11,1.94,6.25,2.51-.47-1.32-.88-2.43-1.26-3.56-.24-.71-.63-.85-1.3-.54Z"/>
  <path class="cls-3" d="M15.59,128.33c-.58-.26-.94-.22-1.17.46-.57,1.69-1.19,3.37-1.91,5.39,2.9-1.27,5.44-2.38,8.25-3.6-1.9-.83-3.54-1.53-5.16-2.25Z"/>
  <path class="cls-3" d="M121.06,153.49c-18.14-7.84-36.29-15.67-54.44-23.49-1.25-.54-2.34-1.14-2.38-2.73-.04-1.66,1.04-2.33,2.38-2.88,2.13-.88,4.23-1.83,6.44-2.8-1.77-1.53-3.4-2.9-4.96-4.34-.72-.66-1.32-.72-2.21-.33-6.84,3-13.72,5.91-20.56,8.91-1.44.63-2.72.62-4.17-.02-6.93-3.05-13.91-6-20.83-9.06-1.19-.53-1.6-.29-1.92.9-.38,1.4-.89,2.77-1.47,4.1-.42.96-.16,1.33.76,1.71,3.55,1.46,7.07,2.99,10.59,4.52,1.6.7,2.24,2.05,1.73,3.52-.34.97-1.17,1.4-2.04,1.78-5.57,2.4-11.14,4.81-16.71,7.23-.46.2-1.09.26-1.29.8-1.04,2.84-2.04,5.7-3.18,8.89.94-.38,1.51-.6,2.07-.84,13.33-5.76,26.67-11.51,39.99-17.32,1.6-.7,2.96-.75,4.58-.04,16.41,7.14,32.85,14.2,49.27,21.34,1.66.72,3.29,1.07,5.1,1.05,4.85-.07,9.71-.03,14.69-.03-.43-.61-.96-.68-1.41-.88Z"/>
  <path class="cls-3" d="M143.37,129.94c-.18-.49-.33-.96-.9-1.18-1.73-.68-3.45-1.39-5.17-2.1-.22-.13-.44-.29-.67-.39-9.86-4.26-19.73-8.51-29.58-12.8-.74-.32-1.28-.12-1.91.15-9.33,4.01-18.65,8.02-27.98,12.02-1.09.47-2.18.94-3.56,1.53,3.33,1.45,6.32,2.75,9.32,4.04,17.67,7.64,35.35,15.27,53.02,22.92.35.15.68.21,1.04.21,3.22-.01,6.44-.03,9.66-.04,1.35.02,2.7-.02,4.05.07,1.11.07,1.32-.25.94-1.3-2.78-7.71-5.52-15.43-8.27-23.15Z"/>
  <path class="cls-3" d="M52.66,137.5c-1.11-.48-1.99-.43-3.07.04-12.42,5.41-24.86,10.77-37.29,16.15-.35.15-.83.13-.97.65h79.52c.02-.08.03-.17.05-.25-.46-.22-.91-.45-1.38-.65-12.29-5.31-24.59-10.59-36.87-15.94Z"/>
  <path class="cls-1" d="M156.88,151.93c-8.09-22.67-16.19-45.34-24.29-68-1.04-2.92-2.73-4.07-5.9-4.08-3.26,0-6.51,0-9.9,0-1.37,3.1-2.43,5.02-2.81,5.71.31-.44.81-.4,1.29-.4,3.37,0,6.75,0,10.12,0,.02.09.05.19.07.28-4.81,2.08-9.62,4.16-14.89,6.43,0,0,0,0,0,.01,0,0-2.92,4.56-5.86,8.53.21-.23.51-.43.79-.55,6.28-2.72,12.57-5.43,18.86-8.14.14-.06.3-.06.46-.09q4.08-2.31,5.57,1.97.98,2.82-1.77,4.02c-.61.27-1.24.49-1.87.74-1.8.8-3.59,1.61-5.39,2.39-1.18.51-2.08,1.27-2.1,2.63-.02,1.43.88,2.21,2.14,2.74,3.34,1.42,6.65,2.9,9.97,4.36,1.72.72,3.43,1.45,5.15,2.16.51.21.86.53,1.04,1.06.94,2.68,1.89,5.35,3,8.48-2.47-1.1-4.6-2.05-6.73-2.99-7.63-3.26-15.25-6.54-22.88-9.78-5.77-2.46-3.83-2.33-9.27-.08-1.58.65-3.14,1.35-4.72,2.02-.5.21-1,.55-1.69.19-.11.1-9.39,9.09-15.69,12.87-.54.33-1.23.33-1.77,0-5.71-3.43-13.86-11.12-15.43-12.62.42.53.26.82-.57,1.17-4.82,2.04-9.72,3.95-14.4,6.27-2.92,1.45-5.39,1.44-8.29,0-4.49-2.25-9.18-4.1-13.79-6.12-1.25-.5-2.48-1.04-3.75-1.48-.83-.29-.78-.74-.53-1.42,1.97-5.45,3.92-10.89,5.84-16.36.32-.91.72-1.13,1.58-.69,1.01.51,2.07.94,3.11,1.41,8.09,3.49,16.18,7,24.28,10.47.43.19.78.45,1.08.75-1.46-1.72-2.86-3.47-4.2-5.28-1.72-2.31-3.11-4.27-3.14-4.26-.07.03-.2.06-.36-.03-5.23-2.05-10.39-4.27-15.47-6.67-1.1-.44-2.22-.84-3.3-1.32-.55-.24-1.45-.3-1.06-1.33.32-.82.31-1.88,1.72-1.73,1.28.14,2.59.06,3.88.08,2.43-.02,4.85-.02,7.28-.06.57-.01.95.17,1.22.59-.01-.02-.02-.04-.04-.07-.3-.57-1.42-2.53-2.87-5.82h0c-3.39,0-6.61,0-9.83,0-3.33,0-4.92,1.12-6.06,4.28-4.14,11.57-8.27,23.14-12.4,34.71-3.92,10.98-7.85,21.97-11.77,32.95-1.26,3.54-.32,5.91,2.99,7.58.12.06.21.2.31.3h149.68c3.73-2.37,4.58-4.31,3.35-7.75ZM128.55,103.45c1.52-.65,2.62-1.1,3.69-1.59.67-.31,1.06-.18,1.3.54.38,1.13.79,2.24,1.26,3.56-2.14-.57-3.89-1.63-6.25-2.51ZM14.42,128.8c.23-.69.59-.72,1.17-.46,1.62.73,3.26,1.42,5.16,2.25-2.8,1.22-5.34,2.33-8.25,3.6.72-2.02,1.35-3.69,1.91-5.39ZM90.86,154.34H11.34c.14-.52.62-.5.97-.65,12.43-5.38,24.87-10.74,37.29-16.15,1.07-.47,1.95-.53,3.07-.04,12.27,5.35,24.58,10.63,36.87,15.94.47.2.92.43,1.38.65-.02.08-.03.17-.05.25ZM107.78,154.39c-1.81.03-3.44-.32-5.1-1.05-16.41-7.13-32.86-14.2-49.27-21.34-1.62-.71-2.99-.66-4.58.04-13.31,5.81-26.65,11.56-39.99,17.32-.56.24-1.12.46-2.07.84,1.14-3.19,2.14-6.05,3.18-8.89.2-.54.82-.6,1.29-.8,5.57-2.42,11.14-4.83,16.71-7.23.88-.38,1.7-.81,2.04-1.78.52-1.47-.13-2.82-1.73-3.52-3.52-1.53-7.04-3.06-10.59-4.52-.92-.38-1.18-.75-.76-1.71.58-1.33,1.09-2.7,1.47-4.1.32-1.19.73-1.42,1.92-.9,6.93,3.06,13.9,6.01,20.83,9.06,1.45.64,2.73.65,4.17.02,6.84-3,13.72-5.91,20.56-8.91.89-.39,1.5-.34,2.21.33,1.56,1.44,3.2,2.8,4.96,4.34-2.21.97-4.31,1.92-6.44,2.8-1.33.55-2.41,1.22-2.38,2.88.04,1.59,1.13,2.19,2.38,2.73,18.15,7.82,36.3,15.65,54.44,23.49.45.19.99.27,1.41.88-4.98,0-9.84-.05-14.69.03ZM150.7,154.39c-1.35-.09-2.7-.05-4.05-.07-3.22.02-6.44.03-9.66.04-.36,0-.69-.05-1.04-.21-17.67-7.65-35.34-15.29-53.02-22.92-3-1.29-5.99-2.6-9.32-4.04,1.37-.59,2.46-1.07,3.56-1.53,9.33-4.01,18.66-8.01,27.98-12.02.63-.27,1.17-.47,1.91-.15,9.85,4.29,19.72,8.54,29.58,12.8.24.1.45.26.67.39,1.72.7,3.44,1.42,5.17,2.1.57.22.72.69.9,1.18,2.75,7.72,5.48,15.44,8.27,23.15.38,1.05.18,1.37-.94,1.3Z"/>
  <g>
    <path class="cls-2" d="M122.96,35.95C118.21,13.66,98.94-.01,78.7,0c-20.24-.01-39.51,13.66-44.26,35.95-2.12,9.97-.71,19.88,1.44,29.72.97,4.43,2.49,8.71,4.27,12.88.16.38.28.78.46,1.31,1.45,3.3,2.57,5.26,2.87,5.82,1.05,1.93,2.09,3.86,3.35,6.21,0,0,2.95,4.62,5.91,8.61,2.87,3.87,6.03,7.51,9.38,11.02,0,0,9.36,9.07,15.69,12.87.54.33,1.23.33,1.77,0,6.33-3.8,15.69-12.87,15.69-12.87,3.34-3.51,6.51-7.15,9.38-11.02,2.96-3.98,5.91-8.61,5.91-8.61,1.27-2.35,2.31-4.28,3.36-6.21.31-.57,1.42-2.53,2.87-5.82.18-.53.3-.93.46-1.31,1.78-4.17,3.3-8.45,4.27-12.88,2.15-9.83,3.56-19.75,1.43-29.72ZM118.23,53.05c-.8,7.98-2.68,15.71-5.7,23.17-3.84,9.49-9.39,17.9-15.88,25.74-4.78,5.78-10.14,10.99-16,15.67-.98.78-1.47,1.17-1.95,1.16-.48.01-.97-.38-1.95-1.16-5.86-4.68-11.22-9.89-16-15.67-6.48-7.84-12.04-16.25-15.87-25.74-3.02-7.46-4.91-15.19-5.71-23.17-.43-4.33-.7-8.7-.01-13.04,1.58-10.02,6.08-18.45,13.86-25.03,3.99-3.38,8.45-5.99,13.54-7.4,2.87-1.14,5.89-1.68,8.94-1.9,1.08-.08,2.15-.11,3.2-.11s2.13.03,3.2.11c3.05.22,6.07.75,8.94,1.9,5.08,1.41,9.54,4.02,13.54,7.4,7.77,6.58,12.28,15.01,13.86,25.03.68,4.34.42,8.71-.01,13.04Z"/>
    <path class="cls-2" d="M79.86,20.05c-.37-.02-.74-.03-1.11-.03-.02,0-.03,0-.05,0-.02,0-.03,0-.05,0-.37,0-.73,0-1.1.03-13.84.59-24.63,12.41-24.04,26.34.26,6.22,2.99,12.35,7.51,16.82,4.72,4.68,11,7.27,17.7,7.3,6.7-.03,12.98-2.62,17.7-7.3,4.51-4.47,7.24-10.6,7.51-16.82.58-13.93-10.21-25.75-24.04-26.34ZM98.74,48.13c-.97,6.81-5.3,12.62-11.58,15.56-.92.43-1.91.85-2.96.99h-.03s-.03.01-.03.01c-1.86.51-3.69.79-5.45.83-1.76-.05-3.59-.33-5.45-.83h-.03s-.03-.01-.03-.01c-1.04-.15-2.04-.56-2.95-.99-6.28-2.93-10.61-8.75-11.58-15.56-.97-6.79,1.55-13.57,6.73-18.13,2.63-2.31,5.26-3.68,8.06-4.2h.03s.03-.02.03-.02c1.62-.55,3.33-.83,5.08-.83.04,0,.08,0,.11,0,.04,0,.07,0,.11,0,1.75,0,3.46.28,5.08.83h.03s.03.02.03.02c2.8.52,5.43,1.89,8.06,4.2,5.19,4.56,7.71,11.34,6.73,18.13Z"/>
  </g>
</svg>