<?xml version="1.0" encoding="UTF-8"?>
<svg id="Camada_1" xmlns="http://www.w3.org/2000/svg" viewBox="0 0 387.92 391.32">
  <defs>
    <style>
      .cls-1 {
        fill: #4f9300;
      }

      .cls-2 {
        fill: #383838;
      }
    </style>
  </defs>
  <path class="cls-2" d="M51.99,382.71c-.87-1.21-2.34-1.12-3.54-1.58-10.77-4.13-17.74-15.84-15.9-26.79,2.09-12.47,11.77-21.3,24.04-21.37,26.66-.14,53.33-.07,80-.05,5.22,0,9.62-1.59,12.43-6.2,5.12-8.41-.91-18.64-11.11-18.69-19.85-.1-39.69-.02-59.54-.05-2.06,0-4.14-.16-6.17-.46-12.02-1.81-20.82-11.74-21-23.91-.15-10.35-.07-20.7-.03-31.05.02-4.27,2.56-7.08,6.21-7.06,3.54.02,6.19,2.95,6.21,7.16.06,9.74,0,19.48.03,29.22.03,8.52,4.81,13.4,13.33,13.42,19.85.06,39.69.04,59.54.02,9.84-.01,17.9,3.52,23.1,12.09,4.94,8.13,5.07,16.71.52,25.02-4.73,8.64-12.44,12.87-22.2,12.91-26.54.11-53.09.07-79.63.01-5.54-.01-9.74,2.1-12.15,7.09-3.88,8.04,1.57,17.13,10.54,17.8.85.06,1.7.03,2.56.03,87.79,0,175.58,0,263.37,0,9.92,0,17.11-4.76,19.6-13.21,2.01-6.81.86-13.23-4.22-18.27-7.86-7.8-16.16-15.16-24.15-22.83-2-1.92-2.73-.1-3.74.81-11.31,10.23-24.53,14.21-39.69,12.83-15.45-1.41-29.53-6.83-43.16-13.75-21.51-10.93-40.78-25.16-59.11-40.68-35.7-30.22-68.4-63.37-96.62-100.75-14.25-18.88-27.13-38.65-34.44-61.47-1-3.12-1.99-6.27-2.61-9.48-.76-3.96,1.06-6.66,4.57-7.49,3.08-.72,6.37.99,7.31,4.5,9.18,34.29,30.17,61.58,52.44,87.97,28.82,34.15,60.72,65.19,96.34,92.27,15.63,11.88,32.07,22.49,50.38,29.91,1.23.5,2.52.85,3.78,1.27,2.3,1.42,4.93,1.97,7.48,2.63,8.83,2.28,17.73,3.85,26.86,1.71,6.67-.64,12.35-3.57,17.14-8.05,5.59-5.23,10.78-10.88,16.37-16.11,2.33-2.18,2.35-3.38.04-5.68-21.07-20.88-42.01-41.89-62.98-62.87q-5.12-5.12-10.02.62c-1.93,1.82-3.77,3.75-5.8,5.45-5.54,4.62-11.74,5.86-18.63,3.46-3.39-1.18-5.9-3.71-8.94-5.43-.81-.74-1.56-1.53-2.42-2.2-18.47-14.33-35.99-29.69-51.45-47.3-8.66-9.86-17.15-19.87-24.84-30.51-6.15-8.51-5.33-17.64,1.99-25.07,2.56-2.6,5.08-5.24,7.76-7.71,1.56-1.43,1.41-2.38-.05-3.79-4.55-4.39-8.97-8.92-13.45-13.38-16.88-16.82-33.76-33.64-50.64-50.47q-4.42-4.98-9.04-.36c-4.22,4.22-8.38,8.5-12.68,12.63-3.4,3.26-7.32,3.11-9.85-.14-1.99-2.57-1.96-5.66.64-8.28,11.92-12.01,23.65-24.25,36.03-35.76,10.21-9.49,25.03-8.67,34.96,1.18,17.38,17.24,34.68,34.55,51.9,51.94,10.5,10.6,10.4,25.56-.1,36.23-8.63,8.76-17.39,17.4-26.07,26.11-3.67,3.68-3.88,6.1-.84,10.22,22.3,30.18,48.56,56.41,78.73,78.73,4.09,3.02,6.55,2.83,10.23-.84,8.46-8.42,16.87-16.88,25.33-25.3,11.19-11.15,26.54-11.28,37.72-.17,17.02,16.91,33.98,33.87,50.89,50.89,11.02,11.09,11.01,25.88.05,37.04-7.34,7.47-14.74,14.88-22.25,22.18-1.86,1.81-1.82,2.8.1,4.53,7.13,6.45,14.06,13.12,21.13,19.65,9.37,8.66,13.24,19.18,9.95,31.64-3.27,12.39-11.51,19.97-24.08,22.76-.3.07-.53.42-.79.64H51.99ZM103.07,21.8c-3.44-1.31-6.72-.67-9.79,1.03-2.9,1.61-4.96,4.24-7.29,6.54q-4.29,4.24.31,8.46c7.53,7.6,15.03,15.23,22.6,22.8,12.66,12.64,25.36,25.24,38.05,37.85q5.18,6.06,10.68.55c.69-.69,1.38-1.37,2.06-2.06,6.86-7,6.93-14.11.03-21.04-16.63-16.7-33.31-33.34-49.98-50-1.89-1.89-3.89-3.66-6.68-4.13ZM272.63,198.3c-5.47.86-7.9,5.74-11.73,8.78-2.63,2.09-2.17,3.51.06,5.72,20.2,20.04,40.29,40.2,60.42,60.32.77.77,1.63,1.43,2.45,2.15q4.43,5.53,9.38.57c1.2-1.21,2.41-2.41,3.61-3.62,5.89-5.97,6.1-13.01.16-19-16.97-17.12-34.03-34.14-51.12-51.14-3.64-3.62-7.98-5.49-13.23-3.79Z"/>
  <path class="cls-1" d="M300.39,64.69c-.06,2.16-.98,3.67-2.32,5.01-14.19,14.18-28.35,28.39-42.57,42.54-3.03,3.02-6.74,3.08-9.35.43-2.69-2.74-2.51-6.11.67-9.31,14.07-14.12,28.2-28.2,42.28-42.32,2.17-2.18,4.6-3.21,7.55-1.91,2.45,1.08,3.63,3.11,3.74,5.57Z"/>
  <path class="cls-1" d="M297.49,139.47c-9.01,0-18.02.02-27.03,0-4.74-.02-7.35-2.28-7.34-6.21.01-3.83,2.77-6.22,7.42-6.23,17.9-.03,35.8-.03,53.7,0,4.49,0,7.43,2.57,7.44,6.3.01,3.64-2.98,6.13-7.52,6.14-8.89.03-17.78,0-26.66,0Z"/>
  <path class="cls-1" d="M231.82,61.7c0,8.88.02,17.76,0,26.64-.02,4.81-2.17,7.36-6.11,7.39-3.97.02-6.31-2.56-6.32-7.26-.04-17.88-.03-35.77,0-53.65,0-4.74,2.28-7.36,6.19-7.39,3.95-.03,6.23,2.55,6.25,7.27.04,9,.01,18.01.01,27.01Z"/>
  <path class="cls-2" d="M45.89,77.15c.03,3.35-2.86,6.22-6.28,6.23-3.41.01-6.32-2.84-6.3-6.2.02-3.32,2.98-6.29,6.28-6.29,3.34,0,6.28,2.91,6.3,6.26Z"/>
</svg>